<svg width="81" height="87" viewBox="0 0 81 87" fill="none" xmlns="http://www.w3.org/2000/svg">
<path d="M19.8085 10.2371L19.8048 6.88855C19.7943 1.77597 21.0405 0.00246629 26.2803 0L46.0882 0.000733437C50.1123 0.0254489 50.961 3.60265 50.956 6.85635L50.9507 10.2371H46.1411C46.1533 9.95617 46.1489 9.67848 46.1411 9.39774C46.1361 9.67785 46.1298 9.95703 46.1411 10.2371H31.713C29.4508 10.2369 27.1836 10.2025 24.9223 10.2371C23.3196 10.0735 21.4619 10.3055 19.8085 10.2371ZM24.9223 4.84837V10.2371C27.1836 10.2024 29.4508 10.2369 31.713 10.2371H46.1411C46.1298 9.95698 46.1361 9.67779 46.1411 9.39768V4.84837L31.98 4.84884C29.6327 4.84907 27.2675 4.91081 24.9223 4.84837Z" fill="#E0E0E0"/>
<path d="M46.1406 10.2371C46.1293 9.957 46.1356 9.67781 46.1406 9.39771C46.1485 9.67844 46.1528 9.95614 46.1406 10.2371H50.9503C52.3387 10.2959 53.7563 10.2373 55.1488 10.2371L63.7438 10.2358C65.5173 10.2358 69.7095 9.54298 70.1862 11.7431C70.311 12.3185 70.3254 16.5833 70.2272 17.2926C69.9711 19.1436 68.2723 18.9471 66.8046 18.9484H7.69173C5.85437 18.9484 4.0062 18.9896 2.17015 18.941C-0.0918113 18.8811 0.604549 15.1624 0.59025 13.6392C0.550317 9.39031 1.16096 10.2328 5.13112 10.236L16.1629 10.2323C17.0935 10.2275 18.9643 10.3826 19.808 10.2371C21.4614 10.3055 23.3192 10.0735 24.9219 10.2371C27.1832 10.2025 29.4504 10.2369 31.7126 10.2371H46.1406Z" fill="#E0E0E0"/>
<path d="M61.0356 45.1302C70.6993 45.4061 79.0147 53.1052 80.311 62.6563C81.2141 69.3128 78.8477 75.9386 73.9328 80.5594C65.0819 88.8807 50.2261 87.5622 43.4221 77.6297C43.1135 77.1794 42.8478 76.5994 42.4785 76.2052C38.4705 68.568 38.4147 60.3368 43.886 53.238C44.7056 52.1748 45.7568 51.342 46.5788 50.3038L46.626 50.2432C47.5961 49.8185 48.8118 48.1298 50.7294 47.3584C54.0999 45.6777 57.2992 45.101 61.0356 45.1302ZM51.814 55.2811C50.1412 55.5092 48.981 57.3667 50.0577 58.8725C51.7565 61.2488 54.9312 63.3678 56.8135 65.6718C55.4495 66.9405 50.9415 71.1549 49.9824 72.6217C48.6371 74.6789 51.2074 76.9283 53.2098 75.6411C53.8431 75.2339 54.3802 74.5526 54.91 74.0208L58.1473 70.7463C58.7786 70.1062 59.4028 69.4161 60.0878 68.8348C61.4492 70.2953 62.9216 71.6684 64.3305 73.0847C65.8465 74.6086 66.4955 76.0754 68.6989 76.007C69.3832 75.8003 69.9773 75.4601 70.3341 74.8133C71.406 72.8693 68.9655 71.2102 67.7997 70.0254C66.4354 68.639 64.8288 66.8636 63.3287 65.6718C64.9638 63.9996 69.0232 60.383 70.1246 58.7503C71.1427 57.2403 70.0832 55.255 68.2098 55.2878C66.6029 55.3162 65.3962 57.1415 64.383 58.1683C63.0055 59.5641 61.5792 60.9229 60.2485 62.3634L60.0878 62.5387C59.0289 61.3768 57.8914 60.2894 56.7976 59.1608C55.6884 58.0163 53.5558 55.1424 51.814 55.2811Z" fill="#E45654"/>
<path d="M7.75391 22.6341C8.39485 22.5918 9.06041 22.6295 9.70354 22.6304L63.3288 22.6341C62.9899 24.2823 62.8998 26.007 62.7312 27.6805L61.3062 41.2058C61.1747 42.5143 61.0305 43.8134 61.0357 45.1301C57.2993 45.101 54.1 45.6777 50.7295 47.3583C48.8119 48.1297 47.5962 49.8185 46.6261 50.2432L46.5789 50.3037C45.757 51.3419 44.7057 52.1747 43.8861 53.238C38.4149 60.3368 38.4706 68.5679 42.4786 76.2051L22.5017 76.2076C17.7563 76.2167 13.5972 75.1007 12.2107 69.7163C11.8248 68.218 11.8217 66.5436 11.6669 65.001L8.56253 31.4354C8.30405 28.5015 7.95884 25.5723 7.75391 22.6341ZM35.1899 29.3598C33.022 29.7305 33.5273 32.1277 33.5277 33.7322L33.5307 62.673C33.5312 64.4482 32.8327 68.0694 35.7378 67.8009C37.8164 67.3616 37.2809 64.9333 37.2804 63.348L37.2863 34.9054C37.287 33.3088 37.9482 29.0887 35.1899 29.3598ZM20.4486 29.6863C18.0155 30.3911 19.1739 34.6319 19.3501 36.7205L21.4618 62.9649C21.5842 64.7275 21.1538 68.091 23.9184 67.8009C24.7231 67.5023 25.4338 66.8836 25.4059 65.9621C25.3303 63.4706 25.027 60.8639 24.8063 58.3755L22.9131 35.397C22.7323 33.4351 23.2274 29.4202 20.4486 29.6863ZM46.6262 50.2432C47.5962 49.8185 48.8119 48.1298 50.7295 47.3584C50.7175 45.4897 50.9033 43.6261 51.0482 41.7644L51.5192 35.4697C51.619 34.2207 51.9291 32.4067 51.8315 31.1927C51.7098 29.6765 49.8122 28.8171 48.7359 30.057C48.091 30.7997 48.1501 31.8461 48.0767 32.7676L47.0101 45.9845C46.8832 47.4026 46.8109 48.8315 46.6262 50.2432Z" fill="#E0E0E0"/>
</svg>
