<svg width="160" height="150" viewBox="0 0 160 150" fill="none" xmlns="http://www.w3.org/2000/svg">
<path d="M0.166016 57.9221V139.174C0.166016 145.153 5.41025 150 11.8794 150H148.121C154.59 150 159.834 145.153 159.834 139.174V57.9221H0.166016Z" fill="#2B2B2B"/>
<path d="M120 33.7298L85.3695 12.746C82.0007 10.7049 77.9992 10.7046 74.6301 12.7453L40 33.7231L0 57.9539L40 82.1244L80 106.295L120 82.0975L160 57.9538L120 33.7298Z" fill="#393939"/>
<path d="M3.29379 146.489C3.22752 146.489 3.16113 146.465 3.10769 146.418C2.99209 146.315 2.98164 146.137 3.08441 146.022L52.9736 89.8121C53.0763 89.6963 53.2535 89.6857 53.3691 89.7888C53.4847 89.8917 53.4951 90.0691 53.3923 90.1848L3.50317 146.394C3.44788 146.457 3.3709 146.489 3.29379 146.489Z" fill="#676767"/>
<path d="M156.705 146.489C156.627 146.489 156.55 146.457 156.495 146.394L106.606 90.1848C106.503 90.0689 106.513 89.8916 106.629 89.7887C106.745 89.6857 106.922 89.6961 107.025 89.812L156.914 146.022C157.017 146.138 157.006 146.315 156.891 146.418C156.837 146.465 156.771 146.489 156.705 146.489Z" fill="#676767"/>
<mask id="mask0_383_1062" style="mask-type:luminance" maskUnits="userSpaceOnUse" x="6" y="0" width="144" height="107">
<path d="M6.79492 61.9323L80.1015 106.245L149.227 64.5511V0H12.5509L6.79492 61.9323Z" fill="white"/>
</mask>
<g mask="url(#mask0_383_1062)">
<path d="M129.669 18.6041H17.9058C15.9348 18.6041 14.3027 20.3163 14.3027 22.2902V113.118H145.701V34.9139L129.669 18.6041Z" fill="#F0F0F0"/>
<path d="M145.64 34.9139L130.974 35.0407C130.585 35.0448 130.281 34.8922 130.005 34.6183C129.729 34.343 129.701 33.9698 129.701 33.5814V18.7161L145.64 34.9139Z" fill="#D5D5D5"/>
<path d="M108.989 61.3284C108.989 64.743 108.445 67.8671 107.355 70.7007C106.266 73.5343 104.727 75.7573 102.738 77.3698C100.749 78.9823 98.4404 79.7884 95.812 79.7884C94.0598 79.7884 92.5088 79.3675 91.1592 78.5257C89.8095 77.684 88.8387 76.5754 88.2467 75.2H87.6783C85.1211 78.2589 81.8652 79.7884 77.911 79.7884C73.7199 79.7884 70.4168 78.5257 68.0014 76.0003C65.5863 73.4749 64.3787 70.0189 64.3787 65.6322C64.3787 60.6288 65.9651 56.5978 69.138 53.5389C72.3109 50.48 76.4547 48.9505 81.5692 48.9505C83.6056 48.9505 85.8491 49.1462 88.2998 49.5374C90.7506 49.9287 92.7691 50.3971 94.3557 50.9424L93.5388 68.3353C93.5388 71.6313 94.4386 73.2793 96.2381 73.2793C97.7535 73.2793 98.9612 72.1708 99.8609 69.9536C100.761 67.7365 101.21 64.8377 101.21 61.2572C101.21 57.4394 100.417 54.0665 98.8308 51.1379C97.2442 48.2093 95.0126 45.9745 92.1357 44.4333C89.2588 42.892 85.9734 42.1213 82.2795 42.1213C77.4964 42.1213 73.3408 43.1053 69.8127 45.0734C66.2846 47.0416 63.5794 49.8811 61.6968 53.5921C59.8144 57.3031 58.8731 61.5891 58.8731 66.4501C58.8731 72.9947 60.6194 78.0158 64.112 81.5134C67.6046 85.011 72.6659 86.7598 79.2959 86.7598C81.8058 86.7598 84.5644 86.4811 87.5716 85.9238C90.5788 85.3666 93.5385 84.5544 96.451 83.4875V90.3166C91.3838 92.4744 85.7602 93.5532 79.58 93.5532C70.5822 93.5532 63.5675 91.182 58.5358 86.4396C53.5041 81.6972 50.9883 75.1052 50.9883 66.6636C50.9883 60.8067 52.2729 55.4892 54.842 50.7111C57.4111 45.9331 61.0695 42.1866 65.8171 39.4715C70.5646 36.7565 76.0284 35.3989 82.2086 35.3989C87.4179 35.3989 92.0708 36.466 96.167 38.6001C100.263 40.7342 103.425 43.7694 105.65 47.7056C107.876 51.642 108.989 56.1828 108.989 61.3284ZM72.619 65.7745C72.619 70.7779 74.6554 73.2794 78.7281 73.2794C80.8592 73.2794 82.4812 72.5266 83.5941 71.0208C84.707 69.5151 85.3818 67.0668 85.6185 63.6759L86.0803 55.8153C84.8727 55.5545 83.5111 55.424 81.9958 55.424C79.0359 55.424 76.7331 56.3488 75.0875 58.1983C73.4418 60.048 72.619 62.5734 72.619 65.7745Z" fill="#95DB44"/>
</g>
</svg>
