<svg width="187" height="150" viewBox="0 0 187 150" fill="none" xmlns="http://www.w3.org/2000/svg">
<path d="M27.166 57.9219V139.174C27.166 145.153 32.4102 150 38.8794 150H175.121C181.59 150 186.834 145.153 186.834 139.174V57.9219H27.166Z" fill="#2B2B2B"/>
<path d="M147 33.7296L112.369 12.7459C109.001 10.7047 104.999 10.7045 101.63 12.7452L67 33.723L27 57.9538L67 82.1243L107 106.295L147 82.0974L187 57.9537L147 33.7296Z" fill="#393939"/>
<path d="M30.2938 146.489C30.2275 146.489 30.1611 146.465 30.1077 146.418C29.9921 146.315 29.9816 146.137 30.0844 146.022L79.9736 89.812C80.0763 89.6962 80.2535 89.6856 80.3691 89.7887C80.4847 89.8916 80.4951 90.0689 80.3923 90.1847L30.5032 146.394C30.4479 146.457 30.3709 146.489 30.2938 146.489Z" fill="#676767"/>
<path d="M183.706 146.489C183.628 146.489 183.551 146.457 183.496 146.394L133.607 90.1848C133.504 90.0689 133.514 89.8916 133.63 89.7887C133.746 89.6857 133.923 89.6961 134.026 89.812L183.915 146.022C184.018 146.138 184.007 146.315 183.892 146.418C183.838 146.465 183.772 146.489 183.706 146.489Z" fill="#676767"/>
<mask id="mask0_236_7554" style="mask-type:luminance" maskUnits="userSpaceOnUse" x="33" y="0" width="144" height="107">
<path d="M33.7949 61.9323L107.101 106.245L176.227 64.5511V0H39.5509L33.7949 61.9323Z" fill="white"/>
</mask>
<g mask="url(#mask0_236_7554)">
<path d="M156.668 18.604H44.9048C42.9338 18.604 41.3018 20.3162 41.3018 22.2901V113.118H172.7V34.9138L156.668 18.604Z" fill="#F0F0F0"/>
<path d="M172.638 34.9141L157.972 35.0408C157.583 35.0449 157.279 34.8924 157.003 34.6184C156.727 34.3432 156.699 33.9699 156.699 33.5816V18.7163L172.638 34.9141Z" fill="#D5D5D5"/>
<path d="M135.988 61.3284C135.988 64.743 135.444 67.8671 134.354 70.7007C133.265 73.5343 131.726 75.7573 129.737 77.3698C127.748 78.9823 125.439 79.7884 122.811 79.7884C121.059 79.7884 119.508 79.3675 118.158 78.5257C116.809 77.684 115.838 76.5754 115.246 75.2H114.677C112.12 78.2589 108.864 79.7884 104.91 79.7884C100.719 79.7884 97.4158 78.5257 95.0005 76.0003C92.5853 73.4749 91.3777 70.0189 91.3777 65.6322C91.3777 60.6288 92.9641 56.5978 96.137 53.5389C99.31 50.48 103.454 48.9505 108.568 48.9505C110.605 48.9505 112.848 49.1462 115.299 49.5374C117.75 49.9287 119.768 50.3971 121.355 50.9424L120.538 68.3353C120.538 71.6313 121.438 73.2793 123.237 73.2793C124.752 73.2793 125.96 72.1708 126.86 69.9536C127.76 67.7365 128.21 64.8377 128.21 61.2572C128.21 57.4394 127.416 54.0665 125.83 51.1379C124.243 48.2093 122.012 45.9745 119.135 44.4333C116.258 42.892 112.972 42.1213 109.278 42.1213C104.495 42.1213 100.34 43.1053 96.8117 45.0734C93.2836 47.0416 90.5784 49.8811 88.6959 53.5921C86.8134 57.3031 85.8721 61.5891 85.8721 66.4501C85.8721 72.9947 87.6184 78.0158 91.111 81.5134C94.6037 85.011 99.665 86.7598 106.295 86.7598C108.805 86.7598 111.563 86.4811 114.571 85.9238C117.578 85.3666 120.538 84.5544 123.45 83.4875V90.3166C118.383 92.4744 112.759 93.5532 106.579 93.5532C97.5813 93.5532 90.5665 91.182 85.5348 86.4396C80.5032 81.6972 77.9873 75.1052 77.9873 66.6636C77.9873 60.8067 79.2719 55.4892 81.841 50.7111C84.4102 45.9331 88.0685 42.1866 92.8161 39.4715C97.5637 36.7565 103.027 35.3989 109.208 35.3989C114.417 35.3989 119.07 36.466 123.166 38.6001C127.262 40.7342 130.424 43.7694 132.649 47.7056C134.875 51.642 135.988 56.1828 135.988 61.3284ZM99.618 65.7745C99.618 70.7779 101.654 73.2794 105.727 73.2794C107.858 73.2794 109.48 72.5266 110.593 71.0208C111.706 69.5151 112.381 67.0668 112.618 63.6759L113.079 55.8153C111.872 55.5545 110.51 55.424 108.995 55.424C106.035 55.424 103.732 56.3488 102.087 58.1983C100.441 60.048 99.618 62.5734 99.618 65.7745Z" fill="#95DB44"/>
</g>
<path d="M27 150C41.6355 150 53.5 138.136 53.5 123.5C53.5 108.864 41.6355 97 27 97C12.3645 97 0.5 108.864 0.5 123.5C0.5 138.136 12.3645 150 27 150Z" fill="#95DB44"/>
<g opacity="0.2">
<path d="M27 149.129C12.5101 149.129 0.738293 137.499 0.50559 123.065C0.503105 123.21 0.5 123.355 0.5 123.5C0.5 138.135 12.3645 150 27 150C41.6357 150 53.5 138.135 53.5 123.5C53.5 123.354 53.4969 123.21 53.4946 123.064C53.2617 137.499 41.4901 149.129 27 149.129Z" fill="#2C2C2C"/>
</g>
<path d="M38 117.072L23.1988 133L16 125.257L18.8545 122.186L23.1988 126.856L35.1455 114L38 117.072Z" fill="white"/>
</svg>
