<svg width="187" height="150" viewBox="0 0 187 150" fill="none" xmlns="http://www.w3.org/2000/svg">
<path d="M26.666 57.9219V139.174C26.666 145.153 31.9102 150 38.3794 150H174.621C181.09 150 186.334 145.153 186.334 139.174V57.9219H26.666Z" fill="#2B2B2B"/>
<path d="M146.5 33.7296L111.869 12.7459C108.501 10.7047 104.499 10.7045 101.13 12.7452L66.5 33.723L26.5 57.9538L66.5 82.1243L106.5 106.295L146.5 82.0974L186.5 57.9537L146.5 33.7296Z" fill="#393939"/>
<path d="M29.7938 146.489C29.7275 146.489 29.6611 146.465 29.6077 146.418C29.4921 146.315 29.4816 146.137 29.5844 146.022L79.4736 89.812C79.5763 89.6962 79.7535 89.6856 79.8691 89.7887C79.9847 89.8916 79.9951 90.0689 79.8923 90.1847L30.0032 146.394C29.9479 146.457 29.8709 146.489 29.7938 146.489Z" fill="#676767"/>
<path d="M183.206 146.489C183.128 146.489 183.051 146.457 182.996 146.394L133.107 90.1848C133.004 90.0689 133.014 89.8916 133.13 89.7887C133.246 89.6857 133.423 89.6961 133.526 89.812L183.415 146.022C183.518 146.138 183.507 146.315 183.392 146.418C183.338 146.465 183.272 146.489 183.206 146.489Z" fill="#676767"/>
<mask id="mask0_236_7555" style="mask-type:luminance" maskUnits="userSpaceOnUse" x="33" y="0" width="143" height="107">
<path d="M33.2949 61.9323L106.601 106.245L175.727 64.5511V0H39.0509L33.2949 61.9323Z" fill="white"/>
</mask>
<g mask="url(#mask0_236_7555)">
<path d="M156.168 18.604H44.4048C42.4338 18.604 40.8018 20.3162 40.8018 22.2901V113.118H172.2V34.9138L156.168 18.604Z" fill="#F0F0F0"/>
<path d="M172.138 34.9141L157.472 35.0408C157.083 35.0449 156.779 34.8924 156.503 34.6184C156.227 34.3432 156.199 33.9699 156.199 33.5816V18.7163L172.138 34.9141Z" fill="#D5D5D5"/>
<path d="M135.488 61.3284C135.488 64.743 134.944 67.8671 133.854 70.7007C132.765 73.5343 131.226 75.7573 129.237 77.3698C127.248 78.9823 124.939 79.7884 122.311 79.7884C120.559 79.7884 119.008 79.3675 117.658 78.5257C116.309 77.684 115.338 76.5754 114.746 75.2H114.177C111.62 78.2589 108.364 79.7884 104.41 79.7884C100.219 79.7884 96.9158 78.5257 94.5005 76.0003C92.0853 73.4749 90.8777 70.0189 90.8777 65.6322C90.8777 60.6288 92.4641 56.5978 95.637 53.5389C98.81 50.48 102.954 48.9505 108.068 48.9505C110.105 48.9505 112.348 49.1462 114.799 49.5374C117.25 49.9287 119.268 50.3971 120.855 50.9424L120.038 68.3353C120.038 71.6313 120.938 73.2793 122.737 73.2793C124.252 73.2793 125.46 72.1708 126.36 69.9536C127.26 67.7365 127.71 64.8377 127.71 61.2572C127.71 57.4394 126.916 54.0665 125.33 51.1379C123.743 48.2093 121.512 45.9745 118.635 44.4333C115.758 42.892 112.472 42.1213 108.778 42.1213C103.995 42.1213 99.8398 43.1053 96.3117 45.0734C92.7836 47.0416 90.0784 49.8811 88.1959 53.5921C86.3134 57.3031 85.3721 61.5891 85.3721 66.4501C85.3721 72.9947 87.1184 78.0158 90.611 81.5134C94.1037 85.011 99.165 86.7598 105.795 86.7598C108.305 86.7598 111.063 86.4811 114.071 85.9238C117.078 85.3666 120.038 84.5544 122.95 83.4875V90.3166C117.883 92.4744 112.259 93.5532 106.079 93.5532C97.0813 93.5532 90.0665 91.182 85.0348 86.4396C80.0032 81.6972 77.4873 75.1052 77.4873 66.6636C77.4873 60.8067 78.7719 55.4892 81.341 50.7111C83.9102 45.9331 87.5685 42.1866 92.3161 39.4715C97.0637 36.7565 102.527 35.3989 108.708 35.3989C113.917 35.3989 118.57 36.466 122.666 38.6001C126.762 40.7342 129.924 43.7694 132.149 47.7056C134.375 51.642 135.488 56.1828 135.488 61.3284ZM99.118 65.7745C99.118 70.7779 101.154 73.2794 105.227 73.2794C107.358 73.2794 108.98 72.5266 110.093 71.0208C111.206 69.5151 111.881 67.0668 112.118 63.6759L112.579 55.8153C111.372 55.5545 110.01 55.424 108.495 55.424C105.535 55.424 103.232 56.3488 101.587 58.1983C99.9408 60.048 99.118 62.5734 99.118 65.7745Z" fill="#B7B7B7"/>
</g>
<path d="M26.5 150C41.1355 150 53 138.136 53 123.5C53 108.864 41.1355 97 26.5 97C11.8645 97 0 108.864 0 123.5C0 138.136 11.8645 150 26.5 150Z" fill="#F86161"/>
<g opacity="0.2">
<path d="M26.5 149.129C12.0101 149.129 0.238293 137.499 0.00558984 123.065C0.00310547 123.21 0 123.355 0 123.5C0 138.135 11.8645 150 26.5 150C41.1357 150 53 138.135 53 123.5C53 123.354 52.9969 123.21 52.9946 123.064C52.7617 137.499 40.9901 149.129 26.5 149.129Z" fill="#2C2C2C"/>
</g>
<path d="M35.707 117.414L29.1211 124L35.707 130.586L33.5859 132.707L27 126.121L20.4141 132.707L18.293 130.586L24.8789 124L18.293 117.414L20.4141 115.293L27 121.879L33.5859 115.293L35.707 117.414Z" fill="white" stroke="white"/>
</svg>
