<svg width="167" height="123" viewBox="0 0 167 123" fill="none" xmlns="http://www.w3.org/2000/svg">
<g opacity="0.4">
<path d="M48.8134 0.00011624L-0.000976562 32.855L48.0786 105.178L96.8929 72.3228L48.8134 0.00011624Z" fill="#F5F5F5"/>
<path d="M71.6709 68.8986L71.1167 72.3485L46.8506 68.8312L47.4044 65.3813L71.6709 68.8986Z" fill="#E0E0E0"/>
<path d="M59.4499 56.5925L62.932 57.0977L59.0714 81.1373L55.5889 80.633L59.4499 56.5925Z" fill="#E0E0E0"/>
<path d="M37.0972 26.0374C37.132 26.0899 32.2399 29.4434 26.1723 33.5272C20.1025 37.6122 15.1551 40.8804 15.1203 40.8279C15.0855 40.7758 19.9763 37.4226 26.0465 33.3376C32.1141 29.2539 37.0624 25.9853 37.0972 26.0374Z" fill="#C2C4CA"/>
<path d="M37.0972 26.0374C37.132 26.0899 32.2399 29.4434 26.1723 33.5272C20.1025 37.6122 15.1551 40.8804 15.1203 40.8279C15.0855 40.7758 19.9763 37.4226 26.0465 33.3376C32.1141 29.2539 37.0624 25.9853 37.0972 26.0374Z" fill="black" fill-opacity="0.2"/>
<path d="M55.0493 21.5042C55.0841 21.5567 46.9491 27.0928 36.8821 33.8678C26.8112 40.6454 18.6218 46.0957 18.587 46.0432C18.5522 45.9911 26.6854 40.4558 36.7559 33.6783C46.8229 26.9033 55.0145 21.4521 55.0493 21.5042Z" fill="#C2C4CA"/>
<path d="M55.0493 21.5042C55.0841 21.5567 46.9491 27.0928 36.8821 33.8678C26.8112 40.6454 18.6218 46.0957 18.587 46.0432C18.5522 45.9911 26.6854 40.4558 36.7559 33.6783C46.8229 26.9033 55.0145 21.4521 55.0493 21.5042Z" fill="black" fill-opacity="0.2"/>
<path d="M58.6479 26.9166C58.6827 26.9692 50.5477 32.5053 40.4807 39.2803C30.4098 46.0579 22.2205 51.5082 22.1857 51.4557C22.1509 51.4032 30.2841 45.8683 40.3546 39.0907C50.422 32.3158 58.6131 26.8645 58.6479 26.9166Z" fill="#C2C4CA"/>
<path d="M58.6479 26.9166C58.6827 26.9692 50.5477 32.5053 40.4807 39.2803C30.4098 46.0579 22.2205 51.5082 22.1857 51.4557C22.1509 51.4032 30.2841 45.8683 40.3546 39.0907C50.422 32.3158 58.6131 26.8645 58.6479 26.9166Z" fill="black" fill-opacity="0.2"/>
<path d="M62.2455 32.3303C62.2803 32.3829 54.1454 37.919 44.0784 44.694C34.0075 51.4716 25.8181 56.9219 25.7833 56.8694C25.7485 56.8173 33.8817 51.282 43.9522 44.5044C54.0197 37.729 62.2107 32.2778 62.2455 32.3303Z" fill="#C2C4CA"/>
<path d="M62.2455 32.3303C62.2803 32.3829 54.1454 37.919 44.0784 44.694C34.0075 51.4716 25.8181 56.9219 25.7833 56.8694C25.7485 56.8173 33.8817 51.282 43.9522 44.5044C54.0197 37.729 62.2107 32.2778 62.2455 32.3303Z" fill="black" fill-opacity="0.2"/>
<path d="M65.8442 37.7438C65.879 37.7963 57.744 43.332 47.677 50.1074C37.6061 56.885 29.4168 62.3354 29.3819 62.2828C29.3471 62.2303 37.4804 56.6955 47.5509 49.9179C57.6179 43.1429 65.8094 37.6917 65.8442 37.7438Z" fill="#E0E0E0"/>
<path d="M152.961 32.5885L126.438 5.47095L86.2244 44.4298L112.748 71.5474L152.961 32.5885Z" fill="#F5F5F5"/>
<path d="M135.085 28.205C135.05 28.2386 132.349 25.5327 129.051 22.1619C125.753 18.79 123.108 16.0305 123.142 15.9969C123.177 15.9633 125.878 18.6686 129.177 22.0406C132.474 25.4111 135.12 28.1714 135.085 28.205Z" fill="#C2C4CA"/>
<path d="M135.085 28.205C135.05 28.2386 132.349 25.5327 129.051 22.1619C125.753 18.79 123.108 16.0305 123.142 15.9969C123.177 15.9633 125.878 18.6686 129.177 22.0406C132.474 25.4111 135.12 28.1714 135.085 28.205Z" fill="black" fill-opacity="0.2"/>
<path d="M140.058 39.0608C140.023 39.0944 135.56 34.5871 130.089 28.9949C124.616 23.4006 120.209 18.8401 120.244 18.8065C120.279 18.7729 124.742 23.2793 130.214 28.8735C135.685 34.4655 140.093 39.0272 140.058 39.0608Z" fill="#C2C4CA"/>
<path d="M140.058 39.0608C140.023 39.0944 135.56 34.5871 130.089 28.9949C124.616 23.4006 120.209 18.8401 120.244 18.8065C120.279 18.7729 124.742 23.2793 130.214 28.8735C135.685 34.4655 140.093 39.0272 140.058 39.0608Z" fill="black" fill-opacity="0.2"/>
<path d="M137.048 41.9764C137.013 42.01 132.549 37.5028 127.079 31.9105C121.606 26.3163 117.2 21.7557 117.234 21.7221C117.269 21.6885 121.732 26.1949 127.205 31.7892C132.675 37.3811 137.083 41.9428 137.048 41.9764Z" fill="#C2C4CA"/>
<path d="M137.048 41.9764C137.013 42.01 132.549 37.5028 127.079 31.9105C121.606 26.3163 117.2 21.7557 117.234 21.7221C117.269 21.6885 121.732 26.1949 127.205 31.7892C132.675 37.3811 137.083 41.9428 137.048 41.9764Z" fill="black" fill-opacity="0.2"/>
<path d="M134.039 44.8918C134.004 44.9254 129.54 40.4182 124.069 34.826C118.597 29.2317 114.19 24.6711 114.225 24.6375C114.259 24.604 118.722 29.1103 124.195 34.7046C129.665 40.2966 134.073 44.8583 134.039 44.8918Z" fill="#C2C4CA"/>
<path d="M134.039 44.8918C134.004 44.9254 129.54 40.4182 124.069 34.826C118.597 29.2317 114.19 24.6711 114.225 24.6375C114.259 24.604 118.722 29.1103 124.195 34.7046C129.665 40.2966 134.073 44.8583 134.039 44.8918Z" fill="black" fill-opacity="0.2"/>
<path d="M131.029 47.8074C130.994 47.8411 126.53 43.3338 121.059 37.7416C115.587 32.1473 111.18 27.5868 111.215 27.5532C111.249 27.5197 115.712 32.026 121.185 37.6202C126.655 43.2122 131.064 47.7738 131.029 47.8074Z" fill="#C2C4CA"/>
<path d="M131.029 47.8074C130.994 47.8411 126.53 43.3338 121.059 37.7416C115.587 32.1473 111.18 27.5868 111.215 27.5532C111.249 27.5197 115.712 32.026 121.185 37.6202C126.655 43.2122 131.064 47.7738 131.029 47.8074Z" fill="black" fill-opacity="0.2"/>
<path d="M119.188 72.3509L53.7285 51.8488C52.0468 51.3222 51.1079 49.5234 51.6312 47.8313L64.2183 7.14355C64.7417 5.45139 66.5294 4.50664 68.2111 5.03327L133.671 25.5361C135.353 26.0627 136.291 27.8615 135.768 29.5533L123.181 70.2406C122.657 71.9327 120.87 72.8775 119.188 72.3509Z" fill="#C2C4CA"/>
<path d="M119.188 72.3509L53.7285 51.8488C52.0468 51.3222 51.1079 49.5234 51.6312 47.8313L64.2183 7.14355C64.7417 5.45139 66.5294 4.50664 68.2111 5.03327L133.671 25.5361C135.353 26.0627 136.291 27.8615 135.768 29.5533L123.181 70.2406C122.657 71.9327 120.87 72.8775 119.188 72.3509Z" fill="black" fill-opacity="0.2"/>
<path d="M62.2357 36.0181L60.9992 40.0148L60.5908 39.8867L61.7139 36.2555L60.7779 35.9625L60.891 35.5969L62.2357 36.0181Z" fill="white"/>
<path d="M65.1985 40.9285L65.0858 41.2941L62.2998 40.4215L62.39 40.1301L64.5444 39.0201C65.1301 38.7158 65.2988 38.4738 65.3834 38.1997C65.5265 37.737 65.2913 37.3506 64.6845 37.1605C64.219 37.0149 63.8173 37.0455 63.4627 37.2663L63.2511 36.9246C63.6708 36.6554 64.2276 36.6044 64.8348 36.7941C65.6407 37.0463 66.0243 37.6175 65.8177 38.2856C65.6993 38.6681 65.4739 38.9732 64.7781 39.3316L63.0144 40.2442L65.1985 40.9285Z" fill="white"/>
<path d="M69.5907 41.5529L68.7961 41.3042L68.4714 42.3548L68.063 42.2266L68.3877 41.176L66.1465 40.474L66.2385 40.1772L69.1635 38.1875L69.6174 38.3296L66.7875 40.274L68.5124 40.8142L68.7983 39.8895L69.1951 40.0139L68.9092 40.9386L69.7038 41.1873L69.5907 41.5529Z" fill="white"/>
<path d="M75.6779 43.4595L74.884 43.2108L74.559 44.2614L74.1506 44.1332L74.4756 43.0826L72.2344 42.3806L72.326 42.0838L75.2507 40.0938L75.7045 40.2359L72.8746 42.1798L74.5996 42.7201L74.8855 41.7954L75.2826 41.9197L74.9967 42.8444L75.791 43.0932L75.6779 43.4595Z" fill="white"/>
<path d="M79.1877 44.4214C78.9777 45.1008 78.342 45.4841 77.3719 45.1801C76.7985 45.0006 76.3157 44.6301 76.1064 44.2199L76.4059 43.9572C76.5784 44.3053 76.9721 44.6414 77.4827 44.8013C78.1579 45.0127 78.6178 44.7938 78.7681 44.3084C78.927 43.7946 78.7076 43.3753 77.698 43.0593L76.8526 42.7946L77.677 40.8545L79.8501 41.5354L79.737 41.9009L77.9212 41.332L77.3914 42.5625L77.902 42.7224C79.0994 43.0975 79.4068 43.7133 79.1877 44.4214Z" fill="white"/>
<path d="M83.1181 45.6338C82.8867 46.3815 82.154 46.6783 81.3819 46.4364C80.3269 46.1059 79.9812 45.1899 80.3716 43.928C80.7924 42.5693 81.7486 42.0922 82.8269 42.4298C83.1846 42.5417 83.4999 42.7095 83.7016 42.942L83.4345 43.2214C83.2725 43.021 83.0163 42.8842 82.7217 42.7919C81.8651 42.5235 81.143 42.905 80.8074 43.9896C80.7789 44.0807 80.7496 44.1968 80.724 44.32C81.0584 43.9427 81.5995 43.8429 82.1503 44.0153C82.9385 44.2626 83.3443 44.903 83.1181 45.6338ZM82.7112 45.5188C82.8739 44.9933 82.5921 44.5359 81.9793 44.3438C81.3722 44.1537 80.8413 44.4009 80.688 44.8977C80.5519 45.3374 80.7864 45.8678 81.4728 46.0829C82.0466 46.2625 82.5474 46.05 82.7112 45.5188Z" fill="white"/>
<path d="M88.5391 47.3813C88.3328 48.0493 87.6918 48.4122 86.733 48.112C86.1596 47.9325 85.6712 47.5601 85.4619 47.1503L85.761 46.8871C85.9334 47.2353 86.3328 47.5733 86.8495 47.7351C87.5073 47.9412 87.9665 47.7468 88.1198 47.2501C88.2682 46.7707 88.0307 46.3518 87.2932 46.1208L87.0095 46.032L87.1027 45.7292L88.633 44.6869L86.6015 44.0506L86.7146 43.6851L89.268 44.4846L89.1778 44.7761L87.6141 45.8456C88.4515 46.1579 88.7371 46.742 88.5391 47.3813Z" fill="white"/>
<path d="M92.5356 48.5827C92.3046 49.3309 91.5715 49.6273 90.8002 49.3857C89.7444 49.0549 89.3991 48.1393 89.7899 46.8774C90.2103 45.5186 91.1669 45.0419 92.2444 45.3795C92.6021 45.4914 92.9174 45.6593 93.1191 45.8914L92.8524 46.1712C92.6904 45.9704 92.4342 45.8336 92.1392 45.7413C91.2826 45.4729 90.5608 45.8544 90.2253 46.939C90.1968 47.0301 90.1671 47.1462 90.1415 47.2694C90.4759 46.8921 91.0173 46.7923 91.5678 46.9651C92.3564 47.2116 92.7618 47.852 92.5356 48.5827ZM92.1295 48.4678C92.2918 47.9427 92.01 47.4849 91.3976 47.2932C90.79 47.1027 90.2595 47.3499 90.1062 47.8467C89.9702 48.2864 90.2039 48.8168 90.8907 49.0319C91.4641 49.2111 91.9653 48.999 92.1295 48.4678Z" fill="white"/>
<path d="M97.0575 46.9238L96.9673 47.2152L94.1588 50.3999L93.7158 50.2612L96.4736 47.1419L94.4308 46.5019L94.1994 47.2496L93.797 47.1234L94.1415 46.01L97.0575 46.9238Z" fill="white"/>
<path d="M102.735 48.7022L102.645 48.9937L99.8361 52.1784L99.3936 52.0396L102.151 48.9203L100.108 48.2807L99.8767 49.0284L99.4743 48.9022L99.8189 47.7888L102.735 48.7022Z" fill="white"/>
<path d="M105.751 52.8099C105.532 53.5176 104.801 53.7709 103.853 53.4741C102.9 53.1758 102.457 52.5547 102.676 51.8466C102.825 51.3669 103.201 51.1155 103.746 51.1045C103.393 50.8183 103.265 50.4467 103.394 50.0301C103.595 49.3791 104.271 49.1462 105.11 49.4089C105.951 49.6717 106.386 50.2535 106.185 50.9041C106.056 51.3211 105.735 51.5521 105.278 51.5842C105.726 51.906 105.898 52.3358 105.751 52.8099ZM105.334 52.6723C105.486 52.1816 105.161 51.7415 104.457 51.5211C103.754 51.3007 103.244 51.4795 103.092 51.9702C102.938 52.467 103.258 52.9052 103.961 53.1252C104.665 53.346 105.18 53.169 105.334 52.6723ZM104.558 51.1956C105.177 51.3895 105.632 51.2251 105.766 50.7911C105.905 50.3401 105.599 49.9435 105.003 49.7567C104.402 49.5685 103.937 49.7235 103.799 50.1688C103.663 50.6085 103.939 51.002 104.558 51.1956Z" fill="white"/>
<path d="M109.894 53.0987C109.473 54.4575 108.516 54.9342 107.439 54.597C107.081 54.4847 106.766 54.3172 106.564 54.0847L106.831 53.8053C106.993 54.0061 107.25 54.1429 107.544 54.2352C108.401 54.5036 109.123 54.1221 109.458 53.0375C109.487 52.9464 109.516 52.8303 109.542 52.7071C109.207 53.0844 108.666 53.1838 108.115 53.0114C107.327 52.7645 106.921 52.1241 107.148 51.3934C107.379 50.6456 108.112 50.3488 108.883 50.5904C109.939 50.9208 110.284 51.8368 109.894 53.0987ZM109.577 52.129C109.713 51.6894 109.48 51.159 108.793 50.9442C108.22 50.7647 107.719 50.9771 107.554 51.5083C107.392 52.0334 107.673 52.4908 108.287 52.6829C108.893 52.8727 109.423 52.6258 109.577 52.129Z" fill="white"/>
<path d="M114.53 52.3957L113.293 56.3925L112.885 56.2647L114.008 52.6335L113.072 52.3405L113.185 51.975L114.53 52.3957Z" fill="white"/>
<path d="M117.49 57.3064L117.378 57.672L114.592 56.7991L114.682 56.5076L116.836 55.3977C117.422 55.0929 117.591 54.8514 117.675 54.5769C117.819 54.1145 117.583 53.7278 116.976 53.5376C116.511 53.3921 116.109 53.4223 115.755 53.6435L115.543 53.3014C115.962 53.0322 116.52 52.9808 117.127 53.1713C117.932 53.4235 118.316 53.9947 118.11 54.6627C117.991 55.0449 117.766 55.3504 117.07 55.7084L115.306 56.6214L117.49 57.3064Z" fill="white"/>
<path d="M121.295 57.6402C121.089 58.3082 120.447 58.6711 119.488 58.3706C118.915 58.191 118.427 57.819 118.218 57.4088L118.516 57.1457C118.689 57.4939 119.088 57.8319 119.605 57.9937C120.263 58.1997 120.722 58.0054 120.875 57.5086C121.024 57.0293 120.785 56.6104 120.049 56.3794L119.765 56.2906L119.858 55.9877L121.388 54.9451L119.357 54.3088L119.47 53.9432L122.023 54.7428L121.933 55.0343L120.37 56.1038C121.207 56.4168 121.493 57.0009 121.295 57.6402Z" fill="white"/>
<path d="M89.5261 52.1973L88.9893 53.9329L120.803 63.8969L121.34 62.1614L89.5261 52.1973Z" fill="white"/>
<path d="M103.954 60.5175L103.417 62.2531L119.734 67.3635L120.271 65.628L103.954 60.5175Z" fill="white"/>
<g opacity="0.5">
<path d="M72.4501 35.436L62.6617 32.3704C61.6785 32.0623 61.1292 31.0105 61.4354 30.0208L63.4312 23.5701C63.7374 22.5808 64.7827 22.0281 65.7663 22.3362L75.5535 25.4018C76.5368 25.7099 77.0857 26.7616 76.7799 27.751L74.7852 34.2017C74.4793 35.1914 73.4337 35.7441 72.4501 35.436Z" fill="#EBEBEB"/>
</g>
<path d="M61.7393 29.0354L61.9391 28.3919L68.8119 30.5449C69.6046 30.7929 70.4511 30.3461 70.6984 29.5473C70.9448 28.7492 70.494 27.8861 69.7072 27.6498L62.8337 25.4968L63.0332 24.8534L69.906 27.0064C71.0515 27.3655 71.694 28.595 71.3378 29.7476C70.9805 30.9007 69.7583 31.5472 68.6123 31.1888L61.7393 29.0354Z" fill="#C2C4CA"/>
<path d="M61.7393 29.0354L61.9391 28.3919L68.8119 30.5449C69.6046 30.7929 70.4511 30.3461 70.6984 29.5473C70.9448 28.7492 70.494 27.8861 69.7072 27.6498L62.8337 25.4968L63.0332 24.8534L69.906 27.0064C71.0515 27.3655 71.694 28.595 71.3378 29.7476C70.9805 30.9007 69.7583 31.5472 68.6123 31.1888L61.7393 29.0354Z" fill="black" fill-opacity="0.2"/>
<path d="M71.1157 29.3273L70.916 29.9707L75.632 31.4527L75.8317 30.8093L71.1157 29.3273Z" fill="#C2C4CA"/>
<path d="M71.1157 29.3273L70.916 29.9707L75.632 31.4527L75.8317 30.8093L71.1157 29.3273Z" fill="black" fill-opacity="0.2"/>
<path d="M102.446 24.7764L68.1152 14.0206L67.1978 16.9852L101.528 27.741L102.446 24.7764Z" fill="white"/>
<path d="M124.375 37.0796L119.725 35.623C119.1 35.4275 118.752 34.7602 118.946 34.1323L120.394 29.4532C120.588 28.8252 121.251 28.4748 121.876 28.6702L126.526 30.1269C127.15 30.3223 127.498 30.9896 127.304 31.6175L125.856 36.2966C125.662 36.9246 124.999 37.275 124.375 37.0796Z" fill="white"/>
<path d="M56.5527 53.6344L44.7432 114.726L43.1973 122.723L122.035 122.332C125.573 122.314 128.709 119.153 129.847 114.457L143.827 56.78C144.691 53.2147 142.795 49.5065 140.109 49.5095L60.3158 49.5939C58.5541 49.5962 57.0139 51.2502 56.5527 53.6344Z" fill="#5C6066"/>
<g opacity="0.5">
<path d="M56.5527 53.6344L44.7432 114.726L43.1973 122.723L122.035 122.332C125.573 122.314 128.709 119.153 129.847 114.457L143.827 56.78C144.691 53.2147 142.795 49.5065 140.109 49.5095L60.3158 49.5939C58.5541 49.5962 57.0139 51.2502 56.5527 53.6344Z" fill="#1C1D22"/>
</g>
<path d="M114.473 110.587L106.126 42.906C105.784 40.1327 103.588 38.064 100.996 38.0728L82.6923 38.1329C81.3377 38.1373 80.0389 38.717 79.0764 39.7462L70.3849 49.0427L19.4795 49.3099C16.3685 49.3264 13.9787 52.2879 14.3911 55.6156L22.1412 118.17C22.4842 120.939 24.6757 123.005 27.2643 123L115.982 122.824C125.863 123.03 126.806 120.093 126.806 120.093C115.482 122.619 114.474 110.594 114.473 110.587Z" fill="#5C6066"/>
<g opacity="0.5">
<path d="M76.2185 97.0414L73.2265 100.275L50.1816 79.4152L53.174 76.1819L76.2185 97.0414Z" fill="white"/>
<path d="M71.9724 75.4651L75.2794 78.4582L54.4281 100.992L51.1211 97.9984L71.9724 75.4651Z" fill="white"/>
</g>
<path d="M166.87 108.338C167.809 114.612 163.505 120.467 157.255 121.415C151.005 122.363 145.176 118.045 144.236 111.77C143.296 105.496 147.601 99.6413 153.851 98.6933C160.101 97.7457 165.93 102.064 166.87 108.338Z" fill="#F5F5F5"/>
<path d="M164.178 108.746C164.894 113.527 161.613 117.989 156.85 118.711C152.087 119.434 147.646 116.143 146.929 111.362C146.213 106.58 149.494 102.119 154.256 101.396C159.019 100.675 163.461 103.965 164.178 108.746Z" fill="#EBEBEB"/>
<path d="M164.134 108.475C164.082 108.484 163.989 108.109 163.75 107.466C163.509 106.826 163.105 105.911 162.357 104.957C161.983 104.482 161.527 104 160.979 103.553C160.427 103.111 159.791 102.699 159.067 102.378C158.706 102.216 158.326 102.072 157.928 101.961C157.531 101.848 157.118 101.756 156.692 101.704C156.267 101.651 155.83 101.62 155.388 101.634C154.945 101.647 154.497 101.693 154.049 101.772C153.601 101.858 153.166 101.975 152.748 102.12C152.328 102.265 151.931 102.449 151.551 102.65C151.171 102.851 150.818 103.084 150.486 103.331C150.153 103.577 149.848 103.847 149.568 104.127C149.004 104.684 148.553 105.298 148.194 105.907C147.839 106.52 147.581 107.134 147.399 107.711C147.036 108.869 146.981 109.87 146.98 110.553C146.984 111.24 147.029 111.624 146.976 111.633C146.938 111.641 146.806 111.271 146.721 110.568C146.64 109.87 146.622 108.821 146.945 107.58C147.108 106.962 147.354 106.3 147.711 105.634C148.072 104.973 148.537 104.304 149.129 103.692C149.424 103.386 149.746 103.09 150.1 102.82C150.453 102.549 150.832 102.292 151.239 102.072C151.646 101.85 152.074 101.649 152.526 101.49C152.977 101.33 153.447 101.203 153.929 101.111C154.412 101.025 154.896 100.978 155.373 100.966C155.852 100.954 156.323 100.99 156.781 101.052C157.24 101.113 157.684 101.218 158.109 101.346C158.536 101.472 158.942 101.635 159.325 101.816C160.094 102.177 160.764 102.636 161.335 103.126C161.903 103.621 162.366 104.153 162.736 104.673C163.476 105.718 163.828 106.705 163.999 107.387C164.167 108.075 164.173 108.468 164.134 108.475Z" fill="#C2C4CA"/>
<path d="M164.134 108.475C164.082 108.484 163.989 108.109 163.75 107.466C163.509 106.826 163.105 105.911 162.357 104.957C161.983 104.482 161.527 104 160.979 103.553C160.427 103.111 159.791 102.699 159.067 102.378C158.706 102.216 158.326 102.072 157.928 101.961C157.531 101.848 157.118 101.756 156.692 101.704C156.267 101.651 155.83 101.62 155.388 101.634C154.945 101.647 154.497 101.693 154.049 101.772C153.601 101.858 153.166 101.975 152.748 102.12C152.328 102.265 151.931 102.449 151.551 102.65C151.171 102.851 150.818 103.084 150.486 103.331C150.153 103.577 149.848 103.847 149.568 104.127C149.004 104.684 148.553 105.298 148.194 105.907C147.839 106.52 147.581 107.134 147.399 107.711C147.036 108.869 146.981 109.87 146.98 110.553C146.984 111.24 147.029 111.624 146.976 111.633C146.938 111.641 146.806 111.271 146.721 110.568C146.64 109.87 146.622 108.821 146.945 107.58C147.108 106.962 147.354 106.3 147.711 105.634C148.072 104.973 148.537 104.304 149.129 103.692C149.424 103.386 149.746 103.09 150.1 102.82C150.453 102.549 150.832 102.292 151.239 102.072C151.646 101.85 152.074 101.649 152.526 101.49C152.977 101.33 153.447 101.203 153.929 101.111C154.412 101.025 154.896 100.978 155.373 100.966C155.852 100.954 156.323 100.99 156.781 101.052C157.24 101.113 157.684 101.218 158.109 101.346C158.536 101.472 158.942 101.635 159.325 101.816C160.094 102.177 160.764 102.636 161.335 103.126C161.903 103.621 162.366 104.153 162.736 104.673C163.476 105.718 163.828 106.705 163.999 107.387C164.167 108.075 164.173 108.468 164.134 108.475Z" fill="black" fill-opacity="0.2"/>
<path d="M157.304 115.082L157.552 116.59L156.214 116.812L155.973 115.345C154.634 115.485 153.295 115.279 152.464 114.823L152.929 113.057C153.68 113.444 154.704 113.647 155.683 113.581L155.313 111.332C153.767 111.216 152.026 110.994 151.71 109.069C151.475 107.642 152.304 106.245 154.378 105.65L154.132 104.155L155.47 103.932L155.712 105.401C156.729 105.314 157.75 105.421 158.563 105.769L158.167 107.537C157.42 107.261 156.686 107.147 156.004 107.178L156.381 109.467C157.924 109.57 159.638 109.796 159.951 111.694C160.181 113.095 159.363 114.476 157.304 115.082ZM154.987 109.353L154.672 107.441C153.99 107.721 153.773 108.159 153.846 108.603C153.924 109.074 154.367 109.263 154.987 109.353ZM157.823 112.215C157.745 111.744 157.315 111.553 156.706 111.446L157.012 113.305C157.657 113.045 157.894 112.646 157.823 112.215Z" fill="#C2C4CA"/>
<path d="M157.304 115.082L157.552 116.59L156.214 116.812L155.973 115.345C154.634 115.485 153.295 115.279 152.464 114.823L152.929 113.057C153.68 113.444 154.704 113.647 155.683 113.581L155.313 111.332C153.767 111.216 152.026 110.994 151.71 109.069C151.475 107.642 152.304 106.245 154.378 105.65L154.132 104.155L155.47 103.932L155.712 105.401C156.729 105.314 157.75 105.421 158.563 105.769L158.167 107.537C157.42 107.261 156.686 107.147 156.004 107.178L156.381 109.467C157.924 109.57 159.638 109.796 159.951 111.694C160.181 113.095 159.363 114.476 157.304 115.082ZM154.987 109.353L154.672 107.441C153.99 107.721 153.773 108.159 153.846 108.603C153.924 109.074 154.367 109.263 154.987 109.353ZM157.823 112.215C157.745 111.744 157.315 111.553 156.706 111.446L157.012 113.305C157.657 113.045 157.894 112.646 157.823 112.215Z" fill="black" fill-opacity="0.2"/>
<path d="M127.125 90.1627C127.702 94.0133 125.06 97.6062 121.225 98.1879C117.389 98.7696 113.812 96.1199 113.235 92.2693C112.659 88.4189 115.3 84.8257 119.136 84.244C122.972 83.6623 126.549 86.3123 127.125 90.1627Z" fill="#F5F5F5"/>
<path d="M125.473 90.4134C125.912 93.3476 123.899 96.0857 120.976 96.5289C118.053 96.9722 115.327 94.9529 114.887 92.0186C114.448 89.0843 116.461 86.346 119.384 85.9027C122.307 85.4598 125.033 87.4791 125.473 90.4134Z" fill="#EBEBEB"/>
<path d="M125.447 90.2466C125.415 90.2527 125.357 90.0225 125.211 89.6273C125.063 89.2351 124.815 88.673 124.356 88.0876C124.127 87.7962 123.847 87.5005 123.51 87.226C123.172 86.9551 122.781 86.7018 122.337 86.5048C122.116 86.4054 121.883 86.317 121.638 86.2491C121.395 86.1799 121.142 86.1228 120.88 86.0912C120.619 86.0586 120.351 86.0401 120.079 86.0485C119.807 86.0566 119.532 86.0845 119.257 86.1328C118.983 86.1853 118.716 86.2572 118.459 86.3466C118.201 86.4356 117.957 86.5485 117.725 86.6718C117.491 86.7948 117.275 86.9383 117.071 87.0899C116.866 87.2404 116.679 87.4064 116.507 87.5781C116.162 87.9206 115.885 88.2969 115.664 88.6709C115.446 89.0473 115.288 89.4237 115.177 89.7778C114.953 90.4886 114.92 91.1025 114.919 91.5219C114.922 91.9433 114.949 92.1792 114.917 92.1849C114.894 92.1896 114.812 91.9628 114.76 91.5313C114.711 91.1025 114.699 90.459 114.898 89.6975C114.998 89.3181 115.148 88.9119 115.368 88.5036C115.589 88.0977 115.875 87.6874 116.238 87.312C116.419 87.1242 116.617 86.9424 116.834 86.7767C117.051 86.61 117.283 86.4527 117.533 86.3173C117.783 86.1816 118.045 86.0579 118.323 85.9605C118.599 85.8627 118.888 85.7844 119.183 85.7279C119.48 85.6752 119.777 85.6459 120.07 85.6389C120.364 85.6315 120.653 85.6537 120.934 85.6916C121.216 85.7289 121.488 85.7934 121.749 85.8721C122.011 85.9494 122.26 86.0488 122.495 86.1601C122.967 86.3815 123.378 86.6634 123.729 86.9642C124.077 87.268 124.362 87.5939 124.588 87.9132C125.042 88.5547 125.258 89.1605 125.363 89.5792C125.466 90.0016 125.47 90.2426 125.447 90.2466Z" fill="#C2C4CA"/>
<path d="M125.447 90.2466C125.415 90.2527 125.357 90.0225 125.211 89.6273C125.063 89.2351 124.815 88.673 124.356 88.0876C124.127 87.7962 123.847 87.5005 123.51 87.226C123.172 86.9551 122.781 86.7018 122.337 86.5048C122.116 86.4054 121.883 86.317 121.638 86.2491C121.395 86.1799 121.142 86.1228 120.88 86.0912C120.619 86.0586 120.351 86.0401 120.079 86.0485C119.807 86.0566 119.532 86.0845 119.257 86.1328C118.983 86.1853 118.716 86.2572 118.459 86.3466C118.201 86.4356 117.957 86.5485 117.725 86.6718C117.491 86.7948 117.275 86.9383 117.071 87.0899C116.866 87.2404 116.679 87.4064 116.507 87.5781C116.162 87.9206 115.885 88.2969 115.664 88.6709C115.446 89.0473 115.288 89.4237 115.177 89.7778C114.953 90.4886 114.92 91.1025 114.919 91.5219C114.922 91.9433 114.949 92.1792 114.917 92.1849C114.894 92.1896 114.812 91.9628 114.76 91.5313C114.711 91.1025 114.699 90.459 114.898 89.6975C114.998 89.3181 115.148 88.9119 115.368 88.5036C115.589 88.0977 115.875 87.6874 116.238 87.312C116.419 87.1242 116.617 86.9424 116.834 86.7767C117.051 86.61 117.283 86.4527 117.533 86.3173C117.783 86.1816 118.045 86.0579 118.323 85.9605C118.599 85.8627 118.888 85.7844 119.183 85.7279C119.48 85.6752 119.777 85.6459 120.07 85.6389C120.364 85.6315 120.653 85.6537 120.934 85.6916C121.216 85.7289 121.488 85.7934 121.749 85.8721C122.011 85.9494 122.26 86.0488 122.495 86.1601C122.967 86.3815 123.378 86.6634 123.729 86.9642C124.077 87.268 124.362 87.5939 124.588 87.9132C125.042 88.5547 125.258 89.1605 125.363 89.5792C125.466 90.0016 125.47 90.2426 125.447 90.2466Z" fill="black" fill-opacity="0.2"/>
<path d="M121.255 94.3016L121.407 95.2271L120.586 95.3635L120.438 94.4629C119.617 94.5486 118.794 94.4226 118.284 94.1423L118.57 93.059C119.031 93.2965 119.659 93.4209 120.26 93.3802L120.033 92.0001C119.085 91.9292 118.016 91.7928 117.822 90.6113C117.678 89.7352 118.186 88.878 119.459 88.5134L119.308 87.596L120.129 87.4592L120.278 88.3601C120.902 88.3071 121.528 88.3726 122.028 88.5863L121.784 89.6714C121.326 89.5017 120.876 89.4321 120.457 89.4506L120.688 90.8556C121.635 90.9184 122.687 91.0575 122.879 92.2226C123.02 93.0821 122.518 93.93 121.255 94.3016ZM119.833 90.7857L119.64 89.6122C119.221 89.7839 119.088 90.0524 119.133 90.325C119.18 90.6143 119.452 90.7306 119.833 90.7857ZM121.573 92.5421C121.525 92.2528 121.261 92.1355 120.888 92.07L121.075 93.2105C121.471 93.0516 121.617 92.8066 121.573 92.5421Z" fill="#C2C4CA"/>
<path d="M121.255 94.3016L121.407 95.2271L120.586 95.3635L120.438 94.4629C119.617 94.5486 118.794 94.4226 118.284 94.1423L118.57 93.059C119.031 93.2965 119.659 93.4209 120.26 93.3802L120.033 92.0001C119.085 91.9292 118.016 91.7928 117.822 90.6113C117.678 89.7352 118.186 88.878 119.459 88.5134L119.308 87.596L120.129 87.4592L120.278 88.3601C120.902 88.3071 121.528 88.3726 122.028 88.5863L121.784 89.6714C121.326 89.5017 120.876 89.4321 120.457 89.4506L120.688 90.8556C121.635 90.9184 122.687 91.0575 122.879 92.2226C123.02 93.0821 122.518 93.93 121.255 94.3016ZM119.833 90.7857L119.64 89.6122C119.221 89.7839 119.088 90.0524 119.133 90.325C119.18 90.6143 119.452 90.7306 119.833 90.7857ZM121.573 92.5421C121.525 92.2528 121.261 92.1355 120.888 92.07L121.075 93.2105C121.471 93.0516 121.617 92.8066 121.573 92.5421Z" fill="black" fill-opacity="0.2"/>
<path d="M27.9065 97.0605C28.6886 102.285 25.1048 107.159 19.9013 107.948C14.6977 108.737 9.8448 105.142 9.06232 99.9181C8.27983 94.6944 11.8636 89.8199 17.0675 89.0308C22.2711 88.2418 27.124 91.8368 27.9065 97.0605Z" fill="#F5F5F5"/>
<path d="M25.6646 97.4005C26.2608 101.381 23.5296 105.096 19.564 105.697C15.5988 106.299 11.9005 103.559 11.3043 99.5784C10.7082 95.5973 13.4394 91.8828 17.4049 91.2813C21.3701 90.6804 25.0682 93.4198 25.6646 97.4005Z" fill="#EBEBEB"/>
<path d="M25.6291 97.1744C25.5857 97.1824 25.5079 96.8703 25.3091 96.3343C25.1084 95.8023 24.7721 95.0395 24.1493 94.2455C23.8384 93.8503 23.4583 93.4491 23.0021 93.0767C22.5432 92.7091 22.0125 92.3653 21.4104 92.0985C21.1102 91.9638 20.7939 91.8438 20.4623 91.7514C20.1316 91.6573 19.788 91.58 19.4333 91.537C19.0793 91.493 18.7156 91.4674 18.3469 91.4789C17.9782 91.4896 17.6055 91.5276 17.2321 91.5935C16.8598 91.6647 16.4974 91.7621 16.1491 91.8835C15.8001 92.0041 15.4691 92.1573 15.1532 92.3247C14.8362 92.4917 14.5423 92.6862 14.2662 92.8919C13.9886 93.0962 13.7351 93.3214 13.5017 93.5542C13.0325 94.0186 12.6571 94.5294 12.3579 95.0365C12.0623 95.5469 11.8479 96.0577 11.6963 96.5383C11.3937 97.5023 11.3476 98.3354 11.3473 98.9043C11.3506 99.4759 11.3873 99.7961 11.3439 99.8035C11.3119 99.8103 11.202 99.5024 11.1312 98.9171C11.0644 98.3354 11.0487 97.462 11.3182 96.429C11.4535 95.9146 11.6585 95.3635 11.9558 94.8093C12.2567 94.2586 12.6434 93.7018 13.1367 93.1927C13.3821 92.9376 13.65 92.691 13.9452 92.4665C14.2391 92.2407 14.5537 92.0269 14.8933 91.8435C15.232 91.6593 15.5887 91.4916 15.9647 91.3592C16.3401 91.2262 16.7312 91.1203 17.1326 91.0437C17.535 90.9721 17.9378 90.9325 18.3356 90.9227C18.7336 90.9126 19.1261 90.9425 19.5078 90.994C19.8898 91.0444 20.2592 91.1321 20.6136 91.2389C20.9689 91.3438 21.3062 91.4789 21.6255 91.6297C22.2657 91.9302 22.8238 92.3129 23.2993 92.7209C23.7719 93.1328 24.158 93.5754 24.4659 94.0082C25.0817 94.8782 25.3746 95.7005 25.5172 96.2684C25.6558 96.842 25.6612 97.169 25.6291 97.1744Z" fill="#E0E0E0"/>
<path d="M19.9419 102.676L20.1487 103.931L19.0346 104.117L18.8335 102.895C17.7194 103.011 16.6039 102.84 15.9119 102.46L16.2994 100.99C16.9249 101.312 17.7765 101.481 18.592 101.426L18.2838 99.5535C16.9973 99.457 15.5476 99.2722 15.2841 97.669C15.0887 96.4808 15.7787 95.3177 17.5056 94.8227L17.3009 93.5781L18.415 93.3926L18.6161 94.6147C19.4627 94.5428 20.3126 94.6315 20.9899 94.9215L20.66 96.3934C20.0381 96.1632 19.4276 96.0688 18.8592 96.094L19.1728 98C20.4573 98.0853 21.885 98.2739 22.1451 99.8543C22.3368 101.021 21.6559 102.171 19.9419 102.676ZM18.0126 97.9059L17.7504 96.3141C17.1824 96.547 17.0017 96.9112 17.0625 97.2812C17.1273 97.6734 17.4966 97.831 18.0126 97.9059ZM20.3738 100.289C20.309 99.8963 19.951 99.7373 19.4443 99.6486L19.6988 101.196C20.2355 100.98 20.4325 100.647 20.3738 100.289Z" fill="#C2C4CA"/>
<path d="M19.9419 102.676L20.1487 103.931L19.0346 104.117L18.8335 102.895C17.7194 103.011 16.6039 102.84 15.9119 102.46L16.2994 100.99C16.9249 101.312 17.7765 101.481 18.592 101.426L18.2838 99.5535C16.9973 99.457 15.5476 99.2722 15.2841 97.669C15.0887 96.4808 15.7787 95.3177 17.5056 94.8227L17.3009 93.5781L18.415 93.3926L18.6161 94.6147C19.4627 94.5428 20.3126 94.6315 20.9899 94.9215L20.66 96.3934C20.0381 96.1632 19.4276 96.0688 18.8592 96.094L19.1728 98C20.4573 98.0853 21.885 98.2739 22.1451 99.8543C22.3368 101.021 21.6559 102.171 19.9419 102.676ZM18.0126 97.9059L17.7504 96.3141C17.1824 96.547 17.0017 96.9112 17.0625 97.2812C17.1273 97.6734 17.4966 97.831 18.0126 97.9059ZM20.3738 100.289C20.309 99.8963 19.951 99.7373 19.4443 99.6486L19.6988 101.196C20.2355 100.98 20.4325 100.647 20.3738 100.289Z" fill="black" fill-opacity="0.2"/>
</g>
</svg>
