<svg width="32" height="32" viewBox="0 0 32 32" fill="none" xmlns="http://www.w3.org/2000/svg">
<path d="M13.2342 4.6315C14.4371 2.45617 17.5638 2.45617 18.7667 4.6315L29.6518 24.3065C30.8181 26.4143 29.2934 29 26.8848 29H5.11745C2.70744 29 1.18274 26.4143 2.3491 24.3065L13.2342 4.6315ZM17.4036 23.379C17.4095 23.191 17.3776 23.0037 17.3098 22.8283C17.242 22.6528 17.1396 22.4928 17.0087 22.3577C16.8778 22.2226 16.7211 22.1152 16.5479 22.0419C16.3747 21.9685 16.1885 21.9307 16.0004 21.9307C15.8123 21.9307 15.6262 21.9685 15.453 22.0419C15.2798 22.1152 15.1231 22.2226 14.9922 22.3577C14.8613 22.4928 14.7589 22.6528 14.6911 22.8283C14.6232 23.0037 14.5913 23.191 14.5973 23.379C14.6088 23.7434 14.7617 24.0891 15.0236 24.3428C15.2855 24.5965 15.6358 24.7384 16.0004 24.7384C16.3651 24.7384 16.7154 24.5965 16.9773 24.3428C17.2392 24.0891 17.392 23.7434 17.4036 23.379ZM17.0396 12.3435C17.0032 12.0789 16.8676 11.8379 16.6603 11.6694C16.4531 11.5009 16.1895 11.4174 15.923 11.4357C15.6565 11.4541 15.4069 11.573 15.2247 11.7684C15.0425 11.9638 14.9413 12.2211 14.9416 12.4883L14.9472 18.8133L14.957 18.9567C14.9934 19.2213 15.129 19.4623 15.3363 19.6308C15.5436 19.7993 15.8072 19.8828 16.0737 19.8644C16.3402 19.8461 16.5898 19.7271 16.772 19.5317C16.9542 19.3364 17.0553 19.0791 17.0551 18.8119L17.0495 12.4855L17.0396 12.3435Z" fill="url(#paint0_linear_383_2316)"/>
<defs>
<linearGradient id="paint0_linear_383_2316" x1="16.0006" y1="-14.1716" x2="16.0006" y2="43.5295" gradientUnits="userSpaceOnUse">
<stop stop-color="#849D67"/>
<stop offset="1" stop-color="#B2F861"/>
</linearGradient>
</defs>
</svg>
