<svg width="24" height="24" viewBox="0 0 24 24" fill="none" xmlns="http://www.w3.org/2000/svg">
<path d="M16.125 17.1C15.675 18.6375 15.0375 19.875 14.25 20.7C16.3875 20.1375 18.1875 18.8625 19.3875 17.1H16.125Z" fill="#E0E0E0"/>
<path d="M15.2626 17.1H12.4126V20.9625C13.5751 20.6625 14.6251 19.1625 15.2626 17.1Z" fill="#E0E0E0"/>
<path d="M21.0001 12.375H16.8001C16.7626 13.7625 16.6126 15.075 16.3501 16.275H19.9126C20.5501 15.1125 20.9251 13.7625 21.0001 12.375Z" fill="#E0E0E0"/>
<path d="M19.425 6.82498C18.1875 5.06248 16.3875 3.78748 14.25 3.22498C15.0375 4.04998 15.675 5.28748 16.125 6.82498H19.425Z" fill="#E0E0E0"/>
<path d="M19.9126 7.65002H16.3501C16.6126 8.81252 16.8001 10.1625 16.8001 11.55H21.0001C20.9251 10.1625 20.5501 8.81252 19.9126 7.65002Z" fill="#E0E0E0"/>
<path d="M12.4126 3V6.825H15.2626C14.6251 4.7625 13.5751 3.2625 12.4126 3Z" fill="#E0E0E0"/>
<path d="M12.4125 16.275H15.4875C15.7875 15.1125 15.975 13.7625 15.975 12.375H12.375V16.275H12.4125Z" fill="#E0E0E0"/>
<path d="M15.4876 7.65002H12.4126V11.55H16.0126C15.9751 10.1625 15.7876 8.81252 15.4876 7.65002Z" fill="#E0E0E0"/>
<path d="M11.5873 12.375H7.9873C8.0248 13.7625 8.2123 15.1125 8.4748 16.275H11.5498V12.375H11.5873Z" fill="#E0E0E0"/>
<path d="M11.5873 20.925V17.1H8.7373C9.3748 19.1625 10.4248 20.6625 11.5873 20.925Z" fill="#E0E0E0"/>
<path d="M11.5874 7.65002H8.5124C8.2124 8.81252 8.0249 10.1625 8.0249 11.55H11.6249V7.65002H11.5874Z" fill="#E0E0E0"/>
<path d="M11.5873 3C10.4248 3.3 9.3748 4.7625 8.7373 6.825H11.5873V3Z" fill="#E0E0E0"/>
<path d="M9.7502 20.7C8.9627 19.875 8.3252 18.6375 7.8752 17.1H4.5752C5.8127 18.825 7.6127 20.1375 9.7502 20.7Z" fill="#E0E0E0"/>
<path d="M9.7502 3.22498C7.6127 3.78748 5.8127 5.06248 4.5752 6.82498H7.8752C8.3252 5.28748 8.9627 4.04998 9.7502 3.22498Z" fill="#E0E0E0"/>
<path d="M3 11.55H7.2C7.2375 10.1625 7.3875 8.85002 7.65 7.65002H4.0875C3.45 8.81252 3.075 10.1625 3 11.55Z" fill="#E0E0E0"/>
<path d="M7.65 16.275C7.3875 15.1125 7.2 13.7625 7.2 12.375H3C3.075 13.7625 3.45 15.1125 4.0875 16.275H7.65Z" fill="#E0E0E0"/>
</svg>
