<svg width="44" height="12" viewBox="0 0 44 12" fill="none" xmlns="http://www.w3.org/2000/svg">
<path d="M0 0.00195281H4.12788C4.50314 0.00195281 5.62893 -0.123027 6.12927 1.62669C6.50454 2.75151 7.00489 4.50122 7.75541 7.12579H8.00558C8.75611 4.37624 9.38154 2.50155 9.63172 1.62669C10.1321 -0.123027 11.3829 0.00195281 11.8833 0.00195281H15.761V12H11.7582V4.87616H11.508L9.38154 12H6.37945L4.25297 4.87616H3.8777V12H0M17.3871 0.00195281H21.3899V7.12579H21.7652L24.392 1.25175C24.8924 0.126932 26.0181 0.00195281 26.0181 0.00195281H29.7708V12H25.768V4.87616H25.5178L22.891 10.7502C22.3906 11.875 21.1397 12 21.1397 12H17.3871M35.1495 8.37559V12H31.3969V5.75102H43.6554C43.1551 7.25077 41.4039 8.37559 39.4025 8.37559" fill="#0F754E"/>
<path d="M43.9054 5.0009C44.4057 2.75126 42.9047 0.00170898 39.6524 0.00170898H31.1465C31.3967 2.62628 33.6482 5.0009 36.0249 5.0009" fill="url(#paint0_linear_177_3227)"/>
<defs>
<linearGradient id="paint0_linear_177_3227" x1="42.4043" y1="-1.62303" x2="32.3974" y2="-1.62303" gradientUnits="userSpaceOnUse">
<stop stop-color="#1F5CD7"/>
<stop offset="1" stop-color="#02AEFF"/>
</linearGradient>
</defs>
</svg>
