<svg width="32" height="32" viewBox="0 0 32 32" fill="none" xmlns="http://www.w3.org/2000/svg">
<path d="M15.391 25.7439C15.2586 25.9186 15.1873 26.1318 15.188 26.3509L15.168 29.4259C15.1674 29.5318 15.1376 29.6355 15.082 29.7257C15.0264 29.8158 14.947 29.8888 14.8526 29.9369C14.7582 29.9849 14.6525 30.006 14.5469 29.9979C14.4413 29.9898 14.3399 29.9528 14.254 29.8909C10.79 27.4529 3.82999 21.8999 2.25599 15.7699C1.06799 11.1369 4.01399 4.92594 11.115 6.15994C12.852 6.46294 14.518 7.68794 15.259 8.83994C15.351 8.97194 15.523 9.43794 15.523 9.43794C15.5277 9.44728 15.531 9.45561 15.533 9.46294L15.543 9.48794L16.936 13.2109C17.057 13.5449 17.006 13.9189 16.783 14.1919L16.153 14.9919L16.123 15.0269L16.093 15.0619L14.386 16.8419C14.081 17.1659 14.02 17.6419 14.233 18.0259L16.864 22.8209C16.9585 22.9911 17.0013 23.1852 16.987 23.3794C16.9728 23.5735 16.9023 23.7593 16.784 23.9139L15.391 25.7439Z" fill="url(#paint0_linear_190_3271)" fill-opacity="0.13"/>
<path d="M16.9294 8.32001C17.8644 7.34101 19.1174 6.44401 20.7504 6.16101C27.9514 4.92001 30.9304 11.115 29.7494 15.736C28.1464 21.911 20.9974 27.49 17.5254 29.892C17.4381 29.9544 17.3353 29.9915 17.2283 29.9994C17.1212 30.0073 17.0141 29.9855 16.9186 29.9366C16.8231 29.8876 16.7429 29.8134 16.6868 29.7219C16.6307 29.6305 16.6008 29.5253 16.6004 29.418L16.6204 26.986C16.6204 26.764 16.6934 26.552 16.8264 26.381L18.6244 24.05C18.7448 23.897 18.8169 23.7116 18.8315 23.5175C18.8461 23.3234 18.8026 23.1293 18.7064 22.96L16.1284 18.319C16.0227 18.1322 15.9805 17.9161 16.0083 17.7033C16.0361 17.4905 16.1323 17.2924 16.2824 17.139L17.0324 16.362C17.0424 16.3513 17.0524 16.3393 17.0624 16.326L17.0934 16.291L18.5114 14.535C18.7274 14.263 18.7884 13.89 18.6654 13.557L16.8374 8.72401C16.8173 8.67585 16.8067 8.62422 16.8064 8.57201C16.8064 8.42201 16.9294 8.32001 16.9294 8.32001Z" fill="url(#paint1_linear_190_3271)" fill-opacity="0.13"/>
<defs>
<linearGradient id="paint0_linear_190_3271" x1="4.49997" y1="8.50083" x2="15.2579" y2="26.5717" gradientUnits="userSpaceOnUse">
<stop stop-color="white"/>
<stop offset="1" stop-color="#999999"/>
</linearGradient>
<linearGradient id="paint1_linear_190_3271" x1="18.3334" y1="8.5001" x2="29.4315" y2="25.8987" gradientUnits="userSpaceOnUse">
<stop stop-color="white"/>
<stop offset="1" stop-color="#999999"/>
</linearGradient>
</defs>
</svg>
