<svg width="24" height="24" viewBox="0 0 24 24" fill="none" xmlns="http://www.w3.org/2000/svg">
<path d="M4.6951 19.6221L7.24356 21.094C8.09997 21.5887 9.01973 21.8361 9.93912 21.8361C10.8588 21.8362 11.7781 21.5888 12.6347 21.094L18.4317 17.7478C18.6889 17.5993 18.8729 17.3586 18.9502 17.07C19.0274 16.7815 18.9881 16.481 18.8396 16.2239C18.5006 15.6361 17.9678 15.2115 17.3395 15.0286C16.6992 14.8422 16.0222 14.927 15.4334 15.2673L13.7936 16.2138L18.8571 7.44321C19.0811 7.05486 19.14 6.60119 19.0234 6.16563C18.9066 5.72958 18.6282 5.36627 18.2396 5.14252C17.8521 4.91837 17.3982 4.85905 16.9622 4.97583C16.5264 5.09252 16.1628 5.37051 15.9384 5.75857L13.5965 9.81603C13.4669 9.42107 13.2011 9.09288 12.8402 8.88514C12.2295 8.53256 11.4868 8.60732 10.9613 9.01607C10.8628 8.5699 10.5849 8.16486 10.1594 7.91917C9.47711 7.52643 8.63166 7.66538 8.10707 8.20595C7.98795 7.82861 7.73654 7.51466 7.39316 7.31679C7.0309 7.10696 6.60675 7.05111 6.19921 7.16002C5.7911 7.26905 5.45062 7.52954 5.2405 7.89345L2.72098 12.257C1.23481 14.8325 2.12046 18.1365 4.6951 19.6221V19.6221ZM19.094 3.66357C17.4724 2.72769 15.3917 3.28506 14.4554 4.90627C14.2668 5.23248 14.1347 5.58502 14.0627 5.95409C13.9987 6.28196 13.6812 6.49595 13.3532 6.43196C13.0253 6.36801 12.8114 6.05038 12.8753 5.72248C12.973 5.22155 13.1523 4.74321 13.408 4.30103C14.6776 2.10256 17.4996 1.3466 19.6988 2.61591C21.8973 3.88551 22.6533 6.70752 21.3844 8.90583C21.129 9.34986 20.8044 9.74433 20.4195 10.0784C20.305 10.1778 20.1638 10.2265 20.0233 10.2265C19.8541 10.2265 19.6858 10.1559 19.5662 10.0181C19.3473 9.76579 19.3743 9.38377 19.6266 9.16482C19.9092 8.9195 20.1479 8.62942 20.3363 8.30196C21.2722 6.68042 20.7148 4.59966 19.094 3.66361V3.66357Z" fill="#2C2C35"/>
</svg>
