<svg width="40" height="40" viewBox="0 0 40 40" fill="none" xmlns="http://www.w3.org/2000/svg">
<path d="M5.43498 28.8C5.18926 28.9543 4.91498 29.0286 4.64641 29.0286C4.52069 29.0286 4.38926 29.0114 4.26355 28.9772C3.87498 28.8686 3.55498 28.6 3.37212 28.24C-0.170735 21.1086 1.24641 12.5257 6.89212 6.88573C12.8693 0.902873 22.0464 -0.297127 29.3093 3.92573L30.2007 2.62287C30.3607 2.3943 30.6178 2.26859 30.8921 2.29144C31.1664 2.3143 31.4007 2.4743 31.5207 2.72002L34.0521 7.98287C34.1721 8.2343 34.1493 8.5143 33.995 8.74287C33.8407 8.97144 33.5778 9.09716 33.3035 9.0743L27.4807 8.64573C27.2064 8.62287 26.9721 8.46287 26.8521 8.21716C26.7321 7.97144 26.7493 7.68573 26.9035 7.45144L27.6921 6.29716C21.5835 2.85716 13.8978 3.90859 8.90355 8.89716C4.13212 13.68 2.93784 20.9429 5.94355 26.9772C6.26355 27.6229 6.04641 28.4057 5.43498 28.8Z" fill="#B7B7B7"/>
<path d="M33.1437 33.1315C31.3894 34.8915 29.3437 36.2515 27.1208 37.1715C24.8923 38.0915 22.4808 38.5772 20.0008 38.5772C16.738 38.5772 13.5437 37.7143 10.738 36.0857L9.84654 37.3886C9.69797 37.6172 9.44083 37.7429 9.16654 37.7257C8.88654 37.7029 8.65225 37.5429 8.53225 37.2857L5.9894 32.0343C5.87511 31.7715 5.89797 31.4857 6.05797 31.2629C6.21225 31.04 6.4694 30.92 6.73797 30.9429L12.5608 31.3715C12.8351 31.3943 13.0751 31.5543 13.1951 31.8057C13.3151 32.0515 13.2923 32.3372 13.1437 32.5657L12.3551 33.72C18.458 37.1486 26.1323 36.0972 31.1265 31.12C35.9665 26.2743 37.1094 18.68 33.898 12.64C33.5551 12 33.7723 11.1886 34.3894 10.7943C34.4008 10.7886 34.4123 10.7829 34.4237 10.7715C34.7608 10.5657 35.1494 10.5086 35.5323 10.6057C35.9151 10.7086 36.2408 10.9657 36.4294 11.3143C40.218 18.4457 38.8694 27.4172 33.1437 33.1315Z" fill="#B7B7B7"/>
<g clip-path="url(#clip0_177_2904)">
<path d="M19.0053 18.0642C20.1092 16.6566 21.8239 15.7519 23.754 15.7519C24.0415 15.7519 24.3256 15.7715 24.6065 15.8107V14.5239C23.7345 15.3078 21.4744 15.8662 18.8192 15.8662C16.1803 15.8662 13.9267 15.3143 13.0449 14.5337V16.1896C13.4858 17.9957 18.9433 18.0675 19.0053 18.0642Z" fill="#B7B7B7"/>
<path d="M13.0423 17.4829L13.0391 19.1649C13.2514 20.099 15.2207 20.8567 17.7715 21.0232C17.8694 20.2296 18.1242 19.4817 18.503 18.8154C15.998 18.773 13.8849 18.2341 13.0423 17.4829Z" fill="#B7B7B7"/>
<path d="M13.0384 20.4713L13.0352 22.0716C13.045 22.0618 13.0548 22.052 13.0646 22.0455C13.1266 23.0776 15.3311 23.9234 18.1627 24.0443C17.8786 23.3454 17.7251 22.5844 17.7251 21.7842V21.781C15.563 21.6471 13.7896 21.1441 13.0384 20.4713Z" fill="#B7B7B7"/>
<path d="M18.5377 24.8052C15.9837 24.7628 13.8379 24.1978 13.0345 23.427L13.0312 24.9359C13.0312 26.0724 15.6212 26.9934 18.8186 26.9934C19.4293 26.9934 20.0172 26.9608 20.5691 26.8987C19.733 26.3762 19.0341 25.6577 18.5377 24.8052Z" fill="#B7B7B7"/>
<path d="M18.8192 15.1086C22.0191 15.1086 24.6131 14.1889 24.6131 13.0543C24.6131 11.9197 22.0191 11 18.8192 11C15.6194 11 13.0254 11.9197 13.0254 13.0543C13.0254 14.1889 15.6194 15.1086 18.8192 15.1086Z" fill="#B7B7B7"/>
<path d="M23.7535 16.5587C20.8697 16.5587 18.5312 18.8972 18.5312 21.781C18.5312 24.6649 20.8697 27 23.7535 27C26.6374 27 28.9758 24.6616 28.9758 21.7777C28.9758 18.8939 26.6374 16.5587 23.7535 16.5587ZM24.2304 24.5669V24.8967C24.2304 25.1613 24.0181 25.3736 23.7535 25.3736C23.489 25.3736 23.2767 25.1613 23.2767 24.8967V24.5669C22.9991 24.482 22.7411 24.3285 22.5386 24.1129C22.359 23.9202 22.3688 23.6197 22.5582 23.4401C22.7509 23.2605 23.0416 23.2801 23.231 23.4597C23.44 23.6589 23.7862 23.6818 23.8025 23.6818C24.1716 23.6557 24.4655 23.3454 24.4655 22.9698C24.4655 22.5779 24.1455 22.2546 23.7535 22.2546C22.8358 22.2546 22.0879 21.5067 22.0879 20.5889C22.0879 19.8345 22.5909 19.1976 23.2767 18.9919V18.662C23.2767 18.3975 23.489 18.1852 23.7535 18.1852C24.0181 18.1852 24.2304 18.3975 24.2304 18.662V18.9919C24.508 19.0768 24.766 19.2303 24.9685 19.4458C25.1481 19.6385 25.1383 19.939 24.9489 20.1186C24.7562 20.2983 24.4394 20.3048 24.2761 20.099C24.103 19.8802 23.7209 19.8769 23.7046 19.8769C23.3355 19.9031 23.0416 20.2133 23.0416 20.5889C23.0416 20.9808 23.3616 21.3042 23.7535 21.3042C24.6713 21.3042 25.4192 22.0521 25.4192 22.9698C25.4192 23.7243 24.9162 24.3611 24.2304 24.5669Z" fill="#B7B7B7"/>
</g>
<defs>
<clipPath id="clip0_177_2904">
<rect width="16" height="16" fill="white" transform="translate(13 11)"/>
</clipPath>
</defs>
</svg>
