<svg width="176" height="176" viewBox="0 0 176 176" fill="none" xmlns="http://www.w3.org/2000/svg">
<path d="M7.65234 7.65216V15.3043V22.9565V30.6087V38.2609V45.913V53.5652V61.2174H15.3045H22.9567H30.6089H38.261H45.9132H53.5654H61.2176V53.5652V45.913V38.2609V30.6087V22.9565V15.3043V7.65216H53.5654H45.9132H38.261H30.6089H22.9567H15.3045H7.65234ZM68.8697 7.65216V15.3043V22.9565H76.5219V15.3043H84.1741V7.65216H76.5219H68.8697ZM84.1741 15.3043V22.9565H91.8263V15.3043H84.1741ZM91.8263 22.9565V30.6087H99.4784H107.131V22.9565V15.3043V7.65216H99.4784V15.3043V22.9565H91.8263ZM91.8263 30.6087H84.1741H76.5219H68.8697V38.2609H76.5219H84.1741V45.913H76.5219V53.5652H84.1741V61.2174H91.8263V53.5652H99.4784V61.2174H91.8263V68.8695H84.1741V76.5217H91.8263H99.4784V84.1739H107.131V76.5217V68.8695V61.2174V53.5652V45.913H99.4784V38.2609H91.8263V30.6087ZM99.4784 84.1739H91.8263V91.8261H84.1741V99.4782V107.13H91.8263V114.783V122.435H84.1741H76.5219V114.783H84.1741V107.13H76.5219V99.4782V91.8261H68.8697V84.1739H76.5219V91.8261H84.1741V84.1739V76.5217H76.5219H68.8697V68.8695H61.2176H53.5654H45.9132V76.5217H38.261V84.1739H30.6089V76.5217H38.261V68.8695H30.6089H22.9567V76.5217H15.3045V84.1739V91.8261V99.4782H22.9567V91.8261H30.6089H38.261H45.9132V84.1739H53.5654V76.5217H61.2176V84.1739H53.5654V91.8261H61.2176V99.4782H53.5654V107.13H61.2176H68.8697V114.783V122.435V130.087H76.5219V137.739H84.1741H91.8263H99.4784V145.391H91.8263H84.1741H76.5219V137.739H68.8697V145.391V153.043H76.5219V160.696H68.8697V168.348H76.5219H84.1741V160.696H91.8263V168.348H99.4784H107.131H114.783H122.435V160.696H130.087V168.348H137.739H145.391H153.044V160.696H145.391H137.739V153.043H130.087V145.391H122.435V153.043H114.783H107.131V160.696H99.4784V153.043H107.131V145.391V137.739V130.087H114.783V122.435H107.131H99.4784V114.783H107.131V107.13V99.4782V91.8261H99.4784V84.1739ZM122.435 145.391V137.739H114.783V145.391H122.435ZM137.739 153.043H145.391H153.044V145.391H145.391H137.739V153.043ZM153.044 145.391H160.696V137.739V130.087V122.435V114.783H153.044H145.391H137.739V107.13H130.087V114.783H122.435V122.435V130.087H130.087V122.435H137.739V130.087V137.739H145.391H153.044V145.391ZM130.087 107.13V99.4782H122.435H114.783V107.13H122.435H130.087ZM137.739 107.13H145.391V99.4782V91.8261V84.1739H153.044V91.8261H160.696V99.4782H168.348V91.8261V84.1739H160.696V76.5217H168.348V68.8695H160.696H153.044V76.5217H145.391V68.8695H137.739V76.5217H130.087V84.1739H137.739V91.8261V99.4782V107.13ZM130.087 84.1739H122.435V91.8261H130.087V84.1739ZM160.696 99.4782H153.044V107.13H160.696V99.4782ZM53.5654 99.4782V91.8261H45.9132V99.4782H53.5654ZM45.9132 99.4782H38.261H30.6089H22.9567V107.13H30.6089H38.261H45.9132V99.4782ZM15.3045 99.4782H7.65234V107.13H15.3045V99.4782ZM15.3045 76.5217V68.8695H7.65234V76.5217H15.3045ZM68.8697 68.8695H76.5219V61.2174V53.5652H68.8697V61.2174V68.8695ZM114.783 7.65216V15.3043V22.9565V30.6087V38.2609V45.913V53.5652V61.2174H122.435H130.087H137.739H145.391H153.044H160.696H168.348V53.5652V45.913V38.2609V30.6087V22.9565V15.3043V7.65216H160.696H153.044H145.391H137.739H130.087H122.435H114.783ZM15.3045 15.3043H22.9567H30.6089H38.261H45.9132H53.5654V22.9565V30.6087V38.2609V45.913V53.5652H45.9132H38.261H30.6089H22.9567H15.3045V45.913V38.2609V30.6087V22.9565V15.3043ZM122.435 15.3043H130.087H137.739H145.391H153.044H160.696V22.9565V30.6087V38.2609V45.913V53.5652H153.044H145.391H137.739H130.087H122.435V45.913V38.2609V30.6087V22.9565V15.3043ZM22.9567 22.9565V30.6087V38.2609V45.913H30.6089H38.261H45.9132V38.2609V30.6087V22.9565H38.261H30.6089H22.9567ZM130.087 22.9565V30.6087V38.2609V45.913H137.739H145.391H153.044V38.2609V30.6087V22.9565H145.391H137.739H130.087ZM114.783 68.8695V76.5217H122.435V68.8695H114.783ZM7.65234 114.783V122.435V130.087V137.739V145.391V153.043V160.696V168.348H15.3045H22.9567H30.6089H38.261H45.9132H53.5654H61.2176V160.696V153.043V145.391V137.739V130.087V122.435V114.783H53.5654H45.9132H38.261H30.6089H22.9567H15.3045H7.65234ZM15.3045 122.435H22.9567H30.6089H38.261H45.9132H53.5654V130.087V137.739V145.391V153.043V160.696H45.9132H38.261H30.6089H22.9567H15.3045V153.043V145.391V137.739V130.087V122.435ZM22.9567 130.087V137.739V145.391V153.043H30.6089H38.261H45.9132V145.391V137.739V130.087H38.261H30.6089H22.9567ZM160.696 153.043V160.696H168.348V153.043H160.696Z" fill="black"/>
</svg>
