<svg width="32" height="32" viewBox="0 0 32 32" fill="none" xmlns="http://www.w3.org/2000/svg">
<path d="M25 11C25 8.61305 24.0518 6.32387 22.364 4.63604C20.6761 2.94821 18.3869 2 16 2C13.6131 2 11.3239 2.94821 9.63604 4.63604C7.94821 6.32387 7 8.61305 7 11C7 11.4774 7.18964 11.9352 7.52721 12.2728C7.86477 12.6104 8.32261 12.8 8.8 12.8C9.27739 12.8 9.73523 12.6104 10.0728 12.2728C10.4104 11.9352 10.6 11.4774 10.6 11C10.6 9.93198 10.9167 8.88795 11.5101 7.99992C12.1034 7.11189 12.9468 6.41976 13.9335 6.01105C14.9202 5.60234 16.006 5.4954 17.0535 5.70376C18.101 5.91212 19.0632 6.42642 19.8184 7.18162C20.5736 7.93683 21.0879 8.89901 21.2962 9.94651C21.5046 10.994 21.3977 12.0798 20.9889 13.0665C20.5802 14.0532 19.8881 14.8966 19.0001 15.4899C18.1121 16.0833 17.068 16.4 16 16.4C15.5226 16.4 15.0648 16.5896 14.7272 16.9272C14.3896 17.2648 14.2 17.7226 14.2 18.2V21.8C14.2 22.2774 14.3896 22.7352 14.7272 23.0728C15.0648 23.4104 15.5226 23.6 16 23.6C16.4774 23.6 16.9352 23.4104 17.2728 23.0728C17.6104 22.7352 17.8 22.2774 17.8 21.8V19.82C19.8329 19.405 21.6599 18.3005 22.972 16.6932C24.284 15.086 25.0004 13.0748 25 11Z" fill="url(#paint0_linear_190_5301)"/>
<path d="M16.0012 30.8002C16.9953 30.8002 17.8012 29.9943 17.8012 29.0002C17.8012 28.0061 16.9953 27.2002 16.0012 27.2002C15.0071 27.2002 14.2012 28.0061 14.2012 29.0002C14.2012 29.9943 15.0071 30.8002 16.0012 30.8002Z" fill="url(#paint1_linear_190_5301)"/>
<defs>
<linearGradient id="paint0_linear_190_5301" x1="16.0001" y1="-12.2656" x2="16.0001" y2="35.6706" gradientUnits="userSpaceOnUse">
<stop stop-color="#628538"/>
<stop offset="1" stop-color="#B2F861"/>
</linearGradient>
<linearGradient id="paint1_linear_190_5301" x1="16.0012" y1="24.8226" x2="16.0012" y2="32.812" gradientUnits="userSpaceOnUse">
<stop stop-color="#628538"/>
<stop offset="1" stop-color="#B2F861"/>
</linearGradient>
</defs>
</svg>
