<svg width="100" height="13" viewBox="0 0 100 13" fill="none" xmlns="http://www.w3.org/2000/svg">
<g clip-path="url(#clip0_32_1068)">
<path fill-rule="evenodd" clip-rule="evenodd" d="M7.44227 0.409058C3.56932 0.409058 0.557495 3.544 0.557495 7.35493C0.557495 8.95362 1.11076 10.552 2.15569 11.7813L2.58579 12.2725L3.38488 11.4742L3.07779 11.0433C2.21725 9.99784 1.78669 8.7072 1.78669 7.35493C1.78669 4.15812 4.369 1.57635 7.56527 1.57635C10.7615 1.57635 13.3439 4.15812 13.3439 7.35493C13.3439 8.7072 12.8516 9.99784 12.052 11.0433L11.7457 11.4742L12.5448 12.2725L12.9749 11.7813C13.8354 10.4905 14.3881 8.95362 14.3881 7.35493C14.3881 3.544 11.3152 0.409058 7.44227 0.409058ZM21.5189 1.82235C19.552 1.82235 18.1384 2.99094 18.1384 4.65054C18.1384 6.49455 19.3061 7.1092 21.3959 7.60093C23.2399 7.96973 23.6099 8.39999 23.6099 9.07613C23.6099 9.81428 22.9329 10.3061 21.8879 10.3061C20.6586 10.3061 19.6754 9.81409 18.7534 9.01503L17.7075 10.2442C18.876 11.2897 20.3516 11.7813 21.8268 11.7813C23.8558 11.7813 25.3303 10.6747 25.3303 8.83013C25.3303 7.17053 24.2854 6.43337 22.195 5.94164C20.2896 5.51137 19.8596 5.14215 19.8596 4.40454C19.8596 3.72786 20.4744 3.23645 21.4578 3.23645C22.3184 3.23645 23.24 3.54431 24.1011 4.22045L25.0851 3.05235C24.1017 2.25328 22.9327 1.82235 21.5189 1.82235ZM26.8055 1.82235V11.5964H28.5267V8.46113H30.4947C32.646 8.46113 34.4283 7.29344 34.4283 5.08064C34.4283 3.11316 32.9531 1.82235 30.6788 1.82235H26.8055ZM35.9043 1.82235V11.6583H43.2803V10.1212H37.6247V7.47793H42.5431V5.94164H37.6247V3.35945H43.2192V1.82235H35.9043ZM45.0634 1.82235V11.6583H52.4393V10.1212H46.7837V7.47793H51.7021V5.94164H46.7837V3.35945H52.3782V1.82235H45.0634ZM54.1613 1.82235V11.6583H57.8489C60.9228 11.6583 63.0744 9.50674 63.0744 6.74074C63.0744 3.97419 60.9228 1.82235 57.8489 1.82235H54.1613ZM64.0576 1.82235V3.42135H67.1937V11.6583H68.9141V3.42135H72.0494V1.82235H64.0576ZM73.8325 1.82235V11.6583H81.2084V10.1212H75.5537V7.47793H80.4712V5.94164H75.5537V3.35945H81.1473V1.82235H73.8325ZM86.4339 1.82235C84.4664 1.82235 83.0526 2.99094 83.0526 4.65054C83.0526 6.49455 84.2205 7.1092 86.3109 7.60093C88.1549 7.96973 88.5241 8.39999 88.5241 9.07613C88.5241 9.81428 87.8479 10.3061 86.8029 10.3061C85.573 10.3061 84.5902 9.81409 83.6676 9.01503L82.6225 10.2442C83.7904 11.2897 85.2048 11.7814 86.8029 11.9043C88.8313 11.9043 90.3064 10.7979 90.3064 8.95393C90.3064 7.29378 89.2618 6.55557 87.1719 6.06384C85.2665 5.63357 84.8357 5.26514 84.8357 4.52754C84.8357 3.85141 85.4505 3.35945 86.4339 3.35945C87.2945 3.35945 88.2167 3.66676 89.0772 4.34345L89.9993 3.05235C89.0158 2.25328 87.8477 1.82235 86.4339 1.82235ZM91.3515 1.82235V3.42135H94.4868V11.6583H96.208V3.42135H99.3433V1.82235H91.3515ZM28.5267 3.35945H30.5558C31.9081 3.35945 32.7071 3.97413 32.7071 5.14254C32.7071 6.18748 31.8466 6.92484 30.5558 6.92484H28.5267V3.35945ZM55.9436 3.48245H57.9108C60.0012 3.48245 61.3532 4.89637 61.3532 6.80184C61.3532 8.7073 60.0012 10.1212 57.9108 10.1212H55.9436V3.48245ZM9.96256 4.28154L6.09008 7.35493L7.44227 8.70713L10.5157 4.83464L9.96256 4.28154Z" fill="#E0E0E0"/>
</g>
<defs>
<clipPath id="clip0_32_1068">
<rect width="100" height="13" fill="white"/>
</clipPath>
</defs>
</svg>
