<svg width="40" height="40" viewBox="0 0 40 40" fill="none" xmlns="http://www.w3.org/2000/svg">
<rect width="40" height="40" rx="20" fill="#2B2B2B"/>
<path d="M19.969 29C18.3837 28.9974 16.8268 28.5807 15.4537 27.7914C14.0805 27.0021 12.939 25.8678 12.1432 24.5017C12.0032 24.254 11.9668 23.9613 12.042 23.6871C12.1171 23.4129 12.2978 23.1793 12.5448 23.037C12.7917 22.8946 13.0851 22.8551 13.3611 22.9269C13.6372 22.9987 13.8737 23.176 14.0193 23.4205C14.7746 24.7243 15.9406 25.7434 17.3365 26.3197C18.7324 26.8959 20.2801 26.9971 21.7396 26.6076C23.1991 26.218 24.4888 25.3595 25.4087 24.1651C26.3285 22.9708 26.8271 21.5074 26.8271 20.0019C26.8271 18.4965 26.3285 17.0331 25.4087 15.8387C24.4888 14.6444 23.1991 13.7859 21.7396 13.3963C20.2801 13.0068 18.7324 13.108 17.3365 13.6842C15.9406 14.2605 14.7746 15.2795 14.0193 16.5834C13.8737 16.8278 13.6372 17.0052 13.3611 17.077C13.0851 17.1488 12.7917 17.1093 12.5448 16.9669C12.2978 16.8246 12.1171 16.591 12.042 16.3168C11.9668 16.0425 12.0032 15.7498 12.1432 15.5022C12.9357 14.1338 14.0757 12.9973 15.4486 12.207C16.8216 11.4167 18.3792 11.0004 19.9648 11C21.5504 10.9996 23.1082 11.415 24.4816 12.2046C25.855 12.9942 26.9956 14.1301 27.7887 15.4981C28.5819 16.8661 28.9996 18.418 29 19.9979C29.0004 21.5777 28.5833 23.1299 27.7908 24.4982C26.9983 25.8666 25.8583 27.003 24.4853 27.7933C23.1123 28.5835 21.5547 28.9997 19.969 29Z" fill="url(#paint0_linear_166_1538)"/>
<path d="M16.2647 17.8856C16.164 17.7853 16.0842 17.6663 16.0297 17.5354C15.9752 17.4044 15.9472 17.264 15.9472 17.1222C15.9472 16.9804 15.9752 16.84 16.0297 16.709C16.0842 16.578 16.164 16.459 16.2647 16.3588C16.4697 16.1598 16.7446 16.0484 17.0309 16.0484C17.3171 16.0484 17.5921 16.1598 17.7971 16.3588L20.6856 19.2368C20.8859 19.4413 20.998 19.7158 20.998 20.0016C20.998 20.2873 20.8859 20.5618 20.6856 20.7663L17.7971 23.6443C17.6971 23.7472 17.5775 23.8293 17.4453 23.8857C17.3132 23.9421 17.1711 23.9717 17.0273 23.9729C16.8836 23.974 16.741 23.9466 16.608 23.8924C16.4749 23.8381 16.354 23.7579 16.2524 23.6567C16.1507 23.5554 16.0703 23.4349 16.0158 23.3024C15.9613 23.1698 15.9338 23.0278 15.935 22.8845C15.9361 22.7413 15.9659 22.5997 16.0225 22.468C16.0791 22.3364 16.1614 22.2172 16.2647 22.1175L17.3047 21.0817L9.08375 21.0817C8.79633 21.0817 8.52069 20.9679 8.31745 20.7654C8.11422 20.5629 8.00004 20.2883 8.00004 20.0019C8.00004 19.7156 8.11422 19.4409 8.31745 19.2384C8.52069 19.0359 8.79633 18.9222 9.08375 18.9222L17.3047 18.9222L16.2647 17.8856Z" fill="url(#paint1_linear_166_1538)"/>
<defs>
<linearGradient id="paint0_linear_166_1538" x1="20.4983" y1="29.2066" x2="20.4983" y2="11.6201" gradientUnits="userSpaceOnUse">
<stop stop-color="#708B4F"/>
<stop offset="1" stop-color="#B2F861"/>
</linearGradient>
<linearGradient id="paint1_linear_166_1538" x1="14.4989" y1="29.2066" x2="14.499" y2="11.6201" gradientUnits="userSpaceOnUse">
<stop stop-color="#628538"/>
<stop offset="1" stop-color="#B2F861"/>
</linearGradient>
</defs>
</svg>
