<svg width="40" height="40" viewBox="0 0 40 40" fill="none" xmlns="http://www.w3.org/2000/svg">
<rect width="40" height="40" rx="20" fill="#2B2B2B"/>
<g clip-path="url(#clip0_156_1840)">
<path fill-rule="evenodd" clip-rule="evenodd" d="M26 24.0625H23.8125C23.2937 24.0625 22.875 24.4825 22.875 25C22.875 25.5175 23.2937 25.9375 23.8125 25.9375H26V28.125C26 28.6425 26.4187 29.0625 26.9375 29.0625C27.4562 29.0625 27.875 28.6425 27.875 28.125V25.9375H30.0625C30.5812 25.9375 31 25.5175 31 25C31 24.4825 30.5812 24.0625 30.0625 24.0625H27.875V21.875C27.875 21.3575 27.4562 20.9375 26.9375 20.9375C26.4187 20.9375 26 21.3575 26 21.875V24.0625ZM15.9406 19.5084C13.025 20.8391 11 23.7784 11 27.1875C11 27.6844 11.1969 28.1622 11.55 28.5134C11.9 28.865 12.3781 29.0625 12.875 29.0625H24.125C24.6438 29.0625 25.0625 28.6425 25.0625 28.125C25.0625 27.6075 24.6438 27.1875 24.125 27.1875H12.875C12.875 24.02 15.125 21.3731 18.1125 20.7594C18.5344 20.8753 18.9781 20.9375 19.4375 20.9375C19.8969 20.9375 20.3406 20.8753 20.7656 20.7594C21.8 20.9719 22.7437 21.4284 23.5375 22.0656C23.9406 22.3894 24.5312 22.3247 24.8562 21.9209C25.1812 21.5172 25.1156 20.9269 24.7125 20.6031C24.1688 20.1687 23.575 19.8 22.9344 19.5084C23.8625 18.6006 24.4375 17.3356 24.4375 15.9375C24.4375 13.1778 22.1969 10.9375 19.4375 10.9375C16.6781 10.9375 14.4375 13.1778 14.4375 15.9375C14.4375 17.3356 15.0125 18.6006 15.9406 19.5084ZM19.4375 12.8125C21.1625 12.8125 22.5625 14.2128 22.5625 15.9375C22.5625 17.6622 21.1625 19.0625 19.4375 19.0625C17.7125 19.0625 16.3125 17.6622 16.3125 15.9375C16.3125 14.2128 17.7125 12.8125 19.4375 12.8125Z" fill="url(#paint0_linear_156_1840)"/>
</g>
<defs>
<linearGradient id="paint0_linear_156_1840" x1="21" y1="10.9375" x2="21" y2="29.0625" gradientUnits="userSpaceOnUse">
<stop stop-color="#98C268"/>
<stop offset="1" stop-color="#AFF360"/>
</linearGradient>
<clipPath id="clip0_156_1840">
<rect width="20" height="20" fill="white" transform="translate(11 10)"/>
</clipPath>
</defs>
</svg>
