<svg width="16" height="16" viewBox="0 0 16 16" fill="none" xmlns="http://www.w3.org/2000/svg">
<g clip-path="url(#clip0_100_3071)">
<path d="M8 16C12.4183 16 16 12.4183 16 8C16 3.58172 12.4183 0 8 0C3.58172 0 0 3.58172 0 8C0 12.4183 3.58172 16 8 16Z" fill="#F0F0F0"/>
<path fill-rule="evenodd" clip-rule="evenodd" d="M0 7.99993C0 11.1715 1.84578 13.9119 4.52178 15.2062V0.793701C1.84578 2.08792 0 4.82837 0 7.99993ZM16 7.99993C16 4.82837 14.1542 2.08792 11.4782 0.793701V15.2062C14.1542 13.9124 16 11.1715 16 7.99993ZM10.7822 8.34793L9.39111 9.04348L9.73867 9.73904H8.34756V10.7826H7.652V9.73904H6.26089L6.60889 9.04348L5.21778 8.34793L5.91333 7.99993V7.30437L7.30444 7.99993L6.60889 6.60882H7.30444L8 5.56526L8.69556 6.60882H9.39111L8.69556 7.99993L10.0871 7.30437V7.99993L10.7822 8.34793Z" fill="#D80027"/>
</g>
<defs>
<clipPath id="clip0_100_3071">
<rect width="16" height="16" fill="white"/>
</clipPath>
</defs>
</svg>
