<svg width="16" height="16" viewBox="0 0 16 16" fill="none" xmlns="http://www.w3.org/2000/svg">
<g clip-path="url(#clip0_100_3076)">
<path d="M8 16C12.4181 16 16 12.4178 16 8C16 3.58219 12.4181 0 8 0C3.58187 0 0 3.58219 0 8C0 12.4178 3.58187 16 8 16Z" fill="#D80027"/>
<path fill-rule="evenodd" clip-rule="evenodd" d="M9.44459 4.42686L9.50709 3.59124V3.58655L8.96678 4.22655L8.18772 3.91561L8.63115 4.62686L8.09084 5.26686L8.90647 5.06686L9.34709 5.77811L9.40647 4.93749L10.2221 4.73749L9.44459 4.42686ZM4.37865 4.87124L5.06897 6.99624H7.30303L5.49678 8.31249L6.1874 10.4375L4.37865 9.12186L2.5699 10.4375L3.26334 8.31249L1.45459 6.99686H3.68772L4.37865 4.87124ZM11.1843 8.38686L11.4562 9.18249L12.2933 9.17374L11.6215 9.67124L11.8902 10.4669L11.2058 9.97811L10.534 10.4803L10.784 9.6803L10.0996 9.19155L10.9377 9.17811L11.1843 8.37811V8.38686ZM9.36553 10.1994L8.90959 10.9022L8.10084 10.6875L8.62897 11.3437L8.17553 12.0459L8.95678 11.7437L9.4849 12.3925L9.43772 11.5553L10.2221 11.2531L9.40959 11.0344L9.36584 10.1994H9.36553ZM10.6093 5.67905L11.2093 6.26124L11.9496 5.8703L11.5808 6.62592L12.1808 7.20811L11.3527 7.08811L10.984 7.83811L10.8405 7.01592L10.0093 6.89592L10.7527 6.50499L10.6093 5.67905Z" fill="#FFDA44"/>
</g>
<defs>
<clipPath id="clip0_100_3076">
<rect width="16" height="16" fill="white"/>
</clipPath>
</defs>
</svg>
