<svg width="16" height="16" viewBox="0 0 16 16" fill="none" xmlns="http://www.w3.org/2000/svg">
<g clip-path="url(#clip0_100_3079)">
<path d="M8 16C12.4183 16 16 12.4183 16 8C16 3.58172 12.4183 0 8 0C3.58172 0 0 3.58172 0 8C0 12.4183 3.58172 16 8 16Z" fill="#F0F0F0"/>
<path d="M12.5216 6.95654H11.478C11.4771 8.87712 9.92039 10.4338 7.99981 10.4348C6.07923 10.4338 4.52257 8.87712 4.52159 6.95654H3.47803C3.47841 8.97845 4.8203 10.7547 6.76514 11.3077C6.55714 11.7032 6.5887 12.2001 6.88603 12.5712L8.02292 11.6601L9.15981 12.5712C9.45981 12.1965 9.48959 11.693 9.27448 11.2957C11.1509 10.7445 12.5216 9.01121 12.5216 6.95654Z" fill="#6DA544"/>
<path d="M5.21773 6.60899C5.21773 6.60899 5.21773 8.3481 6.95684 8.3481L7.30484 8.6961H7.99995C7.99995 8.6961 8.34795 7.65254 9.04351 7.65254C9.04351 7.65254 9.04351 6.95699 9.73906 6.95699H10.7826C10.7826 6.95699 10.4346 5.56588 12.1737 4.52232L11.4782 4.17432C11.4782 4.17432 9.04351 5.91343 7.30484 5.56543V6.26099H6.60884L6.26084 5.91299L5.21729 6.60854L5.21773 6.60899Z" fill="#FFDA44"/>
</g>
<defs>
<clipPath id="clip0_100_3079">
<rect width="16" height="16" fill="white"/>
</clipPath>
</defs>
</svg>
