<svg width="16" height="16" viewBox="0 0 16 16" fill="none" xmlns="http://www.w3.org/2000/svg">
<g clip-path="url(#clip0_100_3192)">
<path d="M8 16C12.4181 16 16 12.4178 16 8C16 3.58219 12.4181 0 8 0C3.58187 0 0 3.58219 0 8C0 12.4178 3.58187 16 8 16Z" fill="#F0F0F0"/>
<path d="M16 8.00004C16 4.56036 13.8287 1.62723 10.7812 0.498169V15.5022C13.8287 14.375 16 11.4404 16 8.00004Z" fill="#D80027"/>
<path d="M0 8C0 11.4403 2.17094 14.375 5.21875 15.5025V0.5C2.17125 1.62719 0 4.56031 0 8Z" fill="#0052B4"/>
</g>
<defs>
<clipPath id="clip0_100_3192">
<rect width="16" height="16" fill="white"/>
</clipPath>
</defs>
</svg>
