<svg width="16" height="16" viewBox="0 0 16 16" fill="none" xmlns="http://www.w3.org/2000/svg">
<g clip-path="url(#clip0_100_3085)">
<mask id="mask0_100_3085" style="mask-type:luminance" maskUnits="userSpaceOnUse" x="0" y="0" width="16" height="16">
<path d="M15.4981 8.00051C15.4981 9.9899 14.7078 11.8978 13.3011 13.3045C11.8944 14.7112 9.98648 15.5015 7.99709 15.5015C6.00771 15.5015 4.0998 14.7112 2.69309 13.3045C1.28638 11.8978 0.496094 9.9899 0.496094 8.00051C0.496094 6.01112 1.28638 4.10321 2.69309 2.6965C4.0998 1.28979 6.00771 0.499512 7.99709 0.499512C9.98648 0.499512 11.8944 1.28979 13.3011 2.6965C14.7078 4.10321 15.4981 6.01112 15.4981 8.00051Z" fill="white"/>
</mask>
<g mask="url(#mask0_100_3085)">
<path d="M0.5 15.5L0.5 10.5H15.5V15.5L0.5 15.5Z" fill="#27AE60"/>
<path d="M0.5 10.5L0.5 5.5L15.5 5.5V10.5L0.5 10.5Z" fill="white"/>
<path d="M0.5 5.5L0.5 0.500001L15.5 0.500001V5.5L0.5 5.5Z" fill="#F39C12"/>
<path d="M7.99727 10.1887C9.20496 10.1887 10.184 9.20972 10.184 8.00203C10.184 6.79433 9.20496 5.81531 7.99727 5.81531C6.78957 5.81531 5.81055 6.79433 5.81055 8.00203C5.81055 9.20972 6.78957 10.1887 7.99727 10.1887Z" fill="#000088"/>
<path d="M7.99736 9.91538C9.05409 9.91538 9.91074 9.05873 9.91074 8.002C9.91074 6.94527 9.05409 6.08862 7.99736 6.08862C6.94063 6.08862 6.08398 6.94527 6.08398 8.002C6.08398 9.05873 6.94063 9.91538 7.99736 9.91538Z" fill="white"/>
<path d="M7.99742 8.38474C8.20877 8.38474 8.3801 8.21341 8.3801 8.00206C8.3801 7.79071 8.20877 7.61938 7.99742 7.61938C7.78608 7.61938 7.61475 7.79071 7.61475 8.00206C7.61475 8.21341 7.78608 8.38474 7.99742 8.38474Z" fill="#000088"/>
<path d="M9.88178 8.34663C9.93416 8.35356 9.98224 8.31671 9.98916 8.26433C9.99609 8.21195 9.95924 8.16387 9.90686 8.15695C9.85447 8.15002 9.8064 8.18687 9.79947 8.23925C9.79255 8.29163 9.8294 8.33971 9.88178 8.34663Z" fill="#000088"/>
<path d="M7.99724 9.91541L8.06284 8.76738L7.99724 8.2207L7.93164 8.76738L7.99724 9.91541Z" fill="#000088"/>
<path d="M9.7284 8.82289C9.7772 8.84314 9.83318 8.82 9.85343 8.7712C9.87368 8.7224 9.85054 8.66642 9.80174 8.64617C9.75294 8.62592 9.69696 8.64906 9.67671 8.69786C9.65645 8.74666 9.6796 8.80264 9.7284 8.82289Z" fill="#000088"/>
<path d="M7.50188 9.85037L7.86259 8.75836L7.94081 8.21328L7.73585 8.72438L7.50188 9.85037Z" fill="#000088"/>
<path d="M9.45735 9.24273C9.49925 9.27491 9.55931 9.26704 9.5915 9.22514C9.62369 9.18324 9.61581 9.12318 9.57391 9.09099C9.53201 9.05881 9.47195 9.06668 9.43977 9.10858C9.40758 9.15048 9.41545 9.21054 9.45735 9.24273Z" fill="#000088"/>
<path d="M7.041 9.65899L7.67183 8.6976L7.88835 8.19137L7.5582 8.63199L7.041 9.65899Z" fill="#000088"/>
<path d="M9.08648 9.57854C9.11862 9.62048 9.17867 9.62843 9.22061 9.59629C9.26255 9.56416 9.2705 9.50411 9.23836 9.46217C9.20623 9.42023 9.14618 9.41228 9.10424 9.44442C9.0623 9.47655 9.05435 9.5366 9.08648 9.57854Z" fill="#000088"/>
<path d="M6.6446 9.35488L7.50298 8.58956L7.84326 8.15663L7.41021 8.49676L6.6446 9.35488Z" fill="#000088"/>
<path d="M8.64052 9.80619C8.66071 9.85501 8.71666 9.87822 8.76549 9.85802C8.81431 9.83783 8.83752 9.78188 8.81733 9.73306C8.79713 9.68423 8.74118 9.66102 8.69236 9.68122C8.64353 9.70141 8.62033 9.75736 8.64052 9.80619Z" fill="#000088"/>
<path d="M6.34009 8.95861L7.36708 8.44141L7.8077 8.11125L7.30148 8.32778L6.34009 8.95861Z" fill="#000088"/>
<path d="M8.15181 9.9117C8.15867 9.96408 8.2067 10.001 8.25909 9.99413C8.31148 9.98727 8.34839 9.93924 8.34152 9.88685C8.33466 9.83446 8.28663 9.79755 8.23424 9.80442C8.18186 9.81128 8.14495 9.85931 8.15181 9.9117Z" fill="#000088"/>
<path d="M6.14883 8.49704L7.27486 8.26342L7.78601 8.05861L7.24092 8.13667L6.14883 8.49704Z" fill="#000088"/>
<path d="M7.65228 9.88642C7.64535 9.93879 7.6822 9.98687 7.73458 9.99379C7.78696 10.0007 7.83503 9.96387 7.84196 9.91149C7.84888 9.85911 7.81203 9.81104 7.75965 9.80411C7.70727 9.79719 7.6592 9.83404 7.65228 9.88642Z" fill="#000088"/>
<path d="M6.08369 8.002L7.23166 8.0676L7.77832 8.002L7.23166 7.9364L6.08369 8.002Z" fill="#000088"/>
<path d="M7.17626 9.73304C7.15601 9.78183 7.17915 9.83781 7.22795 9.85806C7.27675 9.87832 7.33273 9.85517 7.35298 9.80638C7.37323 9.75758 7.35009 9.7016 7.30129 9.68135C7.25249 9.6611 7.19652 9.68424 7.17626 9.73304Z" fill="#000088"/>
<path d="M6.14873 7.50642L7.24068 7.86711L7.78574 7.94533L7.27466 7.74037L6.14873 7.50642Z" fill="#000088"/>
<path d="M6.75676 9.46188C6.72457 9.50379 6.73245 9.56385 6.77436 9.59604C6.81626 9.62823 6.87633 9.62035 6.90852 9.57844C6.9407 9.53654 6.93282 9.47647 6.89092 9.44428C6.84901 9.41209 6.78895 9.41997 6.75676 9.46188Z" fill="#000088"/>
<path d="M6.34018 7.0454L7.30172 7.67624L7.80802 7.89276L7.36732 7.5626L6.34018 7.0454Z" fill="#000088"/>
<path d="M6.42046 9.091C6.37851 9.12314 6.37057 9.1832 6.40271 9.22514C6.43485 9.26709 6.49491 9.27503 6.53685 9.24289C6.57879 9.21075 6.58674 9.15069 6.5546 9.10875C6.52245 9.06681 6.4624 9.05886 6.42046 9.091Z" fill="#000088"/>
<path d="M6.64429 6.6487L7.40975 7.50713L7.84276 7.84742L7.50256 7.41434L6.64429 6.6487Z" fill="#000088"/>
<path d="M6.19343 8.64588C6.1446 8.66608 6.12139 8.72204 6.14159 8.77086C6.16179 8.81969 6.21774 8.8429 6.26657 8.8227C6.3154 8.80251 6.33861 8.74655 6.31841 8.69772C6.29821 8.64889 6.24226 8.62568 6.19343 8.64588Z" fill="#000088"/>
<path d="M7.04102 6.34486L7.5583 7.37194L7.8885 7.81259L7.67193 7.30632L7.04102 6.34486Z" fill="#000088"/>
<path d="M6.0878 8.15668C6.03541 8.16354 5.9985 8.21158 6.00536 8.26397C6.01223 8.31637 6.06026 8.35328 6.11265 8.34641C6.16505 8.33955 6.20196 8.29151 6.19509 8.23912C6.18823 8.18673 6.14019 8.14982 6.0878 8.15668Z" fill="#000088"/>
<path d="M7.5025 6.15333L7.73618 7.27946L7.94101 7.79066L7.86294 7.24551L7.5025 6.15333Z" fill="#000088"/>
<path d="M6.11332 7.65738C6.06093 7.65046 6.01286 7.68732 6.00593 7.7397C5.99901 7.79209 6.03587 7.84017 6.08825 7.84709C6.14064 7.85401 6.18872 7.81715 6.19564 7.76477C6.20256 7.71238 6.1657 7.66431 6.11332 7.65738Z" fill="#000088"/>
<path d="M7.99776 6.08838L7.93223 7.23649L7.99787 7.78321L8.06344 7.23648L7.99776 6.08838Z" fill="#000088"/>
<path d="M6.2667 7.181C6.2179 7.16075 6.16192 7.1839 6.14167 7.2327C6.12141 7.28151 6.14456 7.33749 6.19337 7.35774C6.24217 7.37799 6.29816 7.35484 6.31841 7.30604C6.33866 7.25723 6.31551 7.20125 6.2667 7.181Z" fill="#000088"/>
<path d="M8.49315 6.1534L8.13249 7.2455L8.0543 7.79063L8.25924 7.27948L8.49315 6.1534Z" fill="#000088"/>
<path d="M6.53775 6.76141C6.49585 6.72922 6.43578 6.7371 6.4036 6.779C6.37141 6.82091 6.37929 6.88097 6.42119 6.91316C6.4631 6.94534 6.52316 6.93746 6.55535 6.89556C6.58754 6.85366 6.57966 6.79359 6.53775 6.76141Z" fill="#000088"/>
<path d="M8.95407 6.34488L8.32327 7.30638L8.10676 7.81266L8.4369 7.37198L8.95407 6.34488Z" fill="#000088"/>
<path d="M6.90863 6.42535C6.87649 6.38341 6.81643 6.37546 6.77449 6.4076C6.73255 6.43974 6.72461 6.4998 6.75675 6.54174C6.78889 6.58368 6.84894 6.59162 6.89088 6.55948C6.93282 6.52734 6.94077 6.46729 6.90863 6.42535Z" fill="#000088"/>
<path d="M9.35051 6.64886L8.49213 7.41429L8.15185 7.84728L8.58491 7.50709L9.35051 6.64886Z" fill="#000088"/>
<path d="M7.35414 6.19759C7.33394 6.14876 7.27799 6.12554 7.22916 6.14574C7.18033 6.16593 7.15711 6.22188 7.1773 6.27071C7.1975 6.31955 7.25345 6.34276 7.30228 6.32257C7.35111 6.30237 7.37433 6.24642 7.35414 6.19759Z" fill="#000088"/>
<path d="M9.65477 7.04541L8.62762 7.56261L8.18693 7.89277L8.69322 7.67625L9.65477 7.04541Z" fill="#000088"/>
<path d="M7.84285 6.09209C7.83599 6.03969 7.78795 6.00278 7.73556 6.00964C7.68316 6.01649 7.64625 6.06453 7.65311 6.11692C7.65997 6.16932 7.708 6.20623 7.7604 6.19937C7.81279 6.19251 7.8497 6.14448 7.84285 6.09209Z" fill="#000088"/>
<path d="M9.84602 7.50703L8.71984 7.74061L8.20862 7.94541L8.75378 7.86738L9.84602 7.50703Z" fill="#000088"/>
<path d="M8.34238 6.11737C8.34931 6.06499 8.31246 6.01691 8.26008 6.00998C8.20769 6.00305 8.15961 6.0399 8.15268 6.09228C8.14575 6.14467 8.1826 6.19275 8.23499 6.19968C8.28737 6.20661 8.33545 6.16976 8.34238 6.11737Z" fill="#000088"/>
<path d="M9.91114 8.00213L8.76304 7.93645L8.21631 8.00202L8.76303 8.06766L9.91114 8.00213Z" fill="#000088"/>
<path d="M8.81888 6.27088C8.83914 6.22208 8.816 6.1661 8.76719 6.14584C8.71839 6.12558 8.66241 6.14872 8.64215 6.19752C8.62189 6.24633 8.64503 6.30231 8.69383 6.32257C8.74264 6.34283 8.79862 6.31969 8.81888 6.27088Z" fill="#000088"/>
<path d="M9.84607 8.49777L8.75401 8.13696L8.20889 8.0587L8.72002 8.26371L9.84607 8.49777Z" fill="#000088"/>
<path d="M9.23835 6.54229C9.27054 6.50039 9.26267 6.44032 9.22077 6.40813C9.17886 6.37594 9.1188 6.38381 9.08661 6.42572C9.05442 6.46762 9.06229 6.52768 9.10419 6.55987C9.14609 6.59206 9.20616 6.58419 9.23835 6.54229Z" fill="#000088"/>
<path d="M9.65434 8.95887L8.69288 8.32796L8.18661 8.1114L8.62727 8.44159L9.65434 8.95887Z" fill="#000088"/>
<path d="M9.57416 6.91329C9.6161 6.88115 9.62406 6.82109 9.59192 6.77915C9.55978 6.73721 9.49973 6.72925 9.45778 6.76139C9.41584 6.79353 9.40789 6.85358 9.44002 6.89553C9.47216 6.93747 9.53222 6.94542 9.57416 6.91329Z" fill="#000088"/>
<path d="M9.3502 9.35554L8.58484 8.49706L8.15187 8.15674L8.49203 8.58984L9.3502 9.35554Z" fill="#000088"/>
<path d="M9.80167 7.35828C9.8505 7.33809 9.87371 7.28214 9.85352 7.23331C9.83333 7.18448 9.77738 7.16126 9.72855 7.18146C9.67972 7.20165 9.65651 7.2576 9.6767 7.30643C9.69689 7.35526 9.75284 7.37847 9.80167 7.35828Z" fill="#000088"/>
<path d="M8.95394 9.6591L8.43677 8.632L8.10662 8.19132L8.32313 8.6976L8.95394 9.6591Z" fill="#000088"/>
<path d="M9.9073 7.84748C9.95969 7.84062 9.9966 7.79259 9.98974 7.74019C9.98289 7.6878 9.93485 7.65089 9.88246 7.65775C9.83007 7.66461 9.79316 7.71264 9.80002 7.76503C9.80687 7.81742 9.85491 7.85434 9.9073 7.84748Z" fill="#000088"/>
<path d="M8.49246 9.85058L8.25889 8.72446L8.0541 8.21326L8.13213 8.75839L8.49246 9.85058Z" fill="#000088"/>
</g>
</g>
<defs>
<clipPath id="clip0_100_3085">
<rect width="16" height="16" fill="white"/>
</clipPath>
</defs>
</svg>
