<svg width="16" height="16" viewBox="0 0 16 16" fill="none" xmlns="http://www.w3.org/2000/svg">
<g clip-path="url(#clip0_100_3200)">
<path d="M8 16C12.4181 16 16 12.4178 16 8C16 3.58219 12.4181 0 8 0C3.58187 0 0 3.58219 0 8C0 12.4178 3.58187 16 8 16Z" fill="#F0F0F0"/>
<path fill-rule="evenodd" clip-rule="evenodd" d="M12.9798 1.73816H3.02449C2.29173 2.32097 1.66703 3.02796 1.17887 3.82691H14.8267C14.3383 3.0281 13.7137 2.32114 12.9811 1.73816H12.9798ZM9.00449 6.26253H11.0132L10.0089 8.00003L11.0123 9.73785H9.00449L8.00012 11.4803L6.99668 9.73816H4.98793L5.9923 8.00003L4.98699 6.26253H6.99574L8.00012 4.52035L9.00449 6.26253ZM8.61699 9.06691L9.23387 8.00003L8.6173 6.93347H7.38355L6.76668 8.00003L7.38324 9.0666L8.61699 9.06691ZM8.00012 5.86253L8.2298 6.26253H7.77074L8.00012 5.86253ZM6.60887 6.93347H6.14949L6.37918 7.3291L6.60887 6.93347ZM6.1498 9.06691L6.37949 8.67128L6.60918 9.06691H6.1498ZM7.77074 9.73816L8.00012 10.1382L8.2298 9.73816H7.77074ZM9.85012 9.06691H9.39106L9.62074 8.67128L9.85012 9.06691ZM9.85012 6.93347H9.39074L9.62043 7.3291L9.85012 6.93347ZM12.9751 14.2622H3.02043C2.28773 13.6793 1.66305 12.9724 1.1748 12.1735H14.822C14.3336 12.9724 13.7088 13.6793 12.9761 14.2622H12.9751Z" fill="#0052B4"/>
</g>
<defs>
<clipPath id="clip0_100_3200">
<rect width="16" height="16" fill="white"/>
</clipPath>
</defs>
</svg>
