<svg width="16" height="16" viewBox="0 0 16 16" fill="none" xmlns="http://www.w3.org/2000/svg">
<g clip-path="url(#clip0_100_3203)">
<path d="M8 16C12.4183 16 16 12.4183 16 8C16 3.58172 12.4183 0 8 0C3.58172 0 0 3.58172 0 8C0 12.4183 3.58172 16 8 16Z" fill="#F0F0F0"/>
<path d="M16 8.00002C16 4.56002 13.8289 1.62802 10.7822 0.497803V15.5022C13.8289 14.372 16 11.44 16 8.00002Z" fill="#D80027"/>
<path d="M0 8.00002C0 11.44 2.17111 14.372 5.21778 15.5022V0.497803C2.17111 1.62802 0 4.56002 0 8.00002Z" fill="#6DA544"/>
</g>
<defs>
<clipPath id="clip0_100_3203">
<rect width="16" height="16" fill="white"/>
</clipPath>
</defs>
</svg>
