<svg width="16" height="16" viewBox="0 0 16 16" fill="none" xmlns="http://www.w3.org/2000/svg">
<g clip-path="url(#clip0_100_3209)">
<path d="M8 16C12.4183 16 16 12.4183 16 8C16 3.58172 12.4183 0 8 0C3.58172 0 0 3.58172 0 8C0 12.4183 3.58172 16 8 16Z" fill="#F0F0F0"/>
<path d="M7.99978 0C4.55978 0 1.62778 2.17111 0.497559 5.21778H15.502C14.3718 2.17111 11.4398 0 7.99978 0Z" fill="#A2001D"/>
<path d="M7.99978 16C11.4398 16 14.3718 13.8289 15.502 10.7822H0.497559C1.62778 13.8289 4.55978 16 7.99978 16Z" fill="#0052B4"/>
</g>
<defs>
<clipPath id="clip0_100_3209">
<rect width="16" height="16" fill="white"/>
</clipPath>
</defs>
</svg>
