<svg width="16" height="16" viewBox="0 0 16 16" fill="none" xmlns="http://www.w3.org/2000/svg">
<g clip-path="url(#clip0_100_3215)">
<path d="M8 16C12.4178 16 16 12.4178 16 8C16 3.58219 12.4178 0 8 0C3.58219 0 0 3.58219 0 8C0 12.4178 3.58219 16 8 16Z" fill="#F0F0F0"/>
<path d="M15.5022 10.7813C16.1659 8.98588 16.1659 7.01233 15.5022 5.21692H0.497816C-0.165939 7.01233 -0.165939 8.98588 0.497816 10.7813L8 11.4804L15.5022 10.7813Z" fill="#0052B4"/>
<path d="M8.00024 16C11.4402 16 14.3734 13.8312 15.5024 10.7812H0.498047C1.62836 13.8312 4.56024 16 8.00024 16Z" fill="#D80027"/>
</g>
<defs>
<clipPath id="clip0_100_3215">
<rect width="16" height="16" fill="white"/>
</clipPath>
</defs>
</svg>
