<svg width="16" height="16" viewBox="0 0 16 16" fill="none" xmlns="http://www.w3.org/2000/svg">
<g clip-path="url(#clip0_100_3219)">
<path d="M8 16C12.4183 16 16 12.4183 16 8C16 3.58172 12.4183 0 8 0C3.58172 0 0 3.58172 0 8C0 12.4183 3.58172 16 8 16Z" fill="#FFDA44"/>
<path fill-rule="evenodd" clip-rule="evenodd" d="M15.9319 6.95644H6.26075V0.190222C6.82075 0.0666667 7.40253 0 7.99986 0C12.0648 0 15.4208 3.03111 15.9319 6.95644ZM4.1741 0.977778V6.95644H0.0678711C0.399871 4.36978 1.97765 2.17111 4.1741 0.977778ZM4.1741 9.04356H0.0678711C0.40476 11.6302 1.97721 13.8289 4.17454 15.0276L4.1741 9.04356ZM6.26075 15.8098V9.04356H6.2612H15.9323C15.4208 12.9689 12.0643 16 7.99986 16C7.40298 16 6.82075 15.9342 6.26075 15.8098Z" fill="#0052B4"/>
</g>
<defs>
<clipPath id="clip0_100_3219">
<rect width="16" height="16" fill="white"/>
</clipPath>
</defs>
</svg>
