<svg width="50" height="23" viewBox="0 0 50 23" fill="none" xmlns="http://www.w3.org/2000/svg">
<path d="M12.5806 9.52465C12.6106 12.236 15.0418 13.1364 15.0618 13.1464C15.0418 13.2064 14.6716 14.437 13.7812 15.6977C13.0108 16.7882 12.2104 17.8787 10.9498 17.8987C9.70922 17.9187 9.30903 17.1884 7.89834 17.1884C6.47764 17.1884 6.03743 17.8787 4.86686 17.9188C3.64626 17.9588 2.72581 16.7382 1.94543 15.6476C0.354655 13.4266 -0.855936 9.36457 0.77486 6.62323C1.58526 5.26257 3.03596 4.40215 4.60673 4.37214C5.79731 4.35213 6.92786 5.15252 7.65822 5.15252C8.38858 5.15252 9.75925 4.19205 11.1999 4.33212C11.8002 4.35213 13.5011 4.57223 14.5816 6.11299C14.4916 6.16301 12.5606 7.25354 12.5806 9.52465ZM10.2495 2.8614C10.8998 2.10103 11.33 1.05051 11.21 0C10.2795 0.0400195 9.14895 0.600294 8.48863 1.36066C7.88833 2.03099 7.36808 3.10151 7.50815 4.13202C8.54866 4.21206 9.60917 3.62177 10.2495 2.8614ZM19.6092 1.56226C20.085 1.48322 20.6215 1.41389 21.1985 1.34466C21.7756 1.27542 22.4132 1.24581 23.1016 1.24581C24.0936 1.24581 24.944 1.36447 25.6627 1.59198C26.3815 1.82919 26.9685 2.15555 27.4342 2.60047C27.829 2.98616 28.1428 3.45089 28.3655 3.97494C28.5882 4.5089 28.6996 5.122 28.6996 5.81414C28.6996 6.65465 28.5477 7.38641 28.2441 8.01922C27.9404 8.65202 27.5253 9.17618 26.999 9.60139C26.4726 10.0266 25.8449 10.3431 25.116 10.5606C24.3872 10.7682 23.5976 10.877 22.7372 10.877C21.9578 10.877 21.3099 10.8177 20.7834 10.7089V17.6702H19.6194V1.56226H19.6092ZM20.7733 9.69033C21.0568 9.76947 21.3706 9.8288 21.7148 9.85841C22.059 9.88803 22.4334 9.90794 22.8283 9.90794C24.3164 9.90794 25.4602 9.57177 26.2802 8.88944C27.1001 8.21711 27.505 7.21833 27.505 5.91299C27.505 5.28018 27.3938 4.73641 27.1812 4.27159C26.9685 3.80676 26.6649 3.42117 26.2701 3.12463C25.8753 2.82808 25.3995 2.60047 24.863 2.4522C24.3164 2.30383 23.7191 2.22479 23.0509 2.22479C22.5247 2.22479 22.0691 2.2445 21.6844 2.28412C21.2997 2.32373 20.996 2.37316 20.7733 2.41268V9.69033ZM37.9519 14.9113C37.9519 15.3761 37.962 15.8507 37.9721 16.3155C37.9924 16.7803 38.043 17.2351 38.124 17.6701H37.0308L36.8587 16.0288H36.8081C36.6562 16.2562 36.4739 16.4837 36.2411 16.7012C36.0006 16.9375 35.732 17.1434 35.4414 17.3144C35.1377 17.5021 34.7936 17.6505 34.3988 17.7593C34.0141 17.868 33.5889 17.9274 33.1233 17.9274C32.5463 17.9274 32.0401 17.8383 31.6048 17.6505C31.1695 17.4627 30.8051 17.2253 30.5318 16.9287C30.2483 16.632 30.0357 16.286 29.9042 15.9003C29.7625 15.5147 29.6916 15.129 29.6916 14.7434C29.6916 13.3689 30.2788 12.3207 31.4631 11.5792C32.6475 10.8376 34.419 10.4816 36.7978 10.5112V10.1948C36.7978 9.88823 36.7675 9.54216 36.7068 9.14667C36.6461 8.75117 36.5246 8.37529 36.3221 8.01942C36.1196 7.66354 35.8261 7.3667 35.4313 7.12938C35.0365 6.89207 34.5 6.7636 33.8218 6.7636C33.3055 6.7636 32.7993 6.84264 32.3034 6.99101C31.8144 7.13376 31.3501 7.3505 30.9267 7.63373L30.5521 6.78331C31.0784 6.42734 31.6251 6.18012 32.1819 6.02194C32.7386 5.87357 33.3258 5.79453 33.9433 5.79453C34.7733 5.79453 35.4414 5.933 35.9576 6.20973C36.4739 6.48647 36.889 6.84264 37.1825 7.27775C37.4761 7.71287 37.6786 8.1974 37.7899 8.74117C37.9013 9.28493 37.9519 9.81899 37.9519 10.353V14.9113ZM36.7877 11.4604C36.1601 11.4406 35.5021 11.4703 34.8239 11.5296C34.1355 11.5988 33.5079 11.7372 32.931 11.9548C32.354 12.1724 31.8781 12.4888 31.4935 12.9139C31.119 13.3292 30.9266 13.8929 30.9266 14.585C30.9266 15.4058 31.1696 16.0089 31.6453 16.3946C32.1211 16.7803 32.6576 16.978 33.2549 16.978C33.7306 16.978 34.166 16.9088 34.5405 16.7803C34.9151 16.6518 35.2491 16.4737 35.5325 16.2561C35.816 16.0385 36.0488 15.7914 36.2411 15.5146C36.4334 15.2377 36.5752 14.9608 36.6764 14.6642C36.7574 14.3379 36.7978 14.1104 36.7978 13.9621L36.7877 11.4604ZM40.2194 6.06136L43.2361 13.606C43.398 14.0214 43.5599 14.4565 43.7118 14.9015C43.8637 15.3465 43.9953 15.7519 44.1066 16.1276H44.1572C44.2686 15.7716 44.4002 15.3762 44.552 14.9312C44.7039 14.4862 44.8659 14.0314 45.0481 13.5665L47.8724 6.07127H49.1074L45.6656 14.585C45.3214 15.4849 44.9872 16.3057 44.6836 17.0373C44.3799 17.769 44.0661 18.4316 43.7523 19.0249C43.4386 19.6182 43.1247 20.1324 42.8008 20.5873C42.4768 21.0421 42.1224 21.4377 41.7278 21.7738C41.2621 22.1792 40.8369 22.4759 40.4522 22.6539C40.0675 22.8418 39.8044 22.9604 39.6728 23L39.278 22.0606C39.5716 21.932 39.9057 21.7639 40.27 21.5563C40.6344 21.3487 40.9888 21.0718 41.333 20.7355C41.6265 20.4488 41.9606 20.0632 42.3148 19.5885C42.6691 19.1137 42.983 18.5404 43.2664 17.858C43.3677 17.6009 43.4183 17.4328 43.4183 17.3538C43.4183 17.245 43.3677 17.067 43.2664 16.8495L38.9845 6.09097H40.2195L40.2194 6.06136Z" fill="#B7B7B7"/>
</svg>
