<svg width="54" height="21" viewBox="0 0 54 21" fill="none" xmlns="http://www.w3.org/2000/svg">
<g clip-path="url(#clip0_61_1187)">
<path d="M25.174 3.08709V8.3922H28.4511C29.2318 8.3922 29.8771 8.13087 30.3871 7.60675C30.912 7.08411 31.1737 6.4605 31.1737 5.7389C31.1737 5.0173 30.912 4.41596 30.3871 3.89184C29.8756 3.35435 29.2303 3.0856 28.4511 3.0856H25.174V3.08709ZM25.174 10.2615V16.4159H23.2172V1.21924H28.408C29.7269 1.21924 30.8451 1.65873 31.7685 2.53475C32.7067 3.41077 33.1736 4.47981 33.1736 5.7389C33.1736 6.99799 32.7067 8.10266 31.7685 8.96383C30.8615 9.82797 29.7403 10.2586 28.408 10.2586H25.174V10.2615ZM35.1512 13.2296C35.1512 13.7404 35.3668 14.1635 35.801 14.5035C36.2337 14.8421 36.7408 15.0128 37.3221 15.0128C38.1459 15.0128 38.8775 14.7084 39.5228 14.1012C40.1681 13.4924 40.4908 12.7782 40.4908 11.9586C39.8811 11.4761 39.0291 11.237 37.9377 11.237C37.1437 11.237 36.4805 11.4286 35.9497 11.8102C35.4189 12.1917 35.1512 12.6639 35.1512 13.2296ZM37.6835 5.67505C39.1302 5.67505 40.2722 6.05961 41.1093 6.8317C41.9465 7.60378 42.3628 8.65946 42.3628 10.0032V16.413H40.4908V14.9698H40.406C39.5971 16.1576 38.5206 16.7515 37.1735 16.7515C36.0241 16.7515 35.062 16.413 34.2903 15.7344C33.5171 15.0544 33.1305 14.2066 33.1305 13.1865C33.1305 12.1116 33.5364 11.2563 34.3528 10.6208C35.1691 9.98388 36.2575 9.66613 37.618 9.66613C38.7808 9.66613 39.7384 9.87846 40.4893 10.3031V9.85767C40.4893 9.17913 40.2202 8.60303 39.6819 8.12939C39.1421 7.65426 38.5132 7.41818 37.789 7.41818C36.6961 7.41818 35.8322 7.87698 35.1944 8.79754L33.4695 7.71514C34.4212 6.35657 35.8248 5.67802 37.6835 5.67802M53.1074 6.01507L46.5753 20.9965H44.5546L46.9797 15.7552L42.6825 6.01507H44.8103L47.9165 13.485H47.9581L50.9796 6.01507H53.1074Z" fill="#B7B7B7"/>
<path d="M17.265 8.93302C17.265 8.31832 17.213 7.72441 17.1148 7.15723H8.85941V10.5202H13.5863C13.3841 11.616 12.77 12.5485 11.8392 13.1735V15.3576H14.6614C16.3134 13.8372 17.265 11.5908 17.265 8.9345" fill="#B7B7B7"/>
<path d="M8.8594 17.4659C11.2221 17.4659 13.2101 16.6923 14.6614 15.3575L11.8392 13.1734C11.0541 13.7005 10.043 14.0093 8.8594 14.0093C6.57697 14.0093 4.63951 12.4741 3.94511 10.4058H1.03966V12.6552C2.48049 15.5075 5.44096 17.4674 8.86089 17.4674" fill="#B7B7B7"/>
<path d="M3.9466 10.4041C3.76966 9.87705 3.67152 9.31432 3.67152 8.73378C3.67152 8.15323 3.76817 7.5905 3.9466 7.0634V4.81396H1.03966C0.443406 5.99288 0.107361 7.32324 0.107361 8.73378C0.107361 10.1443 0.443406 11.4762 1.03966 12.6536L3.9466 10.4041Z" fill="#B7B7B7"/>
<path d="M8.8594 3.45849C10.1486 3.45849 11.3054 3.90096 12.2169 4.76807C13.1284 5.63518 14.7149 2.27661 14.7149 2.27661C13.1983 0.869043 11.2206 0.00341797 8.8594 0.00341797C5.44096 0.00341797 2.48049 1.96184 1.03966 4.8141L3.9466 7.06353C4.63951 4.99524 6.57697 3.45998 8.86089 3.45998" fill="#B7B7B7"/>
</g>
<defs>
<clipPath id="clip0_61_1187">
<rect width="53" height="21" fill="white" transform="translate(0.107361)"/>
</clipPath>
</defs>
</svg>
