<svg width="39" height="23" viewBox="0 0 39 23" fill="none" xmlns="http://www.w3.org/2000/svg">
<path fill-rule="evenodd" clip-rule="evenodd" d="M38.9596 11.5003C38.9596 5.14909 33.8107 0.000221789 27.4597 0.000221789C24.7037 0.000221789 22.1959 0.964735 20.2154 2.5814C21.7261 4.03999 22.8794 5.86623 23.4982 7.93055H22.5428C21.9439 6.09525 20.8921 4.47594 19.5248 3.17651C18.1483 4.4873 17.1182 6.11876 16.5264 7.92502H15.5708C16.181 5.89854 17.2994 4.06179 18.8196 2.58935C16.8439 0.989274 14.348 0 11.6075 0C5.25645 0 0.107361 5.14886 0.107361 11.5001C0.107361 17.8511 5.25622 23 11.6075 23C14.3478 23 16.8439 22.0107 18.8196 20.4106C17.3205 18.9565 16.1869 17.1278 15.5708 15.0752H16.5264C17.1182 16.8814 18.1484 18.5129 19.5248 19.8237C20.8923 18.5241 21.9439 16.905 22.5428 15.0695H23.4982C22.8794 17.1338 21.7261 18.9602 20.2154 20.4186C22.1959 22.035 24.7037 22.9998 27.4597 22.9998C33.8107 23 38.9596 17.8511 38.9596 11.5003Z" fill="#B7B7B7"/>
<path fill-rule="evenodd" clip-rule="evenodd" d="M30.5078 14.1939L31.3019 9.93882H32.3058L32.4108 10.3582C32.5907 10.1482 32.9354 9.93882 33.5197 9.93882L33.2053 11.0473C32.9203 11.0473 32.3809 10.9728 32.0365 12.2461L31.6768 14.1939H30.5078ZM15.1205 8.85737H16.2776L16.0401 9.98481H16.6629L16.4555 10.9044H15.8622L15.5357 12.625C15.4762 12.9515 15.506 13.2484 16.1737 13.1445L16.0994 14.0047C15.8471 14.1678 15.506 14.2127 15.2388 14.2127C14.9719 14.2127 14.0965 14.0491 14.3193 12.8923L15.1205 8.85737ZM20.1345 12.2989C20.268 11.6163 20.5797 9.92556 18.5475 9.92556C16.6781 9.92556 16.4409 11.7796 16.3965 12.0465C16.3521 12.3137 16.3224 14.1975 18.3249 14.1975C18.8145 14.2125 19.5266 14.153 19.8087 14.0045L19.9866 13.1297C19.8087 13.1737 19.1408 13.2334 18.6808 13.2334C18.2212 13.2334 17.4795 13.2632 17.6128 12.2989H20.1345ZM14.0231 10.9343L14.2899 10.0737C13.741 9.86609 13.3111 9.91075 13.1477 9.91075C12.9843 9.91075 11.5954 9.89373 11.3825 10.9195C11.2193 11.7058 11.5072 12.031 11.783 12.1506C12.2283 12.3436 12.4805 12.5215 12.7179 12.6403C13.0115 12.787 12.9576 13.278 12.5694 13.278C12.3912 13.278 11.6201 13.3669 11.0416 13.1739L10.8784 14.0491C11.4125 14.1977 11.8423 14.1977 12.2433 14.1977C12.5249 14.1977 13.9046 14.272 14.0972 12.996C14.1914 12.3739 13.9192 12.0909 13.6966 11.958C13.4742 11.8095 13.1033 11.6019 12.8661 11.4978C12.6286 11.3941 12.4507 10.9938 12.8809 10.875C13.1477 10.8452 13.6964 10.8452 14.0231 10.9343ZM6.51702 14.1975L7.48109 9.06495H5.58257L4.17305 12.1802L3.95043 9.06495H2.09635L1.10243 14.1975H2.25927L2.97133 10.4891L3.28303 14.1975H4.38063L5.99773 10.5781L5.3153 14.1975H6.51702ZM7.79235 10.0591L7.61439 10.9787C7.89647 10.9493 8.65297 10.8306 9.05332 10.8452C9.45411 10.86 9.8989 10.8008 9.76537 11.4385C9.4687 11.4684 7.392 11.1419 7.06593 12.9217C6.9324 13.7973 7.68867 14.2421 8.28201 14.2127C8.87536 14.1829 9.03851 14.1086 9.24631 13.96L9.39464 14.1975H10.4772L10.9372 11.8835C11.056 11.305 11.2485 9.91053 9.30555 9.91053C8.94964 9.92556 8.54928 9.91053 7.79235 10.0591ZM26.5428 10.2516C26.2457 10.0735 26.0385 10.0441 25.6526 10.0441C25.267 10.0441 24.4064 10.4126 24.2437 11.4534C24.0507 12.6845 24.8961 13.2924 26.083 12.8923L26.4241 13.9306C26.0385 14.1086 25.6526 14.1975 25.0148 14.1975C23.8131 14.1975 22.5079 13.1297 23.1012 10.9637C23.5387 9.36781 24.9113 8.78331 25.7122 8.81293C26.6613 8.8483 27.0028 9.16885 27.2995 9.49536L26.5428 10.2516ZM36.4074 10.4296C36.1846 10.2667 36.0518 9.92556 35.5024 9.92556C34.8646 9.92556 33.8707 9.80685 33.3072 11.7352C32.9303 13.024 33.6927 14.1977 34.5231 14.1977C34.9091 14.1831 35.2946 14.0197 35.5316 13.8566L35.6806 14.1977H36.9263L37.9352 8.79834H36.7185L36.4074 10.4296ZM27.3736 10.0591L27.1952 10.9787C27.4775 10.9493 28.2335 10.8306 28.6343 10.8452C29.0349 10.86 29.4801 10.8008 29.3464 11.4385C29.0497 11.4684 26.973 11.1419 26.6469 12.9217C26.5132 13.7973 27.2694 14.2421 27.8628 14.2127C28.4566 14.1829 28.6193 14.1086 28.8273 13.96L28.9758 14.1975H30.0582L30.5184 11.8835C30.6372 11.305 30.8297 9.91053 28.8863 9.91053C28.5306 9.92556 28.13 9.91053 27.3736 10.0591Z" fill="white"/>
<path fill-rule="evenodd" clip-rule="evenodd" d="M17.6868 11.5274H19.1257C19.2 11.112 19.0665 10.7559 18.6066 10.7559C18.1466 10.7559 17.8203 10.9933 17.6868 11.5274ZM9.57276 12.2987C9.37976 12.2684 8.94957 12.1501 8.57862 12.4024C8.20767 12.6546 8.10399 13.0992 8.48975 13.2482C8.86092 13.3908 9.40894 13.1445 9.48367 12.7581L9.57276 12.2987ZM35.992 12.1649C36.1107 11.7794 36.0459 11.2979 35.9177 11.127C35.562 10.6524 34.7434 11.0275 34.4938 11.9578C34.3307 12.5657 34.6868 13.0256 35.0872 13.0256C35.5176 13.0253 35.7844 12.6842 35.992 12.1649ZM29.1537 12.2987C28.9607 12.2684 28.5308 12.1501 28.1598 12.4024C27.7889 12.6546 27.685 13.0992 28.071 13.2482C28.4423 13.3908 28.9901 13.1445 29.0644 12.7581L29.1537 12.2987Z" fill="#B7B7B7"/>
<path fill-rule="evenodd" clip-rule="evenodd" d="M20.1676 14.1975L20.9539 9.98486H21.9479L22.0515 10.4002C22.2299 10.1924 22.571 9.98486 23.1491 9.98486L22.8525 11.0975C22.571 11.0975 22.0217 11.0086 21.6806 12.2689L21.3249 14.1977L20.1676 14.1975Z" fill="white"/>
</svg>
