<svg width="53" height="23" viewBox="0 0 53 23" fill="none" xmlns="http://www.w3.org/2000/svg">
<g clip-path="url(#clip0_61_1203)">
<path d="M21.135 21.7371C21.036 21.4685 20.8566 21.2854 20.7268 21.0473C20.4114 20.6383 20.0403 20.2843 19.6692 19.9302C19.5393 19.8875 19.4837 19.7654 19.36 19.7166C19.2796 19.6128 19.1497 19.5578 19.0446 19.4785C18.8343 19.3198 18.6055 19.1855 18.3704 19.0512C17.9252 18.7704 17.3747 18.5934 16.8305 18.4102C16.2429 18.2698 15.6245 18.1661 14.9813 18.0806C14.3443 17.989 13.7073 17.9036 13.2249 17.6533C12.9466 17.5739 12.7425 17.4213 12.5013 17.2992C12.2786 17.1527 12.0374 17.0306 11.8519 16.8475C11.6231 16.7132 11.4808 16.4874 11.3015 16.3042C11.2396 16.1821 11.1345 16.1089 11.085 15.9746C11.0232 15.9502 11.0046 15.8769 10.9675 15.8342C10.9242 15.7854 10.9242 15.6877 10.85 15.6694C10.8129 15.9197 10.8252 16.2188 10.85 16.4752C10.8809 16.585 10.8933 16.7193 10.9242 16.8292C10.9428 16.9269 11.0355 17.0856 10.9984 17.1588C9.06883 17.0612 7.65874 16.4568 6.43419 15.6633C5.8281 15.2665 5.3086 14.7843 4.8262 14.2654C4.61593 13.9785 4.3871 13.7038 4.20156 13.3864C4.00984 13.075 3.84904 12.721 3.67587 12.3914C3.39138 11.6772 3.12544 10.9446 3.02649 10.0473C2.89661 9.211 2.92753 8.14275 3.11926 7.3675C3.18729 6.94019 3.32953 6.58004 3.45322 6.20767C3.53362 6.03675 3.62021 5.86583 3.69442 5.68881C3.79956 5.5423 3.85522 5.34086 3.9851 5.21267C4.33762 4.5595 4.86331 4.07116 5.40137 3.60113C5.98272 3.17993 6.64447 2.83808 7.44228 2.63054C8.20917 2.45962 9.25436 2.42909 10.0831 2.60612C11.7653 2.94796 13.0331 3.69269 14.0969 4.64497C15.173 5.57893 16.0017 6.76317 16.5707 8.20379C17.1583 9.57116 17.3624 11.7016 16.8367 13.2521C16.6202 13.13 16.4037 13.014 16.1873 12.898C15.9275 12.8248 15.674 12.7393 15.3709 12.7088C15.006 12.7027 14.6473 12.7088 14.4123 12.8248C14.8885 12.7759 15.272 12.9041 15.5688 13.014C15.742 13.0811 15.8409 13.1239 15.977 13.2032C16.2429 13.3558 16.478 13.4962 16.6759 13.7038C17.2387 14.1921 17.6407 14.8392 17.8324 15.6938C17.8324 15.7182 17.8633 15.7121 17.8571 15.6694C17.8819 15.6633 17.8942 15.645 17.9066 15.6205C17.9375 15.5839 17.9746 15.5473 18.0056 15.5046C18.0674 15.4313 18.1292 15.3581 18.1725 15.2665C18.3024 15.1139 18.4076 14.943 18.5065 14.7659C18.7353 14.4363 18.9085 14.0578 19.1064 13.6977C19.4466 12.9285 19.7249 12.0984 19.898 11.1583C20.2444 9.0706 19.83 7.0928 19.1064 5.63387C18.3643 4.16272 17.3253 2.98459 15.9832 2.09946C14.6288 1.22044 13.0455 0.573378 10.8685 0.512334C10.8562 0.469604 10.8376 0.518439 10.7943 0.512334C9.64399 0.475708 8.71631 0.634421 7.7948 0.866386C7.36807 1.00679 6.92278 1.12887 6.54552 1.31811C6.1126 1.45851 5.76626 1.69047 5.37044 1.86139C5.2282 1.99569 5.01174 2.06283 4.86331 2.19103C4.67159 2.28259 4.52934 2.42909 4.33762 2.52066C4.02839 2.78925 3.70061 3.02732 3.39756 3.30201C3.1007 3.5706 2.84095 3.87582 2.55646 4.15662C2.51317 4.25429 2.43895 4.32144 2.36474 4.39469C2.31526 4.48625 2.25341 4.56561 2.17301 4.63276C2.14209 4.74263 2.04314 4.78537 2.00603 4.89524C1.92563 4.95629 1.90708 5.07837 1.81431 5.13331C1.73391 5.32865 1.59166 5.46905 1.49889 5.65218C1.38757 5.82921 1.30099 6.02454 1.18967 6.19547C1.0165 6.59225 0.830959 6.97682 0.688713 7.40412C0.540283 7.81922 0.416592 8.25873 0.330008 8.73487C0.237239 9.18048 0.150655 9.76039 0.163024 10.2304C0.101178 10.4013 0.150655 10.7188 0.163024 10.9202C0.163024 10.9568 0.138285 10.969 0.138285 10.9935C0.138285 11.2193 0.200131 11.494 0.2125 11.6344C0.261977 12.1533 0.354746 12.6355 0.503176 13.0567C0.595945 13.5268 0.793851 13.893 0.936097 14.3142C1.15256 14.6683 1.30099 15.0895 1.56074 15.4069C1.75246 15.7793 2.02458 16.0723 2.28434 16.3775C2.56264 16.6705 2.84095 16.9696 3.17492 17.2077C3.78719 17.7326 4.5046 18.1538 5.29005 18.514C6.75579 19.216 8.94514 19.6738 10.9118 19.5578C11.4128 19.4907 11.9199 19.4297 12.3776 19.3198C12.7981 19.1672 13.2867 19.0756 13.7939 19.0146C14.9504 18.9413 15.9523 19.0451 16.8429 19.3015C17.7458 19.5395 18.5251 19.8997 19.1992 20.3697C19.5579 20.5773 19.8547 20.8459 20.1578 21.1022C20.467 21.3647 20.7144 21.6883 20.9989 21.9813C21.036 22.0911 21.1102 22.1705 21.1659 22.2682C21.2401 22.3475 21.203 22.5307 21.3823 22.5062C21.4937 22.3964 21.3638 22.2376 21.3576 22.1033C21.2463 21.9874 21.2215 21.8348 21.135 21.7371Z" fill="#B7B7B7"/>
<path d="M16.6449 15.2418C16.6202 15.2418 16.614 15.2601 16.5955 15.2662C16.5522 15.3578 16.5707 15.5043 16.5955 15.5959C16.7253 15.8583 16.7686 16.2002 17.0531 16.3101C17.1892 16.2673 17.1768 16.072 17.1706 15.8828C17.1088 15.6508 17.0222 15.4433 16.88 15.2906C16.781 15.254 16.713 15.193 16.6449 15.2418ZM14.9627 15.9072C14.9627 15.895 14.9442 15.8828 14.938 15.9072C14.703 15.8767 14.6226 16.0048 14.5051 16.0964C14.301 16.6275 14.6288 17.1464 15.2039 17.1403C15.4328 17.0853 15.575 16.9388 15.6121 16.6885C15.5812 16.2429 15.3895 15.956 14.9627 15.9072Z" fill="#B7B7B7"/>
<path d="M28.8286 14.2165C28.9214 14.6011 29.1193 14.8758 29.3419 15.1322C29.5645 15.3886 29.8243 15.6022 30.1397 15.7609C30.4366 15.9441 30.7582 16.0967 31.1293 16.2004C31.3086 16.2615 31.4818 16.3347 31.7044 16.3592C31.859 16.4446 32.0446 16.4873 32.0569 16.7071C32.0508 16.9696 31.8714 17.0673 31.6426 17.1161C31.4137 17.0673 31.1292 17.0734 30.9375 16.9879C30.4551 16.933 30.0655 16.7804 29.6573 16.64C28.8781 16.3408 28.2225 15.9074 27.6782 15.3764C27.5669 15.1932 27.4123 15.0467 27.2948 14.8697C27.1773 14.6927 27.0969 14.479 26.9732 14.302C26.0208 14.1799 25.3714 13.7526 24.8024 13.2582C24.2767 12.666 23.8562 11.9579 23.683 11.0179C23.4789 10.1144 23.5408 8.98513 23.782 8.11221C24.3077 6.42131 25.4085 5.29812 27.4865 5.14551C28.0617 5.16382 28.5626 5.23097 29.0203 5.40189C29.4841 5.56671 29.9233 5.87192 30.2696 6.18935C30.3005 6.21377 30.3129 6.21987 30.3314 6.25039C30.4057 6.35416 30.585 6.50067 30.684 6.62886C30.7025 6.65328 30.6963 6.69601 30.7149 6.72653C30.752 6.78147 30.8077 6.80589 30.8448 6.85472C30.8633 6.88524 30.8571 6.92187 30.8757 6.94628C30.9004 6.98291 30.9313 7.03785 30.9685 7.105C30.9808 7.12941 31.0241 7.14773 31.0303 7.16604C31.086 7.26981 31.1107 7.39801 31.1602 7.51399C31.2096 7.63607 31.2777 7.73985 31.321 7.86193C31.4447 8.22209 31.5251 8.64939 31.5745 9.0889C31.6982 10.3586 31.4447 11.494 30.9685 12.3364C30.7458 12.7759 30.4366 13.1361 30.0717 13.4413C29.7377 13.7892 29.2801 13.9968 28.8286 14.2165ZM27.2948 6.2687C27.0165 6.28702 26.8495 6.41521 26.6207 6.48846C26.4723 6.62276 26.2867 6.72653 26.1754 6.89745C25.9899 7.00122 25.9404 7.23319 25.792 7.36748C25.6683 7.6727 25.5508 8.01454 25.4704 8.41132C25.3961 8.802 25.3467 9.24151 25.3405 9.67492C25.3343 10.7615 25.5693 11.842 26.0084 12.4829C26.2682 12.7942 26.5836 13.0506 26.967 13.2398C27.1897 13.2582 27.3628 13.3314 27.604 13.3375C27.7401 13.2887 27.9627 13.3375 28.0493 13.2398C28.2472 13.2521 28.2905 13.1239 28.4637 13.1117C28.5565 13.0201 28.6554 12.9468 28.7853 12.8919C28.9028 12.7637 29.0141 12.6355 29.1378 12.5134C29.1997 12.4219 29.2368 12.2937 29.3295 12.2265C29.8861 11.1766 29.948 9.25372 29.5831 8.03286C29.447 7.58724 29.2553 7.22708 29.0389 6.92797C28.8038 6.6899 28.5255 6.48846 28.2101 6.32975C27.9566 6.27481 27.7154 6.20766 27.3814 6.23818C27.3628 6.23818 27.3443 6.24429 27.3505 6.2687C27.3381 6.2687 27.3195 6.2687 27.2948 6.2687ZM34.0422 5.38358C34.5431 5.40189 35.1307 5.34085 35.576 5.4141C35.6749 5.56671 35.6378 5.74984 35.6378 5.92076C35.6749 8.2343 35.6378 10.7188 35.6378 13.0811C35.6378 13.2704 35.644 13.4657 35.6378 13.6488C35.6316 13.8075 35.6749 13.9785 35.576 14.125C35.3533 14.1799 35.0317 14.1555 34.7472 14.1555C34.4442 14.1555 34.1473 14.1982 33.9494 14.0945C33.8938 11.2987 33.8938 8.28313 33.9494 5.48125C33.9618 5.43241 33.9927 5.40189 34.0422 5.38358ZM37.8766 5.38358H39.3795C39.5155 5.56671 39.5588 5.8414 39.6021 6.10999C40.0536 7.80699 40.4989 9.5101 40.9133 11.2498C41.0122 11.262 40.9813 11.1461 41.0122 11.0911C41.0555 11.0484 41.0308 10.9446 41.0741 10.9019C41.0926 10.7615 41.1792 10.6882 41.173 10.5234C41.2843 10.3098 41.3214 10.0168 41.4266 9.79701C41.5565 9.28424 41.7296 8.8081 41.8781 8.31365C42.0203 7.80089 42.212 7.33696 42.3233 6.79978C42.5336 6.36637 42.5831 5.77425 42.8367 5.38358H43.4737C43.7025 5.81088 43.7891 6.37858 43.987 6.83641C44.1169 7.34917 44.2962 7.8131 44.4323 8.31976C44.7477 9.30256 45.0755 10.2731 45.36 11.2865C45.4899 11.0972 45.4899 10.7798 45.5826 10.56C45.6383 10.3098 45.6878 10.0534 45.7744 9.83363C46.0217 8.83252 46.2567 7.82531 46.5412 6.86693C46.6464 6.36637 46.7515 5.85361 46.9247 5.4141C47.2958 5.35916 47.8647 5.35916 48.2358 5.4141C48.2667 5.78646 48.0936 6.18935 47.9822 6.51898C47.9204 6.92187 47.772 7.23319 47.6916 7.62386C47.4627 8.33807 47.2896 9.09501 47.0546 9.80311C46.8752 10.56 46.634 11.2559 46.4485 12.0129C46.3248 12.3608 46.2382 12.7454 46.1269 13.1178C46.0032 13.4596 45.9599 13.8808 45.7744 14.1616H44.8776C44.6488 13.7648 44.5684 13.2276 44.3643 12.8064C43.919 11.4147 43.4242 10.0778 42.9913 8.67381C42.8429 8.82642 42.8429 9.13774 42.7377 9.33308C42.6697 9.57115 42.6017 9.80922 42.5151 10.029C42.3914 10.5112 42.2058 10.9202 42.1007 11.4147C41.9214 11.8481 41.7915 12.3303 41.6554 12.8064C41.4699 13.2215 41.4018 13.7526 41.173 14.1311C40.938 14.2043 40.5669 14.1433 40.2763 14.1616C40.0536 13.9113 40.0289 13.4596 39.8928 13.1178C39.7877 12.7637 39.7135 12.373 39.5774 12.0434C39.4042 11.2743 39.1445 10.5967 38.9713 9.83363C38.7425 9.12553 38.5446 8.38691 38.3343 7.65439C38.2168 7.30644 38.1302 6.93408 38.0127 6.58002C37.957 6.20156 37.6973 5.85971 37.79 5.44462C37.8024 5.4141 37.8395 5.39579 37.8766 5.38358ZM50.4994 5.38358C51.0003 5.40189 51.5817 5.34085 52.0331 5.4141C52.1445 5.74373 52.095 6.09778 52.095 6.45183V13.075C52.095 13.4352 52.1383 13.7831 52.0331 14.1189C51.6868 14.1555 51.1797 14.1738 50.7529 14.1494C50.6293 14.1433 50.4808 14.1799 50.4004 14.0883C50.2891 13.7587 50.3386 13.4108 50.3386 13.0445V6.48846C50.3386 6.09168 50.3015 5.70711 50.4004 5.44462C50.4252 5.4141 50.4623 5.39579 50.4994 5.38358Z" fill="#B7B7B7"/>
</g>
<defs>
<clipPath id="clip0_61_1203">
<rect width="52" height="22" fill="white" transform="translate(0.107361 0.5)"/>
</clipPath>
</defs>
</svg>
