<svg width="53" height="17" viewBox="0 0 53 17" fill="none" xmlns="http://www.w3.org/2000/svg">
<g clip-path="url(#clip0_61_1207)">
<path d="M33.9768 0.0205078C30.2846 0.0205078 26.9851 1.94676 26.9851 5.50567C26.9851 9.58703 32.837 9.8689 32.837 11.9193C32.837 12.7826 31.854 13.5554 30.1752 13.5554C27.7926 13.5554 26.0118 12.4756 26.0118 12.4756L25.2499 16.0669C25.2499 16.0669 27.3013 16.9791 30.0248 16.9791C34.0616 16.9791 37.238 14.9582 37.238 11.3385C37.238 7.02578 31.3619 6.75224 31.3619 4.84919C31.3619 4.17281 32.1687 3.43182 33.8428 3.43182C35.7315 3.43182 37.2726 4.21718 37.2726 4.21718L38.0183 0.748603C38.0183 0.748603 36.3415 0.0205078 33.9768 0.0205078ZM0.196787 0.282312L0.107361 0.805868C0.107361 0.805868 1.6607 1.09198 3.0597 1.6628C4.86101 2.31728 4.98938 2.69833 5.29273 3.88177L8.59856 16.7091H13.0302L19.8573 0.282312H15.4359L11.0491 11.4509L9.259 1.98386C9.09482 0.900384 8.26324 0.282312 7.24536 0.282312H0.196787ZM21.6352 0.282312L18.1668 16.709H22.3829L25.8392 0.28226H21.6352V0.282312ZM45.1502 0.282312C44.1335 0.282312 43.5949 0.830178 43.1996 1.78754L37.0226 16.709H41.444L42.2995 14.2221H47.686L48.2062 16.709H52.1074L48.7039 0.282312H45.1502ZM45.7252 4.72031L47.0358 10.8844H43.5247L45.7252 4.72031Z" fill="#B7B7B7"/>
</g>
<defs>
<clipPath id="clip0_61_1207">
<rect width="52" height="17" fill="white" transform="translate(0.107361)"/>
</clipPath>
</defs>
</svg>
