<svg width="24" height="23" viewBox="0 0 24 23" fill="none" xmlns="http://www.w3.org/2000/svg">
<g clip-path="url(#clip0_61_1209)">
<path d="M11.5527 0.174805C13.347 0.174805 15.0543 0.58593 16.5863 1.32135C16.8265 1.42974 17.0683 1.5595 17.3078 1.68935L16.2574 2.6199L14.6826 0.99715L11.969 3.37669L10.3711 1.66741L5.38126 6.10258L8.57596 9.58583L7.32878 10.6673L10.4806 14.1505L9.23338 15.2315L13.7419 20.1859L16.4102 17.7627L18.731 20.3595C18.271 20.7058 17.7677 21.0526 17.2213 21.3549C15.4961 22.3205 13.5518 22.8267 11.5748 22.825C5.24949 22.825 0.10736 17.742 0.10736 11.4902C0.0852221 5.28071 5.22821 0.174805 11.5527 0.174805ZM9.4513 10.7975L12.187 8.3743L14.6386 11.0785L11.9023 13.5015L9.4513 10.7975ZM11.3996 15.4707L14.113 13.026L16.5862 15.73L13.8503 18.1532L11.3996 15.4707ZM7.50473 6.1895L10.2395 3.76635L12.6907 6.47048L9.95481 8.89363L7.50473 6.1895ZM12.5153 4.89095L14.5508 3.07386L16.3894 5.08578L14.3539 6.92444L12.5153 4.89095ZM16.1485 13.2202L18.1833 11.4029L20.0219 13.436L17.9864 15.2545L16.1485 13.2202ZM17.9428 17.3094L19.9783 15.4918L21.8155 17.5039L19.7808 19.3422L17.9428 17.3094ZM18.7746 7.96308L20.1313 6.75146L21.3564 8.09332L19.9999 9.30446L18.7746 7.96308ZM17.0239 3.9607L18.3807 2.7279L19.6067 4.09065L18.2489 5.30208L17.0239 3.9607ZM20.5034 11.9658L21.86 10.7542L23.1074 12.0956L21.7292 13.3068L20.5034 11.9658ZM14.3977 8.9585L16.4332 7.14122L18.2711 9.15276L16.2365 10.9704L14.3977 8.9585Z" fill="#B7B7B7"/>
</g>
<defs>
<clipPath id="clip0_61_1209">
<rect width="23" height="23" fill="white" transform="translate(0.107361)"/>
</clipPath>
</defs>
</svg>
