<svg width="237" height="42" viewBox="0 0 237 42" fill="none" xmlns="http://www.w3.org/2000/svg">
<rect width="237" height="42" rx="21" fill="#B2F861"/>
<rect x="8" y="8" width="26" height="26" rx="13" fill="#1F1F1F"/>
<g clip-path="url(#clip0_383_5151)">
<path d="M13 13H29V16.2613V16.7529V29H21.2548H20.7307H13V16.7793V16.1975V13ZM13 13V16.1975C13.0255 16.1574 13.0588 15.7968 13.0757 15.7115C13.2589 14.7849 13.8395 13.9466 14.574 13.3662C14.7306 13.2424 14.9064 13.1408 15.0723 13.0297C14.8237 13.4145 14.6057 13.9984 14.5248 14.452C14.4083 15.1054 14.5162 15.7401 14.9013 16.2887C15.1111 16.5876 15.4223 16.8845 15.765 17.0209C15.8621 17.0595 15.9632 17.0798 16.0656 17.0979C16.1898 16.8337 16.4553 16.5308 16.6625 16.3259C17.2488 15.7462 18.077 15.3642 18.8998 15.2983C19.0958 15.2826 19.2947 15.2917 19.4911 15.2931L20.3513 15.2948L22.5698 15.2924C22.8034 15.2938 23.0299 15.2977 23.2616 15.3312C24.1002 15.4581 24.8756 15.8523 25.4721 16.4553C25.5825 16.5687 25.6856 16.6889 25.7809 16.8152C25.8438 16.8998 25.9007 17.0028 25.9752 17.0764C25.9771 17.0784 25.9791 17.0803 25.9812 17.0822C26.097 17.0683 26.2012 17.0302 26.3059 16.9798C26.8145 16.7354 27.2052 16.248 27.3881 15.7194C27.6981 14.8237 27.4266 14.0379 27.0344 13.2269C27.0419 13.2168 27.0477 13.2076 27.0535 13.1964C27.0584 13.1871 27.063 13.1782 27.0684 13.1693C27.0823 13.1733 27.0866 13.1732 27.1011 13.1689C27.1052 13.1677 27.1091 13.1661 27.1131 13.1647C28.0066 13.7543 28.7034 14.7101 28.9187 15.7654C28.9452 15.8957 28.9616 16.1544 29 16.2613V13H13ZM26.4483 19.9901C26.714 20.1268 26.9758 20.2709 27.2402 20.4102C27.3921 20.4903 27.6788 20.6272 27.803 20.7269C27.8447 20.7604 27.8713 20.8009 27.887 20.8521C27.9101 20.928 27.9062 21.0109 27.9023 21.0891C27.8876 21.3803 27.8097 21.6394 27.667 21.8945C27.4342 22.3106 27.0194 22.6255 26.5614 22.752C26.1812 22.8556 25.7772 22.8289 25.4138 22.6763C25.2996 22.6275 25.1959 22.5634 25.0866 22.5055C25.0238 22.6578 24.9758 22.817 24.9214 22.9727C24.8369 23.2137 24.7497 23.4538 24.6597 23.6928C24.478 24.175 24.3015 24.659 24.1302 25.145C24.0669 25.3251 23.9941 25.5037 23.9384 25.6862C23.8808 25.8749 23.9031 26.0863 23.9023 26.2822C23.9028 26.4142 23.8929 26.5461 23.8726 26.6766C23.8017 27.1199 23.5907 27.5463 23.2545 27.8483C23.0619 28.0212 22.8016 28.1938 22.5915 28.3509C22.3474 28.5333 22.1177 28.7362 21.8333 28.8555C21.7426 28.8935 21.6486 28.9228 21.5524 28.9431C21.4698 28.96 21.3238 28.9632 21.2548 29H29V16.7529C28.9992 16.7552 28.9984 16.7576 28.9977 16.7599C28.959 16.8815 28.9552 17.0217 28.937 17.1485C28.9173 17.2867 28.8824 17.4249 28.8427 17.5586C28.5398 18.5789 27.8013 19.3173 26.8787 19.8068C26.7453 19.8775 26.5935 19.9492 26.4483 19.9901ZM13 16.7793V29H20.7307C20.6589 28.9722 20.5722 28.9666 20.4963 28.9523C20.3488 28.9245 20.2011 28.8798 20.0659 28.8139C19.8338 28.7009 19.6288 28.5138 19.4223 28.3594C19.2191 28.2073 18.9968 28.0677 18.8063 27.9007C18.4416 27.5813 18.1869 27.094 18.1187 26.6154C18.0968 26.4617 18.0979 26.3109 18.099 26.1562C18.1002 25.992 18.1131 25.833 18.0609 25.6748C17.9871 25.4509 17.904 25.2302 17.8261 25.0077L17.455 23.953C17.2751 23.4655 17.0991 22.9765 16.9269 22.4862C16.8312 22.5478 16.7351 22.6085 16.6322 22.6575C16.2108 22.8584 15.7103 22.854 15.2762 22.6968C14.8415 22.5395 14.441 22.1762 14.2487 21.7572C14.1444 21.5302 14.0268 21.061 14.1234 20.8182C14.1463 20.7606 14.1775 20.7171 14.2267 20.6799C14.3628 20.5772 14.5484 20.5033 14.7012 20.4221C14.976 20.276 15.2488 20.1142 15.5325 19.9865C15.4738 19.9714 15.4166 19.9539 15.3601 19.9318C14.8365 19.724 14.3662 19.4015 13.9836 18.9881C13.601 18.5746 13.316 18.0807 13.1494 17.5426C13.1143 17.4282 13.0868 17.3116 13.067 17.1936C13.0525 17.1077 13.035 16.8499 13.0056 16.79C13.0039 16.7864 13.0019 16.7829 13 16.7793ZM20.2771 24.9653C19.9855 24.975 19.709 25.0922 19.5081 25.3064C19.309 25.5186 19.1894 25.7959 19.2007 26.0891C19.2122 26.3889 19.335 26.6837 19.5572 26.889C19.6869 27.009 19.8436 27.108 20.0136 27.1592C20.3128 27.2494 20.7025 27.2182 21.0172 27.2181C21.2462 27.218 21.477 27.2233 21.7059 27.2161C22.0284 27.1919 22.2972 27.0714 22.5106 26.8245C22.7073 26.597 22.8083 26.3155 22.7845 26.0146C22.7607 25.7113 22.6279 25.4277 22.395 25.2295C22.2705 25.1235 22.1156 25.0336 21.9561 24.9935C21.7283 24.9363 21.2284 24.9595 20.9741 24.9604C20.7424 24.9613 20.5083 24.953 20.2771 24.9653ZM20.9691 18.1834C20.1944 18.1957 19.4623 18.4279 18.8347 18.885C18.6761 19.0005 18.523 19.1254 18.3862 19.2663C18.3438 19.3096 18.303 19.3543 18.2638 19.4004C18.3622 19.5007 18.4617 19.6 18.562 19.6983C18.6362 19.77 18.7162 19.8394 18.7848 19.9164C19.2448 19.3546 19.9775 19.0012 20.6933 18.9272C20.8122 18.9149 20.9322 18.9146 21.0516 18.9158C21.6784 18.9343 22.2742 19.112 22.7734 19.5023C22.9404 19.6329 23.072 19.7714 23.2275 19.9112L23.2338 19.9027C23.3177 19.7922 23.6997 19.4799 23.7252 19.4048C23.6884 19.3338 23.6052 19.267 23.548 19.2111C23.1455 18.8228 22.6604 18.5305 22.1291 18.3561C21.7599 18.2383 21.3569 18.1669 20.9691 18.1834ZM20.8629 19.6436C20.2478 19.693 19.7189 19.9489 19.2966 20.4001C19.4025 20.5225 19.7103 20.8367 19.8325 20.9187C20.0807 20.613 20.4179 20.3993 20.8142 20.3572C20.9361 20.3447 21.0591 20.3456 21.1808 20.3599C21.4709 20.3908 21.7441 20.5117 21.9621 20.7056C22.0409 20.7761 22.1116 20.8573 22.1923 20.9252C22.348 20.7353 22.5562 20.5878 22.7127 20.3985C22.2593 19.935 21.6827 19.6443 21.0268 19.6379C20.9721 19.6369 20.9174 19.6389 20.8629 19.6436ZM20.955 21.0503C20.7513 21.0719 20.5889 21.1352 20.4561 21.2978C20.3403 21.4395 20.2892 21.6274 20.3076 21.8088C20.3173 21.9004 20.3449 21.9893 20.3891 22.0702C20.4332 22.1512 20.4929 22.2226 20.5647 22.2804C20.6978 22.3875 20.8712 22.4355 21.0406 22.4295C21.2451 22.403 21.4181 22.3324 21.5477 22.1645C21.6045 22.0916 21.6462 22.008 21.6703 21.9187C21.6943 21.8294 21.7002 21.7362 21.6877 21.6446C21.6618 21.4576 21.563 21.2885 21.4127 21.1741C21.2817 21.0744 21.117 21.0402 20.955 21.0503Z" fill="#B2F861"/>
<path d="M21.6118 25.7139C21.6979 25.7041 21.7821 25.7194 21.8564 25.7651C21.9393 25.8161 22.0043 25.8984 22.0253 25.9943C22.0476 26.0957 22.0211 26.2023 21.9625 26.2869C21.9021 26.3741 21.8298 26.4192 21.7271 26.4384C21.6349 26.4441 21.5489 26.4311 21.4696 26.3802C21.3866 26.3269 21.325 26.2427 21.3057 26.1453C21.296 26.0965 21.2966 26.0463 21.3073 25.9977C21.3181 25.9491 21.3388 25.9033 21.3681 25.8631C21.4288 25.7784 21.5106 25.7316 21.6118 25.7139Z" fill="#B2F861"/>
<path d="M20.3442 25.7144C20.4304 25.7189 20.5063 25.7408 20.5747 25.7962C20.6501 25.8573 20.7023 25.9494 20.7089 26.0469C20.7155 26.1478 20.6819 26.2472 20.6154 26.3233C20.5384 26.4105 20.4501 26.438 20.3386 26.4466C20.254 26.439 20.1778 26.4197 20.1093 26.366C20.0706 26.336 20.0385 26.2984 20.015 26.2554C19.9914 26.2125 19.977 26.1652 19.9725 26.1164C19.9637 26.0186 19.9923 25.9189 20.0572 25.8444C20.1344 25.7559 20.2304 25.7215 20.3442 25.7144Z" fill="#B2F861"/>
<path d="M26.9287 13.0361C26.9934 13.0714 27.0534 13.1213 27.113 13.1647C27.109 13.1661 27.105 13.1677 27.101 13.1689C27.0865 13.1732 27.0821 13.1733 27.0683 13.1693C27.0629 13.1782 27.0582 13.1871 27.0534 13.1964C27.0475 13.2076 27.0418 13.2168 27.0343 13.2269C27.0022 13.1618 26.9633 13.0999 26.9287 13.0361Z" fill="#B2F861"/>
</g>
<path d="M133.977 14.234H136.011V26.834H134.265L127.731 17.834V26.834H125.697V14.234H127.569L133.977 23.09V14.234Z" fill="#1F1F1F"/>
<path d="M119.285 14.234C120.089 14.234 120.815 14.414 121.463 14.774C122.123 15.134 122.639 15.632 123.011 16.268C123.383 16.904 123.569 17.612 123.569 18.392C123.569 19.58 123.161 20.57 122.345 21.362C121.529 22.154 120.509 22.55 119.285 22.55H116.693V26.834H114.623V14.234H119.285ZM119.177 20.588C119.513 20.588 119.819 20.534 120.095 20.426C120.383 20.318 120.629 20.168 120.833 19.976C121.037 19.784 121.193 19.55 121.301 19.274C121.421 18.998 121.481 18.704 121.481 18.392C121.481 17.972 121.379 17.6 121.175 17.276C120.983 16.94 120.713 16.676 120.365 16.484C120.017 16.292 119.621 16.196 119.177 16.196H116.693V20.588H119.177Z" fill="#1F1F1F"/>
<path d="M110.439 14.234H112.707L107.793 26.834H105.867L100.845 14.234H103.131L106.821 23.882L110.439 14.234Z" fill="#1F1F1F"/>
<path d="M92.9143 14.234H94.9483V26.834H93.2023L86.6683 17.834V26.834H84.6343V14.234H86.5063L92.9143 23.09V14.234Z" fill="#1F1F1F"/>
<path d="M75.5951 27.068C73.6871 27.068 72.1031 26.45 70.8431 25.214C69.5831 23.966 68.9531 22.406 68.9531 20.534C68.9531 18.662 69.5831 17.108 70.8431 15.872C72.1031 14.624 73.6871 14 75.5951 14C77.5031 14 79.0871 14.624 80.3471 15.872C81.6071 17.108 82.2371 18.662 82.2371 20.534C82.2371 21.758 81.9491 22.874 81.3731 23.882C80.8091 24.878 80.0171 25.658 78.9971 26.222C77.9891 26.786 76.8551 27.068 75.5951 27.068ZM72.3551 23.792C73.2191 24.656 74.2991 25.088 75.5951 25.088C76.9031 25.088 77.9831 24.656 78.8351 23.792C79.6991 22.916 80.1311 21.83 80.1311 20.534C80.1311 19.238 79.6991 18.158 78.8351 17.294C77.9831 16.418 76.9031 15.98 75.5951 15.98C74.2991 15.98 73.2191 16.418 72.3551 17.294C71.4911 18.158 71.0591 19.238 71.0591 20.534C71.0591 21.83 71.4911 22.916 72.3551 23.792Z" fill="#1F1F1F"/>
<path d="M62.7891 27.032C61.8411 27.032 61.0071 26.864 60.2871 26.528C59.5791 26.192 59.0271 25.712 58.6311 25.088C58.2351 24.452 58.0371 23.714 58.0371 22.874H60.1251C60.1251 23.546 60.3711 24.08 60.8631 24.476C61.3671 24.86 62.0031 25.052 62.7711 25.052C63.4671 25.052 64.0551 24.884 64.5351 24.548C65.0151 24.2 65.2551 23.75 65.2551 23.198C65.2551 22.994 65.2191 22.808 65.1471 22.64C65.0871 22.472 64.9791 22.328 64.8231 22.208C64.6791 22.088 64.5351 21.986 64.3911 21.902C64.2591 21.806 64.0551 21.716 63.7791 21.632C63.5151 21.548 63.2991 21.488 63.1311 21.452C62.9631 21.404 62.7111 21.338 62.3751 21.254C62.0031 21.17 61.7211 21.104 61.5291 21.056C61.3371 20.996 61.0671 20.912 60.7191 20.804C60.3831 20.684 60.1191 20.57 59.9271 20.462C59.7471 20.354 59.5311 20.21 59.2791 20.03C59.0271 19.838 58.8351 19.64 58.7031 19.436C58.5831 19.22 58.4751 18.962 58.3791 18.662C58.2831 18.362 58.2351 18.026 58.2351 17.654C58.2351 16.526 58.6311 15.644 59.4231 15.008C60.2271 14.372 61.3011 14.054 62.6451 14.054C64.0131 14.054 65.0811 14.402 65.8491 15.098C66.6171 15.782 67.0011 16.718 67.0011 17.906H64.9491C64.9491 17.306 64.7271 16.838 64.2831 16.502C63.8511 16.154 63.2931 15.98 62.6091 15.98C61.9491 15.98 61.3971 16.124 60.9531 16.412C60.5211 16.688 60.3051 17.078 60.3051 17.582C60.3051 17.798 60.3591 17.996 60.4671 18.176C60.5751 18.356 60.7011 18.506 60.8451 18.626C60.9891 18.734 61.2051 18.842 61.4931 18.95C61.7811 19.058 62.0211 19.142 62.2131 19.202C62.4171 19.25 62.7111 19.322 63.0951 19.418C63.3951 19.49 63.6171 19.544 63.7611 19.58C63.9171 19.616 64.1391 19.682 64.4271 19.778C64.7151 19.862 64.9371 19.94 65.0931 20.012C65.2491 20.072 65.4471 20.162 65.6871 20.282C65.9271 20.402 66.1131 20.522 66.2451 20.642C66.3771 20.762 66.5211 20.912 66.6771 21.092C66.8451 21.272 66.9711 21.464 67.0551 21.668C67.1391 21.86 67.2111 22.088 67.2711 22.352C67.3311 22.604 67.3611 22.874 67.3611 23.162C67.3611 24.386 66.9291 25.34 66.0651 26.024C65.2011 26.696 64.1091 27.032 62.7891 27.032Z" fill="#1F1F1F"/>
<path d="M53.5737 26.834V14.234H55.6437V26.834H53.5737Z" fill="#1F1F1F"/>
<path d="M49.2617 20.264C49.8137 20.54 50.2457 20.948 50.5577 21.488C50.8817 22.016 51.0437 22.622 51.0437 23.306C51.0437 24.29 50.6657 25.124 49.9097 25.808C49.1657 26.492 48.2537 26.834 47.1737 26.834H41.9897V14.234H47.0657C48.1217 14.234 48.9917 14.546 49.6757 15.17C50.3717 15.782 50.7197 16.55 50.7197 17.474C50.7197 18.026 50.5877 18.56 50.3237 19.076C50.0597 19.58 49.7057 19.976 49.2617 20.264ZM48.6677 17.78C48.6677 17.3 48.4997 16.91 48.1637 16.61C47.8397 16.298 47.4317 16.142 46.9397 16.142H44.0237V19.418H46.9397C47.4437 19.418 47.8577 19.262 48.1817 18.95C48.5057 18.638 48.6677 18.248 48.6677 17.78ZM47.0477 24.854C47.5997 24.854 48.0497 24.686 48.3977 24.35C48.7577 24.014 48.9377 23.588 48.9377 23.072C48.9377 22.556 48.7577 22.13 48.3977 21.794C48.0497 21.458 47.5997 21.29 47.0477 21.29H44.0237V24.854H47.0477Z" fill="#1F1F1F"/>
<path d="M150.274 14.4C150.958 14.4 151.576 14.49 152.128 14.67C152.692 14.85 153.166 15.114 153.55 15.462C153.946 15.798 154.246 16.206 154.45 16.686C154.666 17.166 154.774 17.712 154.774 18.324C154.774 18.936 154.666 19.494 154.45 19.998C154.246 20.502 153.946 20.934 153.55 21.294C153.154 21.642 152.668 21.918 152.092 22.122C151.528 22.314 150.886 22.41 150.166 22.41H148.888V27H146.476V14.4H150.274ZM150.04 20.322C150.82 20.322 151.396 20.136 151.768 19.764C152.14 19.392 152.326 18.936 152.326 18.396C152.326 18.132 152.278 17.886 152.182 17.658C152.098 17.418 151.96 17.214 151.768 17.046C151.588 16.866 151.348 16.728 151.048 16.632C150.76 16.524 150.412 16.47 150.004 16.47H148.888V20.322H150.04ZM160.664 14.4C161.336 14.4 161.942 14.49 162.482 14.67C163.034 14.838 163.502 15.084 163.886 15.408C164.27 15.732 164.564 16.134 164.768 16.614C164.984 17.082 165.092 17.616 165.092 18.216C165.092 19.056 164.888 19.776 164.48 20.376C164.072 20.976 163.526 21.426 162.842 21.726L166.406 26.622V27H163.796L160.232 22.104H159.224V27H156.812V14.4H160.664ZM160.592 20.034C161.24 20.034 161.738 19.866 162.086 19.53C162.434 19.194 162.608 18.762 162.608 18.234C162.608 17.73 162.44 17.31 162.104 16.974C161.768 16.638 161.276 16.47 160.628 16.47H159.224V20.034H160.592ZM168.009 14.4H175.029V16.47H170.421V19.35H174.219V21.366H170.421V24.93H175.209V27H168.009V14.4ZM178.421 14.4H180.383L183.911 22.896L187.277 14.4H189.221L191.021 27H188.681L187.565 18.972L184.307 27.018H183.407L180.077 19.062L179.069 27H176.801L178.421 14.4ZM195.734 27H193.322V14.4H195.734V27ZM203.507 27.18C201.863 27.18 200.615 26.724 199.763 25.812C198.923 24.888 198.503 23.628 198.503 22.032V14.4H200.915V21.816C200.915 22.908 201.137 23.706 201.581 24.21C202.037 24.702 202.667 24.948 203.471 24.948C204.275 24.948 204.905 24.696 205.361 24.192C205.817 23.688 206.045 22.938 206.045 21.942V14.4H208.367V21.942C208.367 23.61 207.935 24.9 207.071 25.812C206.219 26.724 205.031 27.18 203.507 27.18ZM211.96 14.4H213.922L217.45 22.896L220.816 14.4H222.76L224.56 27H222.22L221.104 18.972L217.846 27.018H216.946L213.616 19.062L212.608 27H210.34L211.96 14.4Z" fill="#1F1F1F"/>
<defs>
<clipPath id="clip0_383_5151">
<rect width="16" height="16" fill="white" transform="translate(13 13)"/>
</clipPath>
</defs>
</svg>
