<svg width="172" height="42" viewBox="0 0 172 42" fill="none" xmlns="http://www.w3.org/2000/svg">
<rect y="8" width="26" height="26" rx="13" fill="#B2F861"/>
<g clip-path="url(#clip0_100_3594)">
<path d="M5 13H21V16.2613V16.7529V29H13.2548H12.7307H5V16.7793V16.1975V13ZM5 13V16.1975C5.02549 16.1574 5.05879 15.7968 5.07566 15.7115C5.25893 14.7849 5.83949 13.9466 6.57402 13.3662C6.73063 13.2424 6.90639 13.1408 7.07228 13.0297C6.82373 13.4145 6.60575 13.9984 6.52484 14.452C6.40833 15.1054 6.51616 15.7401 6.90129 16.2887C7.11107 16.5876 7.4223 16.8845 7.76505 17.0209C7.86206 17.0595 7.96316 17.0798 8.06561 17.0979C8.18976 16.8337 8.45527 16.5308 8.66248 16.3259C9.24884 15.7462 10.077 15.3642 10.8998 15.2983C11.0958 15.2826 11.2947 15.2917 11.4911 15.2931L12.3513 15.2948L14.5698 15.2924C14.8034 15.2938 15.0299 15.2977 15.2616 15.3312C16.1002 15.4581 16.8756 15.8523 17.4721 16.4553C17.5825 16.5687 17.6856 16.6889 17.7809 16.8152C17.8438 16.8998 17.9007 17.0028 17.9752 17.0764C17.9771 17.0784 17.9791 17.0803 17.9812 17.0822C18.097 17.0683 18.2012 17.0302 18.3059 16.9798C18.8145 16.7354 19.2052 16.248 19.3881 15.7194C19.6981 14.8237 19.4266 14.0379 19.0344 13.2269C19.0419 13.2168 19.0477 13.2076 19.0535 13.1964C19.0584 13.1871 19.063 13.1782 19.0684 13.1693C19.0823 13.1733 19.0866 13.1732 19.1011 13.1689C19.1052 13.1677 19.1091 13.1661 19.1131 13.1647C20.0066 13.7543 20.7034 14.7101 20.9187 15.7654C20.9452 15.8957 20.9616 16.1544 21 16.2613V13H5ZM18.4483 19.9901C18.714 20.1268 18.9758 20.2709 19.2402 20.4102C19.3921 20.4903 19.6788 20.6272 19.803 20.7269C19.8447 20.7604 19.8713 20.8009 19.887 20.8521C19.9101 20.928 19.9062 21.0109 19.9023 21.0891C19.8876 21.3803 19.8097 21.6394 19.667 21.8945C19.4342 22.3106 19.0194 22.6255 18.5614 22.752C18.1812 22.8556 17.7772 22.8289 17.4138 22.6763C17.2996 22.6275 17.1959 22.5634 17.0866 22.5055C17.0238 22.6578 16.9758 22.817 16.9214 22.9727C16.8369 23.2137 16.7497 23.4538 16.6597 23.6928C16.478 24.175 16.3015 24.659 16.1302 25.145C16.0669 25.3251 15.9941 25.5037 15.9384 25.6862C15.8808 25.8749 15.9031 26.0863 15.9023 26.2822C15.9028 26.4142 15.8929 26.5461 15.8726 26.6766C15.8017 27.1199 15.5907 27.5463 15.2545 27.8483C15.0619 28.0212 14.8016 28.1938 14.5915 28.3509C14.3474 28.5333 14.1177 28.7362 13.8333 28.8555C13.7426 28.8935 13.6486 28.9228 13.5524 28.9431C13.4698 28.96 13.3238 28.9632 13.2548 29H21V16.7529C20.9992 16.7552 20.9984 16.7576 20.9977 16.7599C20.959 16.8815 20.9552 17.0217 20.937 17.1485C20.9173 17.2867 20.8824 17.4249 20.8427 17.5586C20.5398 18.5789 19.8013 19.3173 18.8787 19.8068C18.7453 19.8775 18.5935 19.9492 18.4483 19.9901ZM5 16.7793V29H12.7307C12.6589 28.9722 12.5722 28.9666 12.4963 28.9523C12.3488 28.9245 12.2011 28.8798 12.0659 28.8139C11.8338 28.7009 11.6288 28.5138 11.4223 28.3594C11.2191 28.2073 10.9968 28.0677 10.8063 27.9007C10.4416 27.5813 10.1869 27.094 10.1187 26.6154C10.0968 26.4617 10.0979 26.3109 10.099 26.1562C10.1002 25.992 10.1131 25.833 10.0609 25.6748C9.98708 25.4509 9.904 25.2302 9.82611 25.0077L9.455 23.953C9.2751 23.4655 9.09907 22.9765 8.92693 22.4862C8.83125 22.5478 8.73507 22.6085 8.63219 22.6575C8.21083 22.8584 7.71031 22.854 7.27618 22.6968C6.84145 22.5395 6.44095 22.1762 6.24866 21.7572C6.14444 21.5302 6.02681 21.061 6.12339 20.8182C6.1463 20.7606 6.17747 20.7171 6.22674 20.6799C6.36282 20.5772 6.54844 20.5033 6.70125 20.4221C6.97599 20.276 7.24877 20.1142 7.53251 19.9865C7.4738 19.9714 7.41662 19.9539 7.36011 19.9318C6.83654 19.724 6.36619 19.4015 5.98362 18.9881C5.60105 18.5746 5.31599 18.0807 5.14938 17.5426C5.11433 17.4282 5.08682 17.3116 5.06703 17.1936C5.0525 17.1077 5.03502 16.8499 5.00565 16.79C5.00387 16.7864 5.00188 16.7829 5 16.7793ZM12.2771 24.9653C11.9855 24.975 11.709 25.0922 11.5081 25.3064C11.309 25.5186 11.1894 25.7959 11.2007 26.0891C11.2122 26.3889 11.335 26.6837 11.5572 26.889C11.6869 27.009 11.8436 27.108 12.0136 27.1592C12.3128 27.2494 12.7025 27.2182 13.0172 27.2181C13.2462 27.218 13.477 27.2233 13.7059 27.2161C14.0284 27.1919 14.2972 27.0714 14.5106 26.8245C14.7073 26.597 14.8083 26.3155 14.7845 26.0146C14.7607 25.7113 14.6279 25.4277 14.395 25.2295C14.2705 25.1235 14.1156 25.0336 13.9561 24.9935C13.7283 24.9363 13.2284 24.9595 12.9741 24.9604C12.7424 24.9613 12.5083 24.953 12.2771 24.9653ZM12.9691 18.1834C12.1944 18.1957 11.4623 18.4279 10.8347 18.885C10.6761 19.0005 10.523 19.1254 10.3862 19.2663C10.3438 19.3096 10.303 19.3543 10.2638 19.4004C10.3622 19.5007 10.4617 19.6 10.562 19.6983C10.6362 19.77 10.7162 19.8394 10.7848 19.9164C11.2448 19.3546 11.9775 19.0012 12.6933 18.9272C12.8122 18.9149 12.9322 18.9146 13.0516 18.9158C13.6784 18.9343 14.2742 19.112 14.7734 19.5023C14.9404 19.6329 15.072 19.7714 15.2275 19.9112L15.2338 19.9027C15.3177 19.7922 15.6997 19.4799 15.7252 19.4048C15.6884 19.3338 15.6052 19.267 15.548 19.2111C15.1455 18.8228 14.6604 18.5305 14.1291 18.3561C13.7599 18.2383 13.3569 18.1669 12.9691 18.1834ZM12.8629 19.6436C12.2478 19.693 11.7189 19.9489 11.2966 20.4001C11.4025 20.5225 11.7103 20.8367 11.8325 20.9187C12.0807 20.613 12.4179 20.3993 12.8142 20.3572C12.9361 20.3447 13.0591 20.3456 13.1808 20.3599C13.4709 20.3908 13.7441 20.5117 13.9621 20.7056C14.0409 20.7761 14.1116 20.8573 14.1923 20.9252C14.348 20.7353 14.5562 20.5878 14.7127 20.3985C14.2593 19.935 13.6827 19.6443 13.0268 19.6379C12.9721 19.6369 12.9174 19.6389 12.8629 19.6436ZM12.955 21.0503C12.7513 21.0719 12.5889 21.1352 12.4561 21.2978C12.3403 21.4395 12.2892 21.6274 12.3076 21.8088C12.3173 21.9004 12.3449 21.9893 12.3891 22.0702C12.4332 22.1512 12.4929 22.2226 12.5647 22.2804C12.6978 22.3875 12.8712 22.4355 13.0406 22.4295C13.2451 22.403 13.4181 22.3324 13.5477 22.1645C13.6045 22.0916 13.6462 22.008 13.6703 21.9187C13.6943 21.8294 13.7002 21.7362 13.6877 21.6446C13.6618 21.4576 13.563 21.2885 13.4127 21.1741C13.2817 21.0744 13.117 21.0402 12.955 21.0503Z" fill="#010101"/>
<path d="M13.6118 25.7139C13.6979 25.7041 13.7821 25.7194 13.8564 25.7651C13.9393 25.8161 14.0043 25.8984 14.0253 25.9943C14.0476 26.0957 14.0211 26.2023 13.9625 26.2869C13.9021 26.3741 13.8298 26.4192 13.7271 26.4384C13.6349 26.4441 13.5489 26.4311 13.4696 26.3802C13.3866 26.3269 13.325 26.2427 13.3057 26.1453C13.296 26.0965 13.2966 26.0463 13.3073 25.9977C13.3181 25.9491 13.3388 25.9033 13.3681 25.8631C13.4288 25.7784 13.5106 25.7316 13.6118 25.7139Z" fill="#010101"/>
<path d="M12.344 25.7144C12.4302 25.7189 12.5061 25.7408 12.5744 25.7962C12.6499 25.8572 12.702 25.9494 12.7086 26.0469C12.7153 26.1478 12.6817 26.2471 12.6152 26.3233C12.5382 26.4104 12.4499 26.438 12.3383 26.4466C12.2538 26.439 12.1776 26.4197 12.1091 26.366C12.0704 26.336 12.0382 26.2984 12.0147 26.2554C11.9912 26.2125 11.9767 26.1652 11.9723 26.1164C11.9635 26.0186 11.9921 25.9189 12.057 25.8444C12.1341 25.7558 12.2302 25.7215 12.344 25.7144Z" fill="#010101"/>
<path d="M18.9287 13.0361C18.9934 13.0715 19.0534 13.1213 19.113 13.1648C19.109 13.1661 19.105 13.1677 19.101 13.1689C19.0865 13.1732 19.0821 13.1733 19.0683 13.1693C19.0629 13.1782 19.0582 13.1871 19.0534 13.1964C19.0475 13.2076 19.0418 13.2168 19.0343 13.2269C19.0022 13.1618 18.9633 13.1 18.9287 13.0361Z" fill="#010101"/>
</g>
<path d="M127.977 14.234H130.011V26.834H128.265L121.731 17.834V26.834H119.697V14.234H121.569L127.977 23.09V14.234Z" fill="#B2F861"/>
<path d="M113.285 14.234C114.089 14.234 114.815 14.414 115.463 14.774C116.123 15.134 116.639 15.632 117.011 16.268C117.383 16.904 117.569 17.612 117.569 18.392C117.569 19.58 117.161 20.57 116.345 21.362C115.529 22.154 114.509 22.55 113.285 22.55H110.693V26.834H108.623V14.234H113.285ZM113.177 20.588C113.513 20.588 113.819 20.534 114.095 20.426C114.383 20.318 114.629 20.168 114.833 19.976C115.037 19.784 115.193 19.55 115.301 19.274C115.421 18.998 115.481 18.704 115.481 18.392C115.481 17.972 115.379 17.6 115.175 17.276C114.983 16.94 114.713 16.676 114.365 16.484C114.017 16.292 113.621 16.196 113.177 16.196H110.693V20.588H113.177Z" fill="#B2F861"/>
<path d="M104.439 14.234H106.707L101.793 26.834H99.8667L94.8447 14.234H97.1307L100.821 23.882L104.439 14.234Z" fill="#B2F861"/>
<path d="M86.9143 14.234H88.9483V26.834H87.2023L80.6683 17.834V26.834H78.6343V14.234H80.5063L86.9143 23.09V14.234Z" fill="#B2F861"/>
<path d="M69.5951 27.068C67.6871 27.068 66.1031 26.45 64.8431 25.214C63.5831 23.966 62.9531 22.406 62.9531 20.534C62.9531 18.662 63.5831 17.108 64.8431 15.872C66.1031 14.624 67.6871 14 69.5951 14C71.5031 14 73.0871 14.624 74.3471 15.872C75.6071 17.108 76.2371 18.662 76.2371 20.534C76.2371 21.758 75.9491 22.874 75.3731 23.882C74.8091 24.878 74.0171 25.658 72.9971 26.222C71.9891 26.786 70.8551 27.068 69.5951 27.068ZM66.3551 23.792C67.2191 24.656 68.2991 25.088 69.5951 25.088C70.9031 25.088 71.9831 24.656 72.8351 23.792C73.6991 22.916 74.1311 21.83 74.1311 20.534C74.1311 19.238 73.6991 18.158 72.8351 17.294C71.9831 16.418 70.9031 15.98 69.5951 15.98C68.2991 15.98 67.2191 16.418 66.3551 17.294C65.4911 18.158 65.0591 19.238 65.0591 20.534C65.0591 21.83 65.4911 22.916 66.3551 23.792Z" fill="#B2F861"/>
<path d="M56.7891 27.032C55.8411 27.032 55.0071 26.864 54.2871 26.528C53.5791 26.192 53.0271 25.712 52.6311 25.088C52.2351 24.452 52.0371 23.714 52.0371 22.874H54.1251C54.1251 23.546 54.3711 24.08 54.8631 24.476C55.3671 24.86 56.0031 25.052 56.7711 25.052C57.4671 25.052 58.0551 24.884 58.5351 24.548C59.0151 24.2 59.2551 23.75 59.2551 23.198C59.2551 22.994 59.2191 22.808 59.1471 22.64C59.0871 22.472 58.9791 22.328 58.8231 22.208C58.6791 22.088 58.5351 21.986 58.3911 21.902C58.2591 21.806 58.0551 21.716 57.7791 21.632C57.5151 21.548 57.2991 21.488 57.1311 21.452C56.9631 21.404 56.7111 21.338 56.3751 21.254C56.0031 21.17 55.7211 21.104 55.5291 21.056C55.3371 20.996 55.0671 20.912 54.7191 20.804C54.3831 20.684 54.1191 20.57 53.9271 20.462C53.7471 20.354 53.5311 20.21 53.2791 20.03C53.0271 19.838 52.8351 19.64 52.7031 19.436C52.5831 19.22 52.4751 18.962 52.3791 18.662C52.2831 18.362 52.2351 18.026 52.2351 17.654C52.2351 16.526 52.6311 15.644 53.4231 15.008C54.2271 14.372 55.3011 14.054 56.6451 14.054C58.0131 14.054 59.0811 14.402 59.8491 15.098C60.6171 15.782 61.0011 16.718 61.0011 17.906H58.9491C58.9491 17.306 58.7271 16.838 58.2831 16.502C57.8511 16.154 57.2931 15.98 56.6091 15.98C55.9491 15.98 55.3971 16.124 54.9531 16.412C54.5211 16.688 54.3051 17.078 54.3051 17.582C54.3051 17.798 54.3591 17.996 54.4671 18.176C54.5751 18.356 54.7011 18.506 54.8451 18.626C54.9891 18.734 55.2051 18.842 55.4931 18.95C55.7811 19.058 56.0211 19.142 56.2131 19.202C56.4171 19.25 56.7111 19.322 57.0951 19.418C57.3951 19.49 57.6171 19.544 57.7611 19.58C57.9171 19.616 58.1391 19.682 58.4271 19.778C58.7151 19.862 58.9371 19.94 59.0931 20.012C59.2491 20.072 59.4471 20.162 59.6871 20.282C59.9271 20.402 60.1131 20.522 60.2451 20.642C60.3771 20.762 60.5211 20.912 60.6771 21.092C60.8451 21.272 60.9711 21.464 61.0551 21.668C61.1391 21.86 61.2111 22.088 61.2711 22.352C61.3311 22.604 61.3611 22.874 61.3611 23.162C61.3611 24.386 60.9291 25.34 60.0651 26.024C59.2011 26.696 58.1091 27.032 56.7891 27.032Z" fill="#B2F861"/>
<path d="M47.5737 26.834V14.234H49.6437V26.834H47.5737Z" fill="#B2F861"/>
<path d="M43.2617 20.264C43.8137 20.54 44.2457 20.948 44.5577 21.488C44.8817 22.016 45.0437 22.622 45.0437 23.306C45.0437 24.29 44.6657 25.124 43.9097 25.808C43.1657 26.492 42.2537 26.834 41.1737 26.834H35.9897V14.234H41.0657C42.1217 14.234 42.9917 14.546 43.6757 15.17C44.3717 15.782 44.7197 16.55 44.7197 17.474C44.7197 18.026 44.5877 18.56 44.3237 19.076C44.0597 19.58 43.7057 19.976 43.2617 20.264ZM42.6677 17.78C42.6677 17.3 42.4997 16.91 42.1637 16.61C41.8397 16.298 41.4317 16.142 40.9397 16.142H38.0237V19.418H40.9397C41.4437 19.418 41.8577 19.262 42.1817 18.95C42.5057 18.638 42.6677 18.248 42.6677 17.78ZM41.0477 24.854C41.5997 24.854 42.0497 24.686 42.3977 24.35C42.7577 24.014 42.9377 23.588 42.9377 23.072C42.9377 22.556 42.7577 22.13 42.3977 21.794C42.0497 21.458 41.5997 21.29 41.0477 21.29H38.0237V24.854H41.0477Z" fill="#B2F861"/>
<defs>
<clipPath id="clip0_100_3594">
<rect width="16" height="16" fill="white" transform="translate(5 13)"/>
</clipPath>
</defs>
</svg>
