<svg width="41" height="15" viewBox="0 0 41 15" fill="none" xmlns="http://www.w3.org/2000/svg">
<g clip-path="url(#clip0_328_4469)">
<path d="M17.5221 7.67596C17.5221 9.57957 16.0529 10.9823 14.25 10.9823C12.4471 10.9823 10.9779 9.57957 10.9779 7.67596C10.9779 5.75895 12.4471 4.36963 14.25 4.36963C16.0529 4.36963 17.5221 5.75895 17.5221 7.67596ZM16.0897 7.67596C16.0897 6.4864 15.2382 5.67249 14.25 5.67249C13.2618 5.67249 12.4103 6.4864 12.4103 7.67596C12.4103 8.8536 13.2618 9.67944 14.25 9.67944C15.2382 9.67944 16.0897 8.85211 16.0897 7.67596Z" fill="#EA4335"/>
<path d="M24.5809 7.67596C24.5809 9.57957 23.1118 10.9823 21.3088 10.9823C19.5059 10.9823 18.0368 9.57957 18.0368 7.67596C18.0368 5.76044 19.5059 4.36963 21.3088 4.36963C23.1118 4.36963 24.5809 5.75895 24.5809 7.67596ZM23.1485 7.67596C23.1485 6.4864 22.2971 5.67249 21.3088 5.67249C20.3206 5.67249 19.4691 6.4864 19.4691 7.67596C19.4691 8.8536 20.3206 9.67944 21.3088 9.67944C22.2971 9.67944 23.1485 8.85211 23.1485 7.67596Z" fill="#FBBC05"/>
<path d="M31.3456 4.56938V10.5053C31.3456 12.947 29.925 13.9443 28.2456 13.9443C26.6647 13.9443 25.7132 12.8725 25.3544 11.996L26.6015 11.4698C26.8235 12.0079 27.3677 12.6429 28.2441 12.6429C29.3191 12.6429 29.9853 11.9706 29.9853 10.705V10.2295H29.9353C29.6147 10.6305 28.9971 10.9808 28.2177 10.9808C26.5868 10.9808 25.0927 9.54081 25.0927 7.68789C25.0927 5.82155 26.5868 4.36963 28.2177 4.36963C28.9956 4.36963 29.6132 4.71994 29.9353 5.10901H29.9853V4.57087H31.3456V4.56938ZM30.0868 7.68789C30.0868 6.52367 29.3206 5.67249 28.3456 5.67249C27.3574 5.67249 26.5294 6.52367 26.5294 7.68789C26.5294 8.84019 27.3574 9.67944 28.3456 9.67944C29.3206 9.67944 30.0868 8.84019 30.0868 7.68789Z" fill="#4285F4"/>
<path d="M33.5882 1.09033V10.7798H32.1912V1.09033H33.5882Z" fill="#34A853"/>
<path d="M39.0323 8.76419L40.1441 9.51549C39.7853 10.0536 38.9206 10.9808 37.4265 10.9808C35.5735 10.9808 34.1897 9.52891 34.1897 7.6745C34.1897 5.70829 35.5853 4.36816 37.2662 4.36816C38.9588 4.36816 39.7868 5.73363 40.0573 6.47152L40.2059 6.84717L35.8456 8.67773C36.1794 9.34108 36.6985 9.67947 37.4265 9.67947C38.1559 9.67947 38.6618 9.31574 39.0323 8.76419ZM35.6103 7.57462L38.525 6.34779C38.3647 5.93487 37.8823 5.64717 37.3147 5.64717C36.5868 5.64717 35.5735 6.2986 35.6103 7.57462Z" fill="#EA4335"/>
<path d="M5.68971 6.81575V5.41301H10.3529C10.3985 5.65749 10.4221 5.94668 10.4221 6.25972C10.4221 7.31214 10.1382 8.61351 9.22354 9.54072C8.33383 10.4798 7.19707 10.9807 5.69118 10.9807C2.90001 10.9807 0.552948 8.67612 0.552948 5.8468C0.552948 3.01749 2.90001 0.712891 5.69118 0.712891C7.2353 0.712891 8.3353 1.32705 9.16177 2.12755L8.1853 3.11736C7.59265 2.55388 6.78971 2.11562 5.68971 2.11562C3.65148 2.11562 2.05736 3.78072 2.05736 5.8468C2.05736 7.91289 3.65148 9.57798 5.68971 9.57798C7.01177 9.57798 7.76471 9.03985 8.24707 8.5509C8.63824 8.15438 8.8956 7.58792 8.99707 6.81426L5.68971 6.81575Z" fill="#4285F4"/>
</g>
<defs>
<clipPath id="clip0_328_4469">
<rect width="40" height="13.7143" fill="white" transform="translate(0.5 0.643066)"/>
</clipPath>
</defs>
</svg>
