<svg width="65" height="65" viewBox="0 0 65 65" fill="none" xmlns="http://www.w3.org/2000/svg">
<g clip-path="url(#clip0_92_1042)">
<path d="M65 29.5747C65 24.9435 61.2523 21.1857 56.6414 21.1857H42.0062L45.3273 16.138C47.8766 12.2786 48.4961 6.44895 46.7086 3.12783C45.8047 1.45209 44.3523 0.527832 42.6156 0.527832C41.6305 0.527832 40.6859 0.954435 40.0359 1.71615L33.8508 8.90675C30.5602 12.7458 26.9141 16.3107 23.0039 19.52C22.4656 19.9567 22.3843 20.7388 22.8211 21.2771C23.2679 21.8052 24.05 21.8865 24.5883 21.4497C28.6101 18.149 32.368 14.4826 35.75 10.5318L41.9149 3.3513C42.0977 3.14816 42.3617 3.02629 42.6156 3.02629C42.9102 3.02629 43.8141 3.02629 44.5047 4.31615C45.7031 6.54037 45.4797 11.3748 43.2453 14.7567L38.6445 21.7442C38.3906 22.1302 38.3703 22.6278 38.5836 23.0239C38.8071 23.4302 39.2234 23.6841 39.6805 23.6841H56.6414C59.8711 23.6841 62.5015 26.3247 62.5015 29.5747C62.5015 30.8138 62.0852 32.0224 61.3133 33.0482C60.9781 33.495 60.9781 34.1044 61.3133 34.5513C62.0852 35.577 62.5015 36.7856 62.5015 38.0247C62.5015 39.9442 61.5469 41.7521 59.9524 42.8794C59.475 43.2044 59.2922 43.8239 59.5055 44.3521C59.8 45.0934 59.9422 45.8044 59.9422 46.5153C59.9422 48.4146 58.9875 50.2122 57.393 51.3396C56.9156 51.6646 56.7328 52.2739 56.9461 52.8122C57.3726 53.8888 57.4641 55.1177 57.2102 56.2856C56.6313 58.9161 54.0922 60.8356 51.157 60.8356H30.5195C26.8592 60.8356 23.2167 60.0314 19.8938 58.509V20.2848C19.8938 18.3243 18.2984 16.7289 16.3379 16.7289H3.55593C1.59547 16.7289 0 18.3243 0 20.2848V60.9146C0 62.8751 1.59547 64.4718 3.55593 64.4718H16.3379C18.1961 64.4718 19.7091 63.0323 19.8636 61.2132C23.2368 62.6025 26.8692 63.3341 30.5195 63.3341H51.157C55.2601 63.3341 58.8352 60.5919 59.6476 56.8138C59.9422 55.4935 59.9117 54.092 59.5664 52.8021C61.3844 51.2076 62.4406 48.9224 62.4406 46.5154C62.4406 45.7841 62.3391 45.0529 62.1359 44.3318C63.9438 42.7372 65 40.442 65 38.0248C65 36.5318 64.5937 35.0896 63.8219 33.7997C64.5937 32.5099 65 31.0677 65 29.5747ZM17.3938 60.9146C17.3938 61.4981 16.9202 61.9718 16.3379 61.9718H3.55593C2.97361 61.9718 2.50001 61.4981 2.50001 60.9146V20.2848C2.50001 19.7025 2.97361 19.2289 3.55593 19.2289H16.3379C16.9202 19.2289 17.3938 19.7025 17.3938 20.2848V60.9146Z" fill="#E0E0E0"/>
</g>
<defs>
<clipPath id="clip0_92_1042">
<rect width="65" height="65" fill="white"/>
</clipPath>
</defs>
</svg>
