<svg width="42" height="42" viewBox="0 0 42 42" fill="none" xmlns="http://www.w3.org/2000/svg">
<path fill-rule="evenodd" clip-rule="evenodd" d="M12.6352 0.0346872C12.4192 0.120233 12.3797 0.243216 12.3783 0.834976L12.377 1.4035L13.6191 2.60008L14.8612 3.79665L14.3727 4.19885C13.2969 5.08436 12.2353 6.4008 11.5655 7.6798C10.9643 8.82802 10.4836 10.6274 10.4836 11.7298V12.2117H21.5H32.5164V11.6871C32.5164 10.6851 32.1271 9.12743 31.5908 7.98364C30.868 6.44226 29.7904 5.12902 28.4131 4.1115L27.9677 3.78237L29.1721 2.64014C29.8346 2.01193 30.4354 1.39185 30.5074 1.26221C30.8046 0.726689 30.3347 0.0387921 29.6719 0.0387921C29.3236 0.0387921 29.2752 0.0760644 27.824 1.45859L26.3337 2.87839L25.5306 2.4945C24.3579 1.93394 23.6259 1.77623 21.9592 1.725C20.021 1.6654 18.5791 1.89355 17.074 2.49778L16.5603 2.7041L15.952 2.10101C15.6174 1.76933 15.0189 1.16632 14.622 0.761006L13.9002 0.0240966L13.3323 0.00381845C13.02 -0.00726475 12.7063 0.00660978 12.6352 0.0346872ZM17.7992 7.81945V8.68147H16.8955H15.9918V7.81945V6.95742H16.8955H17.7992V7.81945ZM27.0082 7.81945V8.68147H26.1045H25.2008V7.81945V6.95742H26.1045H27.0082V7.81945ZM5.0873 14.0836C4.23542 14.3739 3.69828 14.8453 3.31314 15.6407L3.125 16.0292V22.7219V29.4146L3.40833 29.9636C3.71644 30.5607 4.15675 30.9777 4.79674 31.2785C5.37166 31.5487 6.40212 31.5413 6.99571 31.2626C7.56925 30.9934 8.12334 30.4487 8.4034 29.8788L8.6332 29.4112V22.7202V16.0292L8.40529 15.5655C7.80017 14.3344 6.30762 13.6678 5.0873 14.0836ZM10.4836 22.9281C10.4836 32.6769 10.463 32.2352 10.9396 32.7225C11.3542 33.1465 11.6772 33.2287 12.9278 33.2287H14.0879L14.1146 36.5762L14.1414 39.9236L14.4247 40.4724C15.4092 42.3791 18.0601 42.5333 19.2387 40.7523C19.6616 40.1134 19.6905 39.8356 19.6916 36.41L19.6926 33.2287H21.5H23.3074L23.3084 36.41C23.3095 39.8356 23.3384 40.1134 23.7613 40.7523C24.9399 42.5333 27.5908 42.3791 28.5753 40.4724L28.8586 39.9236L28.8854 36.5762L28.9121 33.2287H30.0722C31.3228 33.2287 31.6458 33.1465 32.0604 32.7225C32.537 32.2352 32.5164 32.6769 32.5164 22.9281V13.9357H21.5H10.4836V22.9281ZM36.3291 14.0836C35.4772 14.3739 34.9401 14.8453 34.5549 15.6407L34.3668 16.0292V22.7202V29.4112L34.5966 29.8788C34.8767 30.4487 35.4307 30.9934 36.0043 31.2626C36.5979 31.5413 37.6283 31.5487 38.2033 31.2785C38.8432 30.9777 39.2836 30.5607 39.5917 29.9636L39.875 29.4146V22.7219V16.0292L39.6471 15.5655C39.042 14.3344 37.5494 13.6678 36.3291 14.0836Z" fill="#B7B7B7"/>
</svg>
