<svg width="42" height="42" viewBox="0 0 42 42" fill="none" xmlns="http://www.w3.org/2000/svg">
<path d="M23.1162 13.9339V13.5877L22.0404 13.6617C21.7357 13.6809 21.5071 13.7456 21.3532 13.855C21.1994 13.9653 21.1225 14.118 21.1225 14.3133C21.1225 14.5037 21.1983 14.6554 21.3511 14.7678C21.503 14.8812 21.7074 14.9368 21.9625 14.9368C22.1254 14.9368 22.2783 14.9115 22.4189 14.8619C22.5596 14.8123 22.683 14.7425 22.7863 14.6534C22.8895 14.5654 22.9704 14.4601 23.0281 14.3377C23.0868 14.2152 23.1162 14.0806 23.1162 13.9339ZM21 0C9.28149 0 0 9.28149 0 21C0 32.7195 9.28149 42 21 42C32.7185 42 42 32.7195 42 21C42 9.28149 32.7195 0 21 0ZM25.0765 12.4471C25.1757 12.1688 25.3154 11.93 25.4965 11.7317C25.6777 11.5333 25.8953 11.3804 26.1504 11.2732C26.4053 11.1659 26.6897 11.1123 27.0024 11.1123C27.2848 11.1123 27.5398 11.1548 27.7666 11.2388C27.9943 11.3228 28.1886 11.4362 28.3515 11.5789C28.5145 11.7215 28.644 11.8875 28.7392 12.0777C28.8342 12.268 28.8909 12.4695 28.9102 12.6809H28.0671C28.0458 12.5646 28.0074 12.4553 27.9528 12.3551C27.8981 12.2549 27.8263 12.1679 27.7372 12.094C27.6472 12.0201 27.5419 11.9624 27.4215 11.9209C27.3 11.8784 27.1644 11.8581 27.0116 11.8581C26.8324 11.8581 26.6695 11.8946 26.5248 11.9664C26.379 12.0383 26.2546 12.1405 26.1513 12.2721C26.0481 12.4037 25.9682 12.5646 25.9115 12.7528C25.8538 12.942 25.8255 13.1516 25.8255 13.3823C25.8255 13.6212 25.8538 13.8357 25.9115 14.0239C25.9682 14.2132 26.0491 14.3721 26.1543 14.5026C26.2586 14.6332 26.3851 14.7334 26.5319 14.8022C26.6786 14.871 26.8405 14.9064 27.0166 14.9064C27.3051 14.9064 27.5398 14.8387 27.722 14.703C27.9042 14.5674 28.0216 14.3691 28.0763 14.108H28.9203C28.896 14.3387 28.8322 14.5492 28.729 14.7395C28.6258 14.9297 28.4922 15.0917 28.3282 15.2263C28.1633 15.3608 27.97 15.4651 27.7473 15.538C27.5247 15.6108 27.2798 15.6482 27.0136 15.6482C26.6978 15.6482 26.4134 15.5957 26.1574 15.4914C25.9024 15.3872 25.6827 15.2364 25.5006 15.0411C25.3184 14.8457 25.1778 14.6079 25.0785 14.3275C24.9794 14.0472 24.9298 13.7325 24.9298 13.3813C24.9277 13.0382 24.9774 12.7265 25.0765 12.4471ZM13.0807 11.1699H13.9248V11.9199H13.941C13.9926 11.7954 14.0604 11.6831 14.1434 11.5859C14.2264 11.4878 14.3215 11.4048 14.4308 11.3349C14.5391 11.2651 14.6595 11.2124 14.7891 11.176C14.9196 11.1396 15.0573 11.1214 15.201 11.1214C15.5106 11.1214 15.7728 11.1952 15.9853 11.343C16.1988 11.4908 16.3507 11.7033 16.4397 11.9806H16.4609C16.5176 11.847 16.5925 11.7276 16.6847 11.6223C16.7767 11.5171 16.883 11.426 17.0024 11.3512C17.1218 11.2762 17.2534 11.2196 17.3961 11.1801C17.5388 11.1407 17.6886 11.1214 17.8464 11.1214C18.0641 11.1214 18.2614 11.1558 18.4395 11.2257C18.6176 11.2954 18.7695 11.3926 18.8959 11.5192C19.0225 11.6456 19.1196 11.7995 19.1874 11.9796C19.2552 12.1597 19.2896 12.3601 19.2896 12.5807V15.5977H18.4092V12.7923C18.4092 12.5018 18.3343 12.2761 18.1845 12.1172C18.0357 11.9583 17.8222 11.8784 17.5448 11.8784C17.4093 11.8784 17.2848 11.9027 17.1715 11.9502C17.0591 11.9978 16.961 12.0646 16.88 12.1507C16.798 12.2357 16.7342 12.3388 16.6887 12.4583C16.6422 12.5777 16.6189 12.7083 16.6189 12.85V15.5977H15.7505V12.7194C15.7505 12.5919 15.7303 12.4765 15.6908 12.3733C15.6513 12.2701 15.5956 12.1821 15.5218 12.1082C15.4489 12.0343 15.3589 11.9786 15.2546 11.9391C15.1493 11.8997 15.032 11.8794 14.9014 11.8794C14.7658 11.8794 14.6403 11.9047 14.5239 11.9553C14.4086 12.0059 14.3093 12.0758 14.2264 12.1648C14.1434 12.2549 14.0786 12.3601 14.0331 12.4826C13.9885 12.604 13.9157 12.7376 13.9157 12.8814V15.5966H13.0807V11.1699ZM14.9965 32.3612C11.1255 32.3612 8.69755 29.6712 8.69755 25.3781C8.69755 21.085 11.1255 18.3859 14.9965 18.3859C18.8676 18.3859 21.2864 21.085 21.2864 25.3781C21.2864 29.6702 18.8676 32.3612 14.9965 32.3612ZM22.1639 15.5865C22.0212 15.623 21.8754 15.6412 21.7257 15.6412C21.505 15.6412 21.3036 15.6098 21.1205 15.5471C20.9362 15.4843 20.7793 15.3963 20.6478 15.2819C20.5163 15.1675 20.413 15.03 20.3402 14.868C20.2663 14.706 20.2299 14.5259 20.2299 14.3275C20.2299 13.9389 20.3746 13.6353 20.664 13.4167C20.9534 13.1981 21.3724 13.0706 21.922 13.0352L23.1162 12.9664V12.6243C23.1162 12.3693 23.0353 12.1739 22.8733 12.0413C22.7113 11.9088 22.4827 11.842 22.1861 11.842C22.0667 11.842 21.9543 11.8572 21.8512 11.8864C21.7479 11.9169 21.6568 11.9594 21.5779 12.015C21.499 12.0707 21.4332 12.1375 21.3825 12.2154C21.331 12.2923 21.2955 12.3793 21.2763 12.4745H20.4485C20.4535 12.2791 20.5021 12.098 20.5932 11.932C20.6843 11.7661 20.8077 11.6223 20.9645 11.4999C21.1214 11.3774 21.3046 11.2823 21.5171 11.2145C21.7296 11.1466 21.9604 11.1123 22.2104 11.1123C22.4796 11.1123 22.7235 11.1457 22.9421 11.2145C23.1607 11.2833 23.348 11.3795 23.5028 11.5059C23.6577 11.6325 23.7771 11.7842 23.861 11.9624C23.9451 12.1405 23.9876 12.3399 23.9876 12.5595V15.5966H23.1445V14.8589H23.1233C23.0606 14.9783 22.9816 15.0866 22.8854 15.1827C22.7883 15.2789 22.68 15.3619 22.5596 15.4297C22.4381 15.4975 22.3066 15.5501 22.1639 15.5865ZM27.7331 32.3612C24.781 32.3612 22.7741 30.8148 22.6344 28.3869H24.5563C24.7061 29.7744 26.0471 30.6934 27.8839 30.6934C29.6459 30.6934 30.912 29.7744 30.912 28.5185C30.912 27.4316 30.1428 26.7747 28.3626 26.3253L26.628 25.8942C24.1343 25.2759 23.0009 24.1414 23.0009 22.2762C23.0009 19.9799 25.0067 18.3859 27.8658 18.3859C30.659 18.3859 32.6082 19.989 32.6831 22.2944H30.7804C30.6489 20.9069 29.5154 20.0537 27.8273 20.0537C26.1493 20.0537 24.9874 20.916 24.9874 22.1628C24.9874 23.1466 25.7182 23.7284 27.4994 24.1778L28.9618 24.5432C31.7459 25.2182 32.8895 26.3153 32.8895 28.2837C32.8885 30.7956 30.9019 32.3612 27.7331 32.3612ZM14.9965 20.1094C12.3439 20.1094 10.6852 22.1436 10.6852 25.3771C10.6852 28.6014 12.3439 30.6356 14.9965 30.6356C17.64 30.6356 19.3079 28.6014 19.3079 25.3771C19.3088 22.1436 17.64 20.1094 14.9965 20.1094Z" fill="#B7B7B7"/>
</svg>
