<svg width="42" height="43" viewBox="0 0 42 43" fill="none" xmlns="http://www.w3.org/2000/svg">
<path d="M31.5655 23.0631C31.5174 17.8184 35.952 15.2668 36.1547 15.1481C33.6433 11.5632 29.7505 11.0734 28.3825 11.0343C25.1131 10.6975 21.9416 12.9496 20.2761 12.9496C18.5775 12.9496 16.0127 11.0669 13.2486 11.1222C9.69156 11.1759 6.36382 13.1921 4.53887 16.3229C0.772378 22.7067 3.58136 32.0879 7.18999 37.2479C8.99501 39.775 11.1043 42.5967 13.8653 42.4975C16.5663 42.3884 17.5751 40.8116 20.8346 40.8116C24.0643 40.8116 25.0117 42.4975 27.8273 42.434C30.7262 42.3884 32.5513 39.8955 34.2932 37.3455C36.3791 34.449 37.2169 31.5964 37.2502 31.45C37.1821 31.4272 31.6205 29.3492 31.5655 23.0631Z" fill="#B7B7B7"/>
<path d="M25.9216 6.24677C27.4475 4.57698 28.4914 2.30531 28.2016 0C25.9932 0.0855516 23.2314 1.33674 21.641 2.96986C20.2338 4.40893 18.977 6.76771 19.3017 8.98594C21.7824 9.14788 24.3294 7.89058 25.9216 6.24677Z" fill="#B7B7B7"/>
</svg>
