<svg width="78" height="20" viewBox="0 0 78 20" fill="none" xmlns="http://www.w3.org/2000/svg">
<g clip-path="url(#clip0_48_1349)">
<path fill-rule="evenodd" clip-rule="evenodd" d="M7.05837 10.7886H4.19928L5.71817 5.89475L7.05837 10.7886ZM2.85908 15.7355L3.75255 12.7532H7.41576L8.30922 15.7355H11.347L8.13053 4.41687C7.95184 3.67351 7.59445 3.43457 6.79033 3.43457H2.323V4.45227H2.68039C3.21647 4.45227 3.48451 4.62041 3.48451 5.02749C3.48451 5.28413 3.48451 5.45227 3.21647 6.06289L-5.72205e-06 15.7355" fill="#26272C"/>
<path d="M15.1889 15.7355V4.33723C15.1889 3.74431 14.8315 3.43457 14.2061 3.43457H11.4364V4.45227H11.615C12.1511 4.45227 12.4192 4.67351 12.4192 5.15138V15.7355" fill="#26272C"/>
<path d="M20.1923 15.7355V4.33723C20.1923 3.74431 19.8349 3.43457 19.2095 3.43457H16.4398V4.45227H16.6185C17.1545 4.45227 17.4226 4.67351 17.4226 5.15138V15.7355" fill="#26272C"/>
<path fill-rule="evenodd" clip-rule="evenodd" d="M25.2851 4.52251C25.2851 3.70835 24.6596 3.23047 23.6768 3.23047C22.6047 3.23047 22.0686 3.70835 22.0686 4.52251C22.0686 5.35436 22.6047 5.84109 23.6768 5.84109C24.6596 5.84109 25.2851 5.35436 25.2851 4.52251ZM25.1957 15.7349V7.43401C25.1957 6.85879 24.8383 6.52251 24.3023 6.52251H21.5325V7.5225H21.7112C22.2473 7.5225 22.426 7.74374 22.426 8.24817V15.7349" fill="#26272C"/>
<path fill-rule="evenodd" clip-rule="evenodd" d="M31.8074 11.2657V13.1064C31.2713 13.6374 30.6459 13.9383 30.1098 13.9383C29.5737 13.9383 29.3057 13.6816 29.3057 12.9914C29.3057 12.2303 29.4844 11.9383 30.1098 11.6993C30.5565 11.5135 31.0032 11.3984 31.8074 11.2657ZM27.8761 9.06215L28.1442 8.95596C28.8589 8.67277 29.3057 8.56658 29.8417 8.46923C30.1098 8.43384 30.4672 8.39844 30.6459 8.39844C31.5393 8.39844 31.8074 8.69047 31.8074 9.50463V9.73472C30.5565 9.93826 30.1991 10.0091 29.4844 10.1595C29.127 10.248 28.7696 10.363 28.4122 10.5135C27.2507 10.9737 26.7146 11.8586 26.7146 13.248C26.7146 14.9914 27.4294 15.8232 29.0376 15.8232C29.663 15.8232 30.2885 15.6816 30.7352 15.3984C31.1819 15.1949 31.3606 15.0887 31.8967 14.602V14.8852C31.8967 15.4604 32.1648 15.7347 32.7008 15.7347H35.3812V14.7878H35.2919C34.7558 14.7878 34.4878 14.5489 34.4878 14.071V9.54888C34.4878 7.1949 33.6836 6.39844 31.3606 6.39844C30.5565 6.39844 29.8417 6.48693 29.127 6.65507C28.4122 6.82322 28.0548 6.94711 27.2507 7.36304" fill="#26272C"/>
<path fill-rule="evenodd" clip-rule="evenodd" d="M39.5805 15.7356V9.48779C40.2059 8.91257 40.6527 8.69133 41.2781 8.69133C41.9035 8.69133 42.0822 8.95681 42.0822 9.89487V15.7356H44.852V9.45239C44.852 8.16036 44.6733 7.60283 44.3159 7.11611C43.8692 6.63823 43.3331 6.41699 42.529 6.41699C41.4568 6.41699 40.6527 6.80637 39.4018 7.87717V7.38159C39.4018 6.80637 39.1338 6.52319 38.5977 6.52319H35.9173V7.52319H36.0067C36.5427 7.52319 36.8108 7.74443 36.8108 8.24885V15.7356" fill="#26272C"/>
<mask id="mask0_48_1349" style="mask-type:luminance" maskUnits="userSpaceOnUse" x="0" y="0" width="78" height="20">
<path d="M0.000396729 -3.05176e-05H78V20H0.000396729V-3.05176e-05Z" fill="white"/>
</mask>
<g mask="url(#mask0_48_1349)">
<path d="M53.4298 13.9733H49.3198L53.251 8.41577V6.52196H47.3542C46.6394 6.52196 46.3714 6.80517 46.3714 7.48658V9.15916H47.3542V8.9733C47.3542 8.46888 47.6222 8.26535 48.1583 8.26535H50.3026L46.282 13.8228V15.7344H53.4298" fill="#26272C"/>
<path fill-rule="evenodd" clip-rule="evenodd" d="M69.244 15.2301V4.80527C69.244 3.96457 68.8867 3.69022 68.0826 3.69022H65.6701V4.84071H65.9382C66.3849 4.84071 66.5636 5.00881 66.5636 5.52208V15.2301H69.244ZM70.6735 15.2301H73.2646V7.36281C73.2646 6.56635 72.9073 6.24776 72.1032 6.24776H70.6735V15.2301ZM65.1341 15.2301V6.24776H63.7046C62.9004 6.24776 62.543 6.56635 62.543 7.36281V15.2301H65.1341ZM76.3024 9.99115C76.3024 14.8673 72.7285 18.4248 67.9038 18.4248C63.0791 18.4248 59.5052 14.8673 59.5052 9.99115C59.5052 5.11505 63.0791 1.5575 67.9038 1.5575C72.7285 1.5575 76.3024 5.11505 76.3024 9.99115ZM78 9.99115C78 4.28319 73.7113 -3.05176e-05 67.9038 -3.05176e-05C62.1856 -3.05176e-05 57.8077 4.28319 57.8077 9.99115C57.8077 15.7168 62.1856 20 67.9038 20C73.7113 20 78 15.7168 78 9.99115Z" fill="#26272C"/>
</g>
</g>
<defs>
<clipPath id="clip0_48_1349">
<rect width="78" height="20" fill="white"/>
</clipPath>
</defs>
</svg>
