<svg width="132" height="24" viewBox="0 0 132 24" fill="none" xmlns="http://www.w3.org/2000/svg">
<path d="M13.9998 2H33.7346V22H13.9998V2Z" fill="#26272C"/>
<path d="M20.0834 7.00391H22.4821V17.0039H20.0834V7.00391Z" fill="#26272C"/>
<path d="M27.6492 16.9955H25.0031L22.2745 11.9997L25.0031 7.00391H27.6492L24.9041 11.9997L27.6492 16.9955Z" fill="#26272C"/>
<path d="M34.8312 2H54.566V22H34.8312V2Z" fill="#26272C"/>
<path d="M42.9103 15.5588L42.4815 17.0125H39.926L43.174 6.9873H46.224L49.4471 17.0125H46.834L46.4054 15.5754L42.9103 15.5588ZM44.6578 9.86118L43.5036 13.5955H45.8118L44.6578 9.86118Z" fill="#26272C"/>
<path d="M55.6531 2H75.3879V22H55.6531V2Z" fill="#26272C"/>
<path d="M66.7563 17.0125H64.3412V12.5931L61.1015 6.9873H63.9538L65.553 10.0617L67.1275 6.98747H69.9386L66.7565 12.5931L66.7563 17.0125Z" fill="#26272C"/>
<path d="M76.4864 2H96.2212V22H76.4864V2Z" fill="#26272C"/>
<path d="M84.5635 15.5588L84.1349 17.0125H81.5794L84.8273 6.9873H87.8773L91.1006 17.0125H88.4874L88.0588 15.5754L84.5635 15.5588ZM86.311 9.86118L85.1571 13.5955H87.4651L86.311 9.86118Z" fill="#26272C"/>
<path d="M97.3083 2H117.043V22H97.3083V2Z" fill="#26272C"/>
<path d="M103.391 7.00391H105.79V17.0039H103.391V7.00391Z" fill="#26272C"/>
<path d="M110.961 16.9955H108.315L105.586 11.9997L108.315 7.00391H110.961L108.216 11.9997L110.961 16.9955Z" fill="#26272C"/>
</svg>
