<svg width="132" height="24" viewBox="0 0 132 24" fill="none" xmlns="http://www.w3.org/2000/svg">
<path d="M40.7136 3.00098H35.4727C35.2992 3.00087 35.1314 3.06288 34.9995 3.17585C34.8675 3.28881 34.7802 3.4453 34.7532 3.61711L32.6335 17.0898C32.6238 17.1523 32.6276 17.2162 32.6449 17.2771C32.6621 17.338 32.6923 17.3944 32.7334 17.4424C32.7745 17.4905 32.8255 17.529 32.8828 17.5554C32.9402 17.5818 33.0026 17.5954 33.0657 17.5953H35.5678C35.7414 17.5954 35.9093 17.5333 36.0412 17.4202C36.1732 17.3071 36.2605 17.1504 36.2873 16.9784L36.859 13.3446C36.8859 13.1728 36.973 13.0162 37.1048 12.9031C37.2366 12.79 37.4043 12.7278 37.5778 12.7277H39.2369C42.6892 12.7277 44.6817 11.053 45.202 7.73414C45.4365 6.28215 45.212 5.14131 44.5338 4.34233C43.7889 3.465 42.4677 3.00098 40.7136 3.00098ZM41.3183 7.92159C41.0317 9.80686 39.5948 9.80686 38.2055 9.80686H37.4146L37.9694 6.28599C37.9857 6.18299 38.038 6.08917 38.1171 6.02143C38.1962 5.95369 38.2968 5.91647 38.4009 5.91647H38.7633C39.7097 5.91647 40.6025 5.91647 41.0638 6.45731C41.339 6.77998 41.4232 7.25936 41.3183 7.92159ZM56.3796 7.8609H53.8699C53.7659 7.8609 53.6653 7.89812 53.5862 7.96586C53.5071 8.0336 53.4547 8.12742 53.4385 8.23042L53.3273 8.93414L53.1519 8.67908C52.6085 7.88856 51.397 7.62428 50.1877 7.62428C47.4144 7.62428 45.0457 9.73004 44.5843 12.6839C44.3445 14.1574 44.6855 15.5664 45.5193 16.549C46.284 17.4524 47.3784 17.8289 48.6803 17.8289C50.9149 17.8289 52.1541 16.3884 52.1541 16.3884L52.0422 17.0875C52.0322 17.15 52.0359 17.214 52.053 17.2749C52.07 17.3359 52.1 17.3924 52.141 17.4406C52.1819 17.4888 52.2328 17.5275 52.2901 17.5541C52.3474 17.5807 52.4097 17.5945 52.4729 17.5946H54.7335C54.9072 17.5947 55.0751 17.5325 55.207 17.4194C55.339 17.3063 55.4263 17.1496 55.4531 16.9777L56.8095 8.3664C56.8195 8.30404 56.8159 8.24024 56.7988 8.17943C56.7818 8.11861 56.7519 8.06222 56.711 8.01415C56.6701 7.96609 56.6193 7.92749 56.5621 7.90103C56.5049 7.87457 56.4426 7.86088 56.3796 7.8609ZM52.8813 12.7577C52.6392 14.1951 51.5012 15.16 50.0498 15.16C49.321 15.16 48.7386 14.9257 48.3646 14.4816C47.9937 14.0407 47.8527 13.413 47.9707 12.7139C48.1968 11.2888 49.3539 10.2924 50.7831 10.2924C51.4958 10.2924 52.0752 10.5298 52.4568 10.9777C52.8392 11.4302 52.9909 12.0617 52.8813 12.7577ZM69.7458 7.8609H67.2239C67.1049 7.86109 66.9878 7.89036 66.8827 7.94619C66.7776 8.00202 66.6877 8.0827 66.6208 8.18126L63.1424 13.3177L61.668 8.38177C61.6228 8.23122 61.5304 8.09928 61.4045 8.00548C61.2786 7.91167 61.126 7.86097 60.9691 7.8609H58.4908C58.4213 7.86071 58.3527 7.87719 58.2907 7.90895C58.2288 7.94072 58.1753 7.98685 58.1348 8.04351C58.0942 8.10018 58.0677 8.16573 58.0576 8.23473C58.0474 8.30372 58.0538 8.37415 58.0763 8.44016L60.8542 16.6128L58.2425 20.3088C58.1961 20.3743 58.1686 20.4514 58.163 20.5316C58.1573 20.6117 58.1738 20.6919 58.2106 20.7633C58.2474 20.8347 58.3031 20.8946 58.3716 20.9364C58.4401 20.9782 58.5187 21.0002 58.5989 21.0002H61.1178C61.2354 21.0004 61.3513 20.9719 61.4555 20.9173C61.5598 20.8627 61.6493 20.7836 61.7163 20.6868L70.1045 8.54848C70.15 8.48281 70.1766 8.40591 70.1816 8.32613C70.1866 8.24635 70.1697 8.16672 70.1327 8.09588C70.0958 8.02505 70.0402 7.9657 69.972 7.92428C69.9038 7.88285 69.8256 7.86094 69.7458 7.8609Z" fill="#26272C"/>
<path d="M78.0993 3.00077H72.8577C72.6843 3.00084 72.5166 3.06294 72.3849 3.17589C72.2531 3.28883 72.1659 3.44522 72.1388 3.6169L70.0192 17.0896C70.0093 17.152 70.0131 17.2158 70.0302 17.2767C70.0473 17.3375 70.0774 17.3938 70.1183 17.4419C70.1592 17.4899 70.2101 17.5285 70.2673 17.555C70.3246 17.5814 70.3868 17.5951 70.4499 17.5951H73.1397C73.261 17.595 73.3783 17.5514 73.4705 17.4722C73.5626 17.3931 73.6236 17.2836 73.6424 17.1634L74.2439 13.3444C74.2708 13.1726 74.358 13.016 74.4897 12.9029C74.6215 12.7898 74.7893 12.7276 74.9628 12.7275H76.6211C80.0741 12.7275 82.0658 11.0527 82.5869 7.73393C82.8222 6.28194 82.5961 5.1411 81.9179 4.34212C81.1738 3.46479 79.8534 3.00077 78.0993 3.00077ZM78.704 7.92138C78.4181 9.80666 76.9813 9.80666 75.5911 9.80666H74.8011L75.3566 6.28579C75.3726 6.18278 75.4248 6.08888 75.5038 6.0211C75.5828 5.95332 75.6833 5.91613 75.7873 5.91626H76.1498C77.0954 5.91626 77.989 5.91626 78.4503 6.45711C78.7254 6.77977 78.8089 7.25915 78.704 7.92138ZM93.7645 7.86069H91.2564C91.1523 7.8604 91.0517 7.89754 90.9726 7.96535C90.8936 8.03316 90.8415 8.12714 90.8257 8.23022L90.7146 8.93393L90.5383 8.67887C89.995 7.88835 88.7842 7.62407 87.5749 7.62407C84.8016 7.62407 82.4337 9.72983 81.9723 12.6837C81.7332 14.1572 82.0727 15.5662 82.9065 16.5488C83.6728 17.4522 84.7656 17.8287 86.0676 17.8287C88.3022 17.8287 89.5413 16.3882 89.5413 16.3882L89.4294 17.0873C89.4194 17.15 89.4231 17.214 89.4403 17.2751C89.4574 17.3361 89.4876 17.3927 89.5287 17.4409C89.5698 17.4892 89.6209 17.5279 89.6783 17.5543C89.7358 17.5808 89.7984 17.5945 89.8616 17.5944H92.1215C92.295 17.5943 92.4628 17.5321 92.5946 17.419C92.7263 17.3058 92.8135 17.1493 92.8403 16.9775L94.1975 8.3662C94.2071 8.30363 94.2031 8.23972 94.1858 8.17886C94.1684 8.11799 94.1382 8.06161 94.097 8.01358C94.0559 7.96556 94.0049 7.92703 93.9475 7.90063C93.8901 7.87424 93.8277 7.86062 93.7645 7.86069ZM90.2663 12.7575C90.0256 14.1949 88.8861 15.1598 87.4347 15.1598C86.7075 15.1598 86.1235 14.9255 85.7495 14.4814C85.3786 14.0405 85.2392 13.4128 85.3557 12.7137C85.5833 11.2886 86.7389 10.2922 88.1681 10.2922C88.8807 10.2922 89.4601 10.5296 89.8417 10.9775C90.2257 11.43 90.3774 12.0615 90.2663 12.7575ZM96.7233 3.37029L94.5722 17.0896C94.5624 17.152 94.5661 17.2158 94.5833 17.2767C94.6004 17.3375 94.6304 17.3938 94.6714 17.4419C94.7123 17.4899 94.7631 17.5285 94.8204 17.555C94.8776 17.5814 94.9399 17.5951 95.0029 17.5951H97.1655C97.5249 17.5951 97.8299 17.3339 97.8851 16.9782L100.006 3.50627C100.016 3.44383 100.012 3.37998 99.9952 3.31913C99.9781 3.25828 99.9481 3.20186 99.9072 3.15375C99.8662 3.10565 99.8154 3.06699 99.7582 3.04045C99.7009 3.01391 99.6386 3.00011 99.5756 3H97.154C97.05 3.00037 96.9496 3.03784 96.8707 3.10569C96.7918 3.17354 96.7395 3.26734 96.7233 3.37029Z" fill="#26272C"/>
</svg>
