<svg width="107" height="22" viewBox="0 0 107 22" fill="none" xmlns="http://www.w3.org/2000/svg">
<path d="M31.8048 1.16439C31.4713 1.22688 30.8043 1.35186 30.3226 1.45184C29.8533 1.55182 28.9269 1.71429 28.2847 1.82677C27.6424 1.93925 26.7531 2.10172 26.3084 2.2017C25.8638 2.30168 24.9745 2.46415 24.3322 2.57663C23.6899 2.68911 22.7759 2.85158 22.2942 2.95156C21.3926 3.13903 20.2439 3.35149 18.28 3.70143C17.6378 3.81391 16.7238 3.98887 16.2421 4.07636C15.7727 4.17634 14.8834 4.35131 14.2658 4.46379C13.6606 4.56377 12.7713 4.73874 12.2896 4.82622C11.1533 5.05118 9.72054 5.32613 8.27542 5.57608C7.63315 5.68856 6.74385 5.86353 6.2992 5.95102C5.85455 6.0385 4.94055 6.21347 4.26123 6.32595C3.5819 6.43843 2.6926 6.61339 2.28501 6.70088C1.87741 6.80086 1.27219 6.91334 0.938705 6.95083C0.172919 7.05081 0 7.1258 0 7.32576C0 7.52573 0.27173 7.63821 0.753434 7.63821C0.963408 7.63821 1.49452 7.72569 1.95152 7.83817C6.63269 8.92547 9.51056 10.3627 11.4003 12.5373C11.7832 12.9872 12.1044 13.3872 12.1044 13.4246C12.1044 13.4621 12.2649 13.7746 12.4625 14.112C13.253 15.4743 13.6977 17.3989 13.71 19.486C13.71 20.4609 13.8335 21.0108 14.0682 21.0108C14.1794 21.0108 16.2791 18.6237 16.7238 17.9988C17.3413 17.124 18.3541 15.2993 18.5888 14.6369C18.9594 13.5996 18.9347 11.8874 18.5394 11.1126C18.2306 10.5127 17.539 9.73782 17.0202 9.43788C15.1675 8.33808 12.6602 7.6882 9.81935 7.57572C7.79372 7.48823 7.53434 7.43824 7.53434 7.20079C7.53434 7.08831 7.71961 7.01332 8.06545 6.96333C12.9072 6.40093 16.9214 6.46342 19.7004 7.1258C22.0596 7.7007 23.2947 8.43806 24.184 9.78781L24.4928 10.2752L25.802 8.92547C26.8025 7.88816 30.2856 4.22633 32.8176 1.53932C32.9041 1.45184 32.9782 1.28937 32.9782 1.18939C32.9782 0.989423 32.7435 0.989423 31.8048 1.16439ZM33.5587 7.48823C33.3487 7.71319 33.077 8.7505 33.1758 8.91297C33.2129 8.96296 33.781 8.97546 34.4356 8.93797C36.1154 8.83799 36.1648 8.88798 35.8066 10.2002C35.6584 10.7501 35.4979 11.3625 35.4485 11.575C35.3991 11.775 35.3002 12.1124 35.2261 12.3249C35.1644 12.5248 35.0038 13.0622 34.8926 13.5121C34.695 14.2745 34.5962 14.6119 34.1639 16.0992C33.6081 18.0113 33.4599 18.6612 33.5216 18.8237C33.571 18.9736 33.8551 19.0111 34.8185 19.0111H36.0413L36.3007 18.1738C36.7206 16.8115 36.8936 16.2491 37.1159 15.3868C37.2394 14.9369 37.4 14.3245 37.4864 14.012C37.5852 13.6996 37.7458 13.1372 37.8446 12.7623C39.0057 8.57554 38.8451 8.82549 40.389 8.93797C40.9695 8.97546 41.5747 9.02545 41.7353 9.05045C41.9947 9.07544 42.0564 9.00046 42.1553 8.63802C42.3899 7.6882 42.4023 7.48823 42.2294 7.37576C42.1306 7.31327 40.1914 7.26328 37.9064 7.26328C34.1022 7.26328 33.744 7.27577 33.5587 7.48823ZM70.3658 7.53823C69.4147 7.88816 68.6613 8.62553 68.3649 9.50037C67.9573 10.7501 68.3031 11.7 69.7606 13.2622C71.2428 14.8744 71.3786 15.0993 71.391 15.8367C71.391 16.3616 71.3416 16.5116 71.0575 16.7865C70.5511 17.2489 70.2423 17.3864 69.6124 17.3864C68.933 17.3864 68.1549 17.099 67.525 16.5991C67.278 16.3991 66.9939 16.2616 66.8951 16.2991C66.648 16.3991 66.2898 18.0113 66.4751 18.2238C66.8333 18.6612 68.5131 19.1236 69.7235 19.1236C72.3297 19.1236 73.9848 17.7114 73.9848 15.4868C73.9848 14.1995 73.6389 13.5621 71.9838 11.8124C70.761 10.5002 70.6005 9.91279 71.3169 9.18792C71.6874 8.81299 71.8109 8.763 72.3667 8.763C73.0337 8.763 73.713 9.03795 74.1947 9.50037C74.5282 9.82531 74.6764 9.82531 74.837 9.52536C75.0346 9.16293 75.2323 8.17561 75.1458 7.96315C75.1087 7.86317 74.7135 7.6632 74.2688 7.52573C73.1572 7.17579 71.3786 7.17579 70.3658 7.53823ZM43.8474 9.36289C42.5752 9.76282 41.6983 10.4377 40.9325 11.6375C40.3396 12.5623 39.9938 13.4871 39.722 14.8869C39.1415 17.8738 41.1054 19.711 44.0944 18.9611C45.0825 18.7112 45.5519 18.4237 46.3424 17.6114C47.911 15.9992 48.825 12.8373 48.2198 11.1251C47.6269 9.47537 45.836 8.7505 43.8474 9.36289ZM45.5889 10.9626C45.8607 11.2625 45.8854 11.375 45.873 12.4248C45.836 14.5869 44.749 16.899 43.4398 17.5864C43.0199 17.8113 42.6987 17.7239 42.3652 17.2989C42.1676 17.0365 42.1182 16.799 42.1182 15.9742C42.1182 14.2245 42.9334 12.1749 44.0203 11.1876C44.7243 10.5377 45.1443 10.4752 45.5889 10.9626ZM94.7721 9.38789C92.2154 10.0378 90.585 11.8624 90.1651 14.5494C89.6587 17.6614 91.6349 19.561 94.8215 19.0236C95.9332 18.8362 96.7731 18.4862 96.9583 18.1488C97.0201 18.0113 97.1559 17.6114 97.2671 17.2365C97.3659 16.874 97.5635 16.1741 97.6994 15.6992C97.8353 15.2118 97.9835 14.6369 98.0329 14.412L98.107 13.9995L96.946 14.037L95.7849 14.0745L95.6985 14.6994C95.6614 15.0369 95.5256 15.6367 95.4144 16.0117C95.3032 16.3866 95.1797 16.849 95.1427 17.0365C95.0562 17.4864 94.7721 17.7239 94.1793 17.8113C93.5123 17.9113 93.1294 17.6989 92.7959 17.0115C92.4624 16.3241 92.4377 15.4243 92.7094 14.337C93.29 12.0124 94.6239 10.6377 96.279 10.6377C96.946 10.6377 97.8229 10.9501 98.0082 11.2625C98.2429 11.6625 98.811 10.8376 98.811 10.0878C98.811 9.68783 98.6381 9.57535 97.6871 9.3379C96.6742 9.08794 95.8961 9.10044 94.7721 9.38789ZM50.6777 9.35039C50.5912 9.37539 50.5171 9.56285 50.5171 9.73782C50.5048 10.1752 50.3072 11.0001 49.6155 13.4496C48.7262 16.5866 48.6644 17.049 49.0967 17.8738C49.6402 18.9361 51.2829 19.3736 53.1727 18.9611C54.8772 18.5987 55.7541 17.6739 56.3346 15.6617C56.4582 15.1993 56.6558 14.5119 56.7669 14.137C56.8657 13.7621 57.0263 13.1997 57.1251 12.8872C57.2116 12.5748 57.3722 11.9624 57.4957 11.5125C57.6068 11.0626 57.7921 10.5002 57.8909 10.2502C57.9897 10.0003 58.0391 9.67533 57.9897 9.52536C57.9156 9.2879 57.8168 9.26291 56.9893 9.26291C55.927 9.26291 55.643 9.45037 55.5194 10.2252C55.47 10.4877 55.3589 10.9251 55.2724 11.2001C55.186 11.475 55.013 12.0624 54.9019 12.5123C54.7784 12.9622 54.6178 13.5496 54.5313 13.8246C54.4449 14.0995 54.272 14.6869 54.1484 15.1368C53.6914 16.7865 53.3703 17.2614 52.481 17.6364C52.1352 17.7864 52.0364 17.7739 51.6535 17.5614C51.0235 17.224 50.9741 16.8615 51.3447 15.5493C51.5053 14.9494 51.6905 14.2495 51.7523 14.012C51.814 13.7746 51.9499 13.2872 52.0487 12.9497C52.2216 12.3373 52.4934 11.3875 52.8021 10.2627C53.0492 9.38789 52.9133 9.26291 51.777 9.27541C51.2582 9.27541 50.7518 9.3129 50.6777 9.35039ZM59.6819 9.41288C59.5954 9.50037 59.5336 9.80031 59.5336 10.0753C59.5336 10.3627 59.4595 10.8376 59.3607 11.1501C59.1878 11.725 58.9284 12.5998 58.6073 13.7621C58.3973 14.5244 58.2244 15.0868 57.6933 16.949C57.3475 18.1488 57.261 18.5237 57.298 18.8487C57.3104 18.9611 57.5945 19.0111 58.2862 19.0111C58.9161 19.0111 59.299 18.9611 59.3731 18.8487C59.4966 18.6737 59.7807 17.7988 60.0895 16.6366C60.213 16.1866 60.3859 15.6117 60.4724 15.3493C60.5712 15.0993 60.6453 14.7494 60.6453 14.5869C60.6453 14.412 60.7441 14.187 60.8552 14.062C60.9788 13.9496 61.0529 13.7121 61.0405 13.5496C61.0035 13.2747 61.0776 12.9747 61.5963 11.3C61.831 10.5627 62.1027 10.4252 63.0291 10.5752C63.7825 10.7001 63.9801 10.9251 63.9801 11.675C63.9801 12.7373 63.2267 13.4371 61.8804 13.6246C61.3493 13.6996 61.3246 13.7246 61.3493 14.0745C61.3617 14.287 61.4605 14.6494 61.5593 14.8869C61.6581 15.1243 61.9175 15.7992 62.1398 16.3866C63.0661 18.8737 63.1155 18.9361 64.6101 18.9861C65.7587 19.0361 65.9193 18.9611 65.5364 18.5237C65.1165 18.0363 63.8566 15.2493 63.8566 14.7869C63.8566 14.6244 64.0543 14.4745 64.5236 14.2745C65.4006 13.9121 66.0305 13.2497 66.2651 12.4623C66.7468 10.8376 66.2281 9.8628 64.6595 9.45038C63.7702 9.21292 59.9042 9.18792 59.6819 9.41288ZM75.9857 9.41288C75.7634 9.70033 75.4916 10.4752 75.5781 10.6002C75.6151 10.6627 76.1215 10.7126 76.7021 10.7126L77.7519 10.7001L77.7272 11.1876C77.7025 11.4625 77.6161 11.9124 77.5173 12.1874C77.4184 12.4748 77.2455 13.0622 77.1344 13.5121C77.0108 13.9621 76.8503 14.5744 76.7638 14.8869C76.665 15.1993 76.5044 15.7617 76.4056 16.1367C76.2945 16.5116 76.1339 17.099 76.0227 17.4489C75.9239 17.7864 75.8251 18.2738 75.8128 18.5112L75.7757 18.9486H77.9866L78.1966 18.3862C78.3077 18.0738 78.493 17.4864 78.6042 17.074C78.8018 16.3616 78.9871 15.6742 79.3576 14.387C79.4441 14.0745 79.617 13.4621 79.7281 13.0122C80.1481 11.4625 80.3828 10.8501 80.6051 10.7251C80.7286 10.6502 81.235 10.6377 81.7908 10.6752L82.7666 10.7501L82.9519 10.3252C83.1742 9.76282 83.1742 9.43788 82.9272 9.3379C82.816 9.3004 81.2474 9.26291 79.4194 9.26291C76.9244 9.26291 76.0845 9.3004 75.9857 9.41288ZM85.2986 9.46287C85.1875 9.56285 85.101 9.76282 85.101 9.8878C85.101 10.0128 84.5328 11.0876 83.8288 12.2749C83.1248 13.4746 82.5196 14.5369 82.4702 14.6369C82.4208 14.7369 82.2725 14.9869 82.1367 15.1993C82.0008 15.3993 81.8526 15.6617 81.8032 15.7617C81.7538 15.8617 81.3338 16.5866 80.8768 17.3614C80.4075 18.1363 80.0616 18.8362 80.0987 18.8986C80.2099 19.0736 82.2108 19.0361 82.3466 18.8487C82.4084 18.7737 82.569 18.4487 82.6925 18.1363C82.8283 17.8238 83.063 17.3614 83.2112 17.099L83.4953 16.6366H85.0269C86.1262 16.6366 86.5955 16.6866 86.682 16.799C86.7561 16.8865 86.8549 17.3489 86.9043 17.8238C86.9537 18.3862 87.0525 18.7487 87.176 18.8487C87.4231 19.0486 88.9546 19.0611 89.1399 18.8737C89.3005 18.7112 89.2634 18.0488 88.9917 16.3866C88.9052 15.7992 88.7447 14.6994 88.6335 13.9496C88.5347 13.1872 88.3494 11.8999 88.2383 11.0751C88.1147 10.2502 87.9665 9.50037 87.9048 9.41288C87.7195 9.17543 85.5456 9.20042 85.2986 9.46287ZM86.3732 13.4496C86.4844 14.237 86.5461 14.9744 86.5091 15.0743C86.4473 15.2243 86.2126 15.2618 85.4715 15.2618C84.9281 15.2618 84.4711 15.2118 84.4217 15.1493C84.3846 15.0868 84.5822 14.6244 84.854 14.112C85.1133 13.6121 85.4592 12.9372 85.6074 12.5998C85.7556 12.2749 85.9409 12.0124 86.0274 12.0124C86.1138 12.0124 86.2373 12.5123 86.3732 13.4496ZM100.75 9.35039C100.701 9.38789 100.664 9.63784 100.664 9.90029C100.664 10.1627 100.602 10.5252 100.528 10.7251C100.454 10.9126 100.343 11.275 100.293 11.5125C100.194 11.9624 99.688 13.7621 99.3792 14.7619C99.2927 15.0743 99.1198 15.6867 98.9963 16.1367C98.8851 16.5866 98.7122 17.174 98.6134 17.4614C98.5146 17.7364 98.4281 18.1863 98.4034 18.4612L98.3787 18.9486H104.925L105.135 18.5112C105.567 17.6239 105.604 17.6364 103.258 17.6364C101.454 17.6364 101.145 17.6114 101.071 17.4364C101.01 17.2614 101.121 16.7865 101.639 15.1993L101.837 14.5744H104.974L105.172 14.0495C105.283 13.7621 105.345 13.4621 105.296 13.3872C105.246 13.3122 104.616 13.2622 103.752 13.2622C102.949 13.2622 102.257 13.2122 102.22 13.1497C102.183 13.0997 102.232 12.8248 102.319 12.5623C102.418 12.2874 102.591 11.7625 102.702 11.3875C102.825 11.0126 102.986 10.6627 103.06 10.6127C103.233 10.4877 104.431 10.5002 105.518 10.6252C106.432 10.7251 106.444 10.7126 106.716 10.0253C107 9.3004 106.839 9.26291 103.628 9.26291C102.084 9.26291 100.787 9.3004 100.75 9.35039Z" fill="#26272C"/>
</svg>
