<svg width="24" height="24" viewBox="0 0 24 24" fill="none" xmlns="http://www.w3.org/2000/svg">
<path d="M12 15.5C12.1983 15.5 12.3647 15.4328 12.4991 15.2984C12.6335 15.164 12.7005 14.9979 12.7 14.8C12.6995 14.6021 12.6323 14.436 12.4984 14.3016C12.3645 14.1672 12.1983 14.1 12 14.1C11.8017 14.1 11.6355 14.1672 11.5016 14.3016C11.3677 14.436 11.3005 14.6021 11.3 14.8C11.2995 14.9979 11.3667 15.1642 11.5016 15.2991C11.6365 15.434 11.8026 15.5009 12 15.5ZM12 12.7C12.1983 12.7 12.3647 12.6328 12.4991 12.4984C12.6335 12.364 12.7005 12.1979 12.7 12V9.2C12.7 9.00167 12.6328 8.83553 12.4984 8.7016C12.364 8.56767 12.1979 8.50047 12 8.5C11.8021 8.49953 11.636 8.56673 11.5016 8.7016C11.3672 8.83647 11.3 9.0026 11.3 9.2V12C11.3 12.1983 11.3672 12.3647 11.5016 12.4991C11.636 12.6335 11.8021 12.7005 12 12.7ZM12 19C11.0317 19 10.1217 18.8161 9.27 18.4484C8.41833 18.0807 7.6775 17.582 7.0475 16.9525C6.4175 16.323 5.91887 15.5821 5.5516 14.73C5.18433 13.8779 5.00047 12.9679 5 12C4.99953 11.0321 5.1834 10.1221 5.5516 9.27C5.9198 8.41787 6.41843 7.67703 7.0475 7.0475C7.67657 6.41797 8.4174 5.91933 9.27 5.5516C10.1226 5.18387 11.0326 5 12 5C12.9674 5 13.8774 5.18387 14.73 5.5516C15.5826 5.91933 16.3234 6.41797 16.9525 7.0475C17.5816 7.67703 18.0804 8.41787 18.4491 9.27C18.8178 10.1221 19.0014 11.0321 19 12C18.9986 12.9679 18.8147 13.8779 18.4484 14.73C18.0821 15.5821 17.5834 16.323 16.9525 16.9525C16.3216 17.582 15.5807 18.0809 14.73 18.4491C13.8793 18.8173 12.9693 19.0009 12 19Z" fill="#F86161"/>
</svg>
