<svg width="49" height="14" viewBox="0 0 49 14" fill="none" xmlns="http://www.w3.org/2000/svg">
<mask id="mask0_223_4980" style="mask-type:luminance" maskUnits="userSpaceOnUse" x="0" y="1" width="13" height="12">
<path d="M12.6733 1.64703H0.845703V12.7414H12.6733V1.64703Z" fill="white"/>
</mask>
<g mask="url(#mask0_223_4980)">
<path d="M11.0226 2.65468C10.3284 3.06691 9.72154 3.43332 9.67525 3.47404C9.60327 3.53002 9.58789 3.65216 9.58789 4.1916C9.58789 4.75141 9.59811 4.8481 9.6804 4.91935C9.76269 4.99569 9.94272 5.00587 11.1409 5.00587C12.3956 5.00587 12.5087 5.00078 12.5859 4.91426C12.6631 4.83283 12.6733 4.65472 12.6733 3.47404C12.6733 2.02363 12.6528 1.90149 12.4007 1.90149C12.3391 1.90149 11.7169 2.23737 11.0226 2.65468Z" fill="#5C6066"/>
<path d="M7.94225 4.38487C7.80855 4.42559 5.45332 5.83019 5.33504 5.93706L5.21677 6.03884V8.06942C5.21677 10.4715 5.26305 10.2985 4.59968 10.2985C4.22428 10.2985 4.17285 10.2832 4.05972 10.1713L3.93116 10.0491V8.68009C3.93116 7.41801 3.92602 7.30604 3.8386 7.22971C3.78717 7.17881 3.69975 7.14318 3.65347 7.14318C3.5249 7.14318 0.917699 8.70043 0.876556 8.80222C0.86113 8.84298 0.845703 9.62665 0.845703 10.5325V12.1865L0.97426 12.3086L1.09768 12.4359H2.39872C3.49405 12.4359 3.72032 12.4257 3.81803 12.3545C3.92602 12.2832 3.93116 12.2374 3.93116 11.6929C3.93116 11.1382 3.9363 11.1026 4.05972 10.9855C4.16771 10.8736 4.22942 10.8582 4.56368 10.8582C4.87223 10.8582 4.96993 10.8786 5.08306 10.9651C5.21163 11.0669 5.21677 11.0822 5.21677 11.642C5.21677 12.0543 5.23734 12.2425 5.28876 12.3137C5.36076 12.4054 5.43789 12.4104 6.7595 12.4104C8.0811 12.4104 8.15824 12.4054 8.23023 12.3137C8.33308 12.1764 8.33823 4.61388 8.24051 4.48665C8.15824 4.38996 8.0451 4.34925 7.94225 4.38487Z" fill="#5C6066"/>
<path d="M9.70101 5.74885L9.58789 5.82518V9.02114C9.58789 11.6981 9.59811 12.2273 9.65987 12.3139C9.7267 12.4054 9.81414 12.4105 11.0072 12.4258C11.7117 12.436 12.3339 12.4309 12.4007 12.4105C12.6836 12.3393 12.6733 12.4971 12.6733 9.04658C12.6733 5.93715 12.6733 5.87099 12.5705 5.76921C12.4727 5.67251 12.4007 5.66742 11.1409 5.66742C10.0249 5.66742 9.79867 5.6776 9.70101 5.74885Z" fill="#5C6066"/>
</g>
<path d="M22.391 7.47436H18.8123V10.7059H17.8594V3.78824H18.8123V6.63436H22.391V3.78824H23.344V10.7059H22.391V7.47436ZM24.952 6.29836H25.8542V10.7059H24.952V6.29836ZM25.4082 5.30024C25.2392 5.30024 25.0973 5.24754 24.9824 5.14212C24.8742 5.03671 24.8202 4.90824 24.8202 4.75671C24.8202 4.60518 24.8742 4.48001 24.9824 4.38118C25.0973 4.28236 25.2392 4.23295 25.4082 4.23295C25.5704 4.23295 25.7022 4.28236 25.8035 4.38118C25.9117 4.48001 25.9657 4.60518 25.9657 4.75671C25.9657 4.90824 25.9117 5.03671 25.8035 5.14212C25.7022 5.24754 25.5704 5.30024 25.4082 5.30024ZM29.1137 10.7849C28.8299 10.7849 28.5562 10.7322 28.2926 10.6268C28.0357 10.5214 27.806 10.3699 27.6032 10.1722C27.4072 9.9746 27.2484 9.73412 27.1267 9.45083C27.0118 9.16754 26.9544 8.8513 26.9544 8.50212C26.9544 8.15954 27.0118 7.8466 27.1267 7.5633C27.2416 7.28001 27.3971 7.03954 27.5931 6.84189C27.7891 6.64424 28.0155 6.49271 28.2723 6.3873C28.5359 6.2753 28.8164 6.2193 29.1137 6.2193C29.4787 6.2193 29.793 6.28848 30.0566 6.42683C30.3202 6.55859 30.5195 6.72001 30.6547 6.91107V3.78824H31.5671V10.7059H30.7054V9.98448C30.5567 10.2151 30.3438 10.4061 30.0667 10.5577C29.7964 10.7092 29.4787 10.7849 29.1137 10.7849ZM29.2658 9.99436C29.4821 9.99436 29.6747 9.95812 29.8437 9.88565C30.0126 9.80659 30.1546 9.70448 30.2695 9.5793C30.3911 9.44754 30.4824 9.29601 30.5432 9.12471C30.6108 8.95342 30.648 8.77554 30.6547 8.59107V8.38354C30.648 8.19907 30.6108 8.02448 30.5432 7.85977C30.4824 7.69507 30.3945 7.55012 30.2796 7.42495C30.1647 7.29977 30.0228 7.20095 29.8538 7.12848C29.6848 7.05601 29.4956 7.01977 29.2861 7.01977C29.0901 7.01977 28.9076 7.05271 28.7386 7.1186C28.5697 7.18448 28.421 7.28001 28.2926 7.40518C28.1709 7.52377 28.0729 7.6753 27.9986 7.85977C27.931 8.04424 27.8972 8.25507 27.8972 8.49224C27.8972 8.72283 27.931 8.93036 27.9986 9.11483C28.0662 9.2993 28.1608 9.45742 28.2824 9.58918C28.4041 9.71436 28.546 9.81318 28.7082 9.88565C28.8772 9.95812 29.0631 9.99436 29.2658 9.99436ZM34.8262 10.7849C34.5424 10.7849 34.2686 10.7322 34.005 10.6268C33.7482 10.5214 33.5184 10.3699 33.3157 10.1722C33.1197 9.9746 32.9608 9.73412 32.8392 9.45083C32.7243 9.16754 32.6668 8.8513 32.6668 8.50212C32.6668 8.15954 32.7243 7.8466 32.8392 7.5633C32.9541 7.28001 33.1095 7.03954 33.3055 6.84189C33.5015 6.64424 33.7279 6.49271 33.9848 6.3873C34.2484 6.2753 34.5288 6.2193 34.8262 6.2193C35.1912 6.2193 35.5055 6.28848 35.769 6.42683C36.0326 6.55859 36.232 6.72001 36.3672 6.91107V3.78824H37.2796V10.7059H36.4179V9.98448C36.2692 10.2151 36.0563 10.4061 35.7792 10.5577C35.5088 10.7092 35.1912 10.7849 34.8262 10.7849ZM34.9783 9.99436C35.1946 9.99436 35.3872 9.95812 35.5561 9.88565C35.7251 9.80659 35.867 9.70448 35.9819 9.5793C36.1036 9.44754 36.1948 9.29601 36.2557 9.12471C36.3232 8.95342 36.3604 8.77554 36.3672 8.59107V8.38354C36.3604 8.19907 36.3232 8.02448 36.2557 7.85977C36.1948 7.69507 36.107 7.55012 35.9921 7.42495C35.8772 7.29977 35.7353 7.20095 35.5663 7.12848C35.3973 7.05601 35.2081 7.01977 34.9986 7.01977C34.8026 7.01977 34.6201 7.05271 34.4511 7.1186C34.2821 7.18448 34.1335 7.28001 34.005 7.40518C33.8834 7.52377 33.7854 7.6753 33.711 7.85977C33.6435 8.04424 33.6097 8.25507 33.6097 8.49224C33.6097 8.72283 33.6435 8.93036 33.711 9.11483C33.7786 9.2993 33.8733 9.45742 33.9949 9.58918C34.1166 9.71436 34.2585 9.81318 34.4207 9.88565C34.5897 9.95812 34.7755 9.99436 34.9783 9.99436ZM38.6936 6.29836H39.5959V10.7059H38.6936V6.29836ZM39.1498 5.30024C38.9808 5.30024 38.8389 5.24754 38.724 5.14212C38.6159 5.03671 38.5618 4.90824 38.5618 4.75671C38.5618 4.60518 38.6159 4.48001 38.724 4.38118C38.8389 4.28236 38.9808 4.23295 39.1498 4.23295C39.312 4.23295 39.4438 4.28236 39.5452 4.38118C39.6533 4.48001 39.7074 4.60518 39.7074 4.75671C39.7074 4.90824 39.6533 5.03671 39.5452 5.14212C39.4438 5.24754 39.312 5.30024 39.1498 5.30024ZM40.5845 6.29836H41.3347V5.40895C41.3347 5.11248 41.3752 4.85883 41.4563 4.64801C41.5374 4.43718 41.6523 4.26589 41.801 4.13412C41.9497 3.99577 42.1254 3.89695 42.3282 3.83765C42.5377 3.77177 42.7675 3.73883 43.0176 3.73883C43.1122 3.73883 43.1899 3.74212 43.2508 3.74871C43.3183 3.7553 43.3724 3.76189 43.413 3.76848V4.58871C43.3724 4.58212 43.3319 4.57883 43.2913 4.57883C43.2508 4.57224 43.2136 4.56895 43.1798 4.56895C42.8959 4.56895 42.6695 4.63154 42.5005 4.75671C42.3316 4.88189 42.2471 5.12895 42.2471 5.49789V6.29836H43.3623V7.08895H42.2471V10.7059H41.3347V7.08895H40.5845V6.29836ZM44.7621 12.9591L45.6239 10.6861L43.7686 6.4466V6.29836H44.6912L46.0598 9.52001L47.2865 6.29836H48.1381L48.1279 6.4466L45.6137 13.0777H44.7621V12.9591Z" fill="#5C6066"/>
</svg>
