<svg width="50" height="14" viewBox="0 0 50 14" fill="none" xmlns="http://www.w3.org/2000/svg">
<path d="M12.678 6.80316C12.3801 4.08291 10.1605 1.96655 7.39844 1.64703V3.99072C9.31846 4.35243 10.6019 6.12036 10.2742 7.98751C10.0225 9.42025 8.87397 10.5468 7.39844 10.8249V13.1757C10.6662 12.7968 13.0237 9.96328 12.678 6.80316Z" fill="#5C6066"/>
<path d="M0.879819 8.02032C1.01827 9.3276 1.5977 10.5494 2.52338 11.486C3.44906 12.4226 4.66623 13.0186 5.97589 13.1764V1.64703C4.45679 1.82982 3.07082 2.60071 2.11732 3.79318C1.16382 4.98566 0.719315 6.50402 0.879819 8.02032Z" fill="#5C6066"/>
<path d="M21.0673 9.94492C21.4469 9.94492 21.7995 9.87904 22.1249 9.74727C22.4503 9.61551 22.7317 9.43104 22.969 9.19386C23.213 8.95669 23.4029 8.67339 23.5385 8.34398C23.674 8.00798 23.7418 7.64233 23.7418 7.24704C23.7418 6.85175 23.674 6.48939 23.5385 6.15998C23.4029 5.82398 23.213 5.53739 22.969 5.30022C22.7317 5.05645 22.4503 4.86869 22.1249 4.73692C21.7995 4.60516 21.4469 4.53927 21.0673 4.53927C20.6808 4.53927 20.3249 4.60516 19.9995 4.73692C19.674 4.86869 19.3927 5.05645 19.1554 5.30022C18.9181 5.53739 18.7317 5.82398 18.5961 6.15998C18.4605 6.48939 18.3927 6.85175 18.3927 7.24704C18.3927 7.64233 18.4605 8.00798 18.5961 8.34398C18.7317 8.67339 18.9181 8.95669 19.1554 9.19386C19.3927 9.43104 19.674 9.61551 19.9995 9.74727C20.3249 9.87904 20.6808 9.94492 21.0673 9.94492ZM21.0673 10.8047C20.5181 10.8047 20.0164 10.7157 19.5622 10.5379C19.1147 10.3534 18.7283 10.103 18.4029 9.7868C18.0842 9.46398 17.8368 9.08516 17.6605 8.65033C17.491 8.21551 17.4062 7.74445 17.4062 7.23716C17.4062 6.73645 17.491 6.27198 17.6605 5.84375C17.8368 5.40892 18.0842 5.03339 18.4029 4.71716C18.7283 4.39433 19.1147 4.14398 19.5622 3.9661C20.0164 3.78163 20.5181 3.68939 21.0673 3.68939C21.6164 3.68939 22.1147 3.78163 22.5622 3.9661C23.0096 4.14398 23.3927 4.39104 23.7113 4.70727C24.03 5.02351 24.2774 5.39904 24.4537 5.83386C24.63 6.26869 24.7181 6.74304 24.7181 7.25692C24.7181 7.75763 24.63 8.22539 24.4537 8.66022C24.2842 9.08845 24.0368 9.46398 23.7113 9.7868C23.3927 10.103 23.0096 10.3534 22.5622 10.5379C22.1147 10.7157 21.6164 10.8047 21.0673 10.8047ZM27.4493 10.775C26.9679 10.775 26.5747 10.6202 26.2696 10.3106C25.9646 10.0009 25.812 9.52327 25.812 8.87763V6.29833H26.7171V8.67998C26.7171 9.12139 26.7917 9.44751 26.9408 9.65833C27.0968 9.86257 27.3374 9.96469 27.6629 9.96469C28.0493 9.96469 28.3442 9.83622 28.5476 9.57927C28.7578 9.31574 28.8629 8.97316 28.8629 8.55151V6.29833H29.7679V10.7059H28.9137V9.99433C28.7917 10.2183 28.6086 10.4061 28.3646 10.5576C28.1205 10.7026 27.8154 10.775 27.4493 10.775ZM30.7696 6.29833H31.5221V4.70727H32.417V6.29833H33.556V7.08892H32.417V9.09504C32.417 9.2268 32.4238 9.34539 32.4374 9.4508C32.4577 9.55622 32.495 9.64845 32.5492 9.72751C32.6102 9.79998 32.6882 9.85927 32.7831 9.90539C32.8848 9.94492 33.017 9.96469 33.1797 9.96469C33.3085 9.96469 33.4441 9.9548 33.5865 9.93504V10.7157C33.4916 10.7289 33.3933 10.7388 33.2916 10.7454C33.1967 10.752 33.1018 10.7553 33.0068 10.7553C32.478 10.7553 32.0984 10.6367 31.8679 10.3995C31.6374 10.1557 31.5221 9.76374 31.5221 9.22351V7.08892H30.7696V6.29833ZM34.6924 3.78822H35.5975V10.7059H34.6924V3.78822ZM37.0162 6.29833H37.9213V10.7059H37.0162V6.29833ZM37.4739 5.30022C37.3044 5.30022 37.162 5.24751 37.0468 5.1421C36.9383 5.03669 36.884 4.90822 36.884 4.75669C36.884 4.60516 36.9383 4.47998 37.0468 4.38116C37.162 4.28233 37.3044 4.23292 37.4739 4.23292C37.6366 4.23292 37.7688 4.28233 37.8705 4.38116C37.979 4.47998 38.0332 4.60516 38.0332 4.75669C38.0332 4.90822 37.979 5.03669 37.8705 5.1421C37.7688 5.24751 37.6366 5.30022 37.4739 5.30022ZM42.4825 8.21551C42.4825 8.01127 42.4554 7.83669 42.4012 7.69175C42.3469 7.5468 42.2724 7.42822 42.1774 7.33598C42.0825 7.24375 41.9707 7.17457 41.8418 7.12845C41.7198 7.08233 41.5876 7.05927 41.4452 7.05927C41.0791 7.05927 40.7876 7.18775 40.5707 7.44469C40.3605 7.70163 40.252 8.02116 40.2452 8.40328V10.7059H39.3401V6.29833H40.1944V7.02963C40.33 6.80563 40.5266 6.61786 40.7842 6.46633C41.0418 6.3148 41.3503 6.23904 41.7096 6.23904C41.9537 6.23904 42.1774 6.27857 42.3808 6.35763C42.5842 6.43669 42.7605 6.55198 42.9096 6.70351C43.0588 6.84845 43.174 7.03292 43.2554 7.25692C43.3435 7.47433 43.3876 7.72139 43.3876 7.9981V10.7059H42.4825V8.21551ZM46.7972 10.7849C46.4514 10.7849 46.1328 10.7322 45.8412 10.6268C45.5565 10.5214 45.3057 10.3699 45.0887 10.1722C44.8785 9.97457 44.7124 9.73739 44.5904 9.46069C44.4751 9.17739 44.4175 8.86116 44.4175 8.51198C44.4175 8.14963 44.4819 7.8268 44.6107 7.54351C44.7396 7.26022 44.909 7.01975 45.1192 6.8221C45.3362 6.62445 45.5836 6.47622 45.8616 6.37739C46.1463 6.27198 46.4446 6.21927 46.7565 6.21927C47.109 6.21927 47.4209 6.28186 47.6921 6.40704C47.9701 6.52563 48.204 6.69033 48.3938 6.90116C48.5836 7.10539 48.726 7.34257 48.8209 7.61269C48.9226 7.87622 48.9735 8.15292 48.9735 8.4428V8.68986H45.3124C45.3599 9.11151 45.5226 9.44092 45.8006 9.6781C46.0853 9.91527 46.4379 10.0339 46.8582 10.0339C47.1429 10.0339 47.404 9.98116 47.6413 9.87574C47.8853 9.77033 48.0853 9.62539 48.2413 9.44092L48.7904 9.93504C48.5667 10.2183 48.2785 10.4325 47.926 10.5774C47.5735 10.7157 47.1972 10.7849 46.7972 10.7849ZM46.6955 6.98022C46.3565 6.98022 46.065 7.07575 45.8209 7.2668C45.5836 7.45127 45.4277 7.70822 45.3531 8.03763H48.0582C48.004 7.73457 47.8514 7.48422 47.6006 7.28657C47.3565 7.08233 47.0548 6.98022 46.6955 6.98022Z" fill="#5C6066"/>
</svg>
