<svg width="45" height="14" viewBox="0 0 45 14" fill="none" xmlns="http://www.w3.org/2000/svg">
<mask id="mask0_223_4989" style="mask-type:luminance" maskUnits="userSpaceOnUse" x="0" y="1" width="13" height="13">
<path d="M12.5007 7.41174C12.5007 4.22798 9.88898 1.64703 6.66732 1.64703C3.44566 1.64703 0.833984 4.22798 0.833984 7.41174C0.833984 10.5955 3.44566 13.1764 6.66732 13.1764C9.88898 13.1764 12.5007 10.5955 12.5007 7.41174Z" fill="white"/>
</mask>
<g mask="url(#mask0_223_4989)">
<path d="M12.5007 7.41174C12.5007 4.22798 9.88898 1.64703 6.66732 1.64703C3.44566 1.64703 0.833984 4.22798 0.833984 7.41174C0.833984 10.5955 3.44566 13.1764 6.66732 13.1764C9.88898 13.1764 12.5007 10.5955 12.5007 7.41174Z" fill="white"/>
<path d="M0.833984 7.41174V13.1764H6.66732H12.5007V7.41174V1.64703H6.66732H0.833984V7.41174ZM10.1878 4.99102C10.4134 5.06082 10.6641 5.13964 10.7438 5.1644C10.8236 5.18917 10.8806 5.21619 10.8692 5.2252C10.8577 5.23646 10.6002 5.33329 10.2995 5.44138L9.74807 5.63729L9.22848 5.45264C8.9414 5.34905 8.68165 5.25673 8.64973 5.24322C8.59957 5.2252 8.66798 5.19593 9.1624 5.03605C9.4769 4.93246 9.74348 4.8514 9.7549 4.8559C9.76857 4.85816 9.96223 4.91896 10.1878 4.99102ZM3.79623 5.98182L3.80762 6.90508L4.01269 6.71367C4.12663 6.60783 4.46843 6.29483 4.77604 6.0156C5.08138 5.73638 5.44596 5.40535 5.58268 5.27699L5.83561 5.04731H6.58528C7.29394 5.04731 7.33268 5.04956 7.30306 5.08559C7.26888 5.13063 6.15918 6.29032 5.77864 6.67989C5.64648 6.815 5.34343 7.13026 5.10644 7.37796C4.86718 7.62567 4.57096 7.93417 4.44563 8.06477C4.32031 8.19538 3.93522 8.59392 3.59114 8.95199L2.96452 9.60274L2.95768 7.60765L2.95313 5.61027H2.69108H2.42903V5.32879V5.04731L3.10808 5.05182L3.78483 5.05857L3.79623 5.98182ZM9.1169 5.65305L9.5954 5.84896L9.60223 6.52902C9.60448 6.92084 9.59765 7.20908 9.58624 7.20908C9.5749 7.20908 9.34698 7.10999 9.0804 6.9884L8.59273 6.76771L8.5859 6.11018C8.5814 5.59226 8.5859 5.45264 8.60874 5.45264C8.62465 5.45489 8.85482 5.54271 9.1169 5.65305ZM10.9056 6.11243V6.77447L10.4112 6.9929C10.1377 7.11225 9.90757 7.20908 9.89615 7.20908C9.88707 7.20908 9.88248 6.90508 9.88474 6.53127L9.89157 5.85347L10.3702 5.65531C10.6344 5.54496 10.8623 5.45489 10.8782 5.45489C10.8987 5.45264 10.9056 5.59901 10.9056 6.11243ZM6.98861 7.15052C7.25977 7.20908 7.42838 7.32617 7.51954 7.52433C7.55599 7.60314 7.5651 7.67295 7.5651 7.85085C7.56738 8.2449 7.49218 8.34175 6.77897 8.86865C6.32552 9.20646 6.30957 9.22219 6.28906 9.32356L6.27311 9.39785L6.52604 9.38887C6.69238 9.38434 6.78808 9.37306 6.80859 9.3528C6.82454 9.33707 6.84278 9.26501 6.84961 9.19517L6.861 9.06687H7.22558H7.59017L7.597 9.51042L7.60156 9.95628H6.58757H5.57357V9.53299C5.57584 9.08482 5.58952 9.00379 5.68978 8.87993C5.7194 8.84163 5.97917 8.63452 6.26628 8.42056C6.55111 8.20663 6.79948 8.00397 6.81771 7.9702C6.85873 7.89138 6.85873 7.77203 6.81543 7.71123C6.73112 7.59189 6.47135 7.58964 6.35742 7.70673C6.29818 7.76753 6.29134 7.7923 6.28223 7.95443L6.27539 8.13233H5.94727H5.61914V7.75177V7.3712L5.67838 7.33293C5.76725 7.27663 6.02246 7.18655 6.1888 7.15278C6.38704 7.11225 6.80403 7.11225 6.98861 7.15052Z" fill="#5C6066"/>
</g>
<path d="M16.7773 3.98588V3.78823H17.7173L19.8273 8.94682L21.9173 3.78823H22.8073V3.98588L19.9773 10.7948H19.6073L16.7773 3.98588ZM23.6173 10.4983L25.7673 7.87953C25.9873 7.60941 26.1673 7.37223 26.3073 7.168C26.4473 6.95717 26.5607 6.76282 26.6473 6.58494C26.734 6.40706 26.794 6.24235 26.8273 6.09082C26.8607 5.9327 26.8773 5.77129 26.8773 5.60658C26.8773 5.23764 26.774 4.96423 26.5673 4.78635C26.3607 4.60847 26.0907 4.51953 25.7573 4.51953C25.2107 4.51953 24.7207 4.78306 24.2873 5.31011L23.6773 4.82588C23.7773 4.68753 23.894 4.55247 24.0273 4.4207C24.1673 4.28235 24.3273 4.16376 24.5073 4.06494C24.6873 3.95953 24.884 3.87717 25.0973 3.81788C25.3173 3.752 25.554 3.71906 25.8073 3.71906C26.1207 3.71906 26.3973 3.76517 26.6373 3.85741C26.884 3.94306 27.0873 4.06823 27.2473 4.23294C27.414 4.39106 27.5407 4.57882 27.6273 4.79623C27.714 5.01364 27.7573 5.25082 27.7573 5.50776C27.7573 5.712 27.7373 5.91294 27.6973 6.11058C27.6573 6.30823 27.5907 6.51576 27.4973 6.73317C27.404 6.944 27.2773 7.168 27.1173 7.40517C26.964 7.63576 26.774 7.88941 26.5473 8.16611L25.1073 9.90541H27.8873V10.7059H23.6173V10.4983ZM29.6095 3.78823H31.5395C32.1595 3.78823 32.6428 3.93976 32.9895 4.24282C33.3362 4.53929 33.5095 4.93129 33.5095 5.41882C33.5095 5.61647 33.4828 5.79106 33.4295 5.94258C33.3828 6.09411 33.3162 6.22917 33.2295 6.34776C33.1495 6.46635 33.0528 6.56847 32.9395 6.65411C32.8328 6.73976 32.7228 6.80894 32.6095 6.86164C33.0495 6.94729 33.4028 7.14823 33.6695 7.46447C33.9428 7.77411 34.0795 8.16282 34.0795 8.63058C34.0795 8.94023 34.0195 9.22353 33.8995 9.48047C33.7795 9.73082 33.6095 9.94823 33.3895 10.1327C33.1762 10.3106 32.9162 10.4522 32.6095 10.5576C32.3028 10.6565 31.9662 10.7059 31.5995 10.7059H29.6095V3.78823ZM30.5395 7.39529V9.86588H31.3795C31.9728 9.86588 32.4095 9.75059 32.6895 9.52C32.9695 9.28941 33.1095 8.97976 33.1095 8.59106C33.1095 8.18258 32.9662 7.88282 32.6795 7.69176C32.3928 7.49411 32.0195 7.39529 31.5595 7.39529H30.5395ZM30.5395 4.62823V6.6047H31.2795C31.6728 6.6047 31.9828 6.51906 32.2095 6.34776C32.4428 6.16988 32.5595 5.91294 32.5595 5.57694C32.5595 4.94447 32.1328 4.62823 31.2795 4.62823H30.5395ZM37.2093 10.7849C36.876 10.7849 36.566 10.7289 36.2793 10.6169C35.9993 10.4983 35.756 10.3369 35.5493 10.1327C35.3427 9.92847 35.1793 9.688 35.0593 9.41129C34.946 9.128 34.8893 8.82164 34.8893 8.49223C34.8893 8.16282 34.946 7.85976 35.0593 7.58306C35.1793 7.29976 35.3427 7.05929 35.5493 6.86164C35.756 6.65741 35.9993 6.49929 36.2793 6.38729C36.566 6.27529 36.876 6.21929 37.2093 6.21929C37.5427 6.21929 37.8493 6.27529 38.1293 6.38729C38.416 6.49929 38.6627 6.65741 38.8693 6.86164C39.076 7.05929 39.236 7.29976 39.3493 7.58306C39.4693 7.85976 39.5293 8.16282 39.5293 8.49223C39.5293 8.82823 39.4693 9.13788 39.3493 9.42117C39.236 9.69788 39.0727 9.93835 38.8593 10.1426C38.6527 10.3402 38.406 10.4983 38.1193 10.6169C37.8393 10.7289 37.536 10.7849 37.2093 10.7849ZM37.2093 10.0042C37.416 10.0042 37.606 9.968 37.7793 9.89553C37.9527 9.82306 38.0993 9.72094 38.2193 9.58917C38.346 9.45082 38.4427 9.28941 38.5093 9.10494C38.576 8.92047 38.6093 8.71623 38.6093 8.49223C38.6093 8.05082 38.4827 7.69176 38.2293 7.41506C37.9827 7.13835 37.6427 7 37.2093 7C36.7827 7 36.4393 7.13835 36.1793 7.41506C35.926 7.69176 35.7993 8.05082 35.7993 8.49223C35.7993 8.70964 35.8327 8.91388 35.8993 9.10494C35.966 9.28941 36.0593 9.44753 36.1793 9.57929C36.306 9.71106 36.456 9.81647 36.6293 9.89553C36.8027 9.968 36.996 10.0042 37.2093 10.0042ZM39.9421 10.5675L41.4421 8.43294L40.0621 6.44658V6.29835H41.0421L42.0621 7.81035L43.0921 6.29835H43.9821V6.44658L42.5921 8.40329L44.1021 10.5675L44.1121 10.7059H43.1421L42.0121 9.06541L40.8621 10.7059H39.9421V10.5675Z" fill="#5C6066"/>
</svg>
